<mxfile host="65bd71144e">
    <diagram id="ycTBx5id-o58GIsDP7s5" name="Page-1">
        <mxGraphModel dx="2985" dy="2083" grid="1" gridSize="10" guides="1" tooltips="1" connect="1" arrows="1" fold="1" page="1" pageScale="1" pageWidth="850" pageHeight="1100" background="#ffffff" math="0" shadow="0">
            <root>
                <mxCell id="0"/>
                <mxCell id="1" parent="0"/>
                <mxCell id="2" value="" style="shape=image;verticalLabelPosition=bottom;labelBackgroundColor=default;verticalAlign=top;aspect=fixed;imageAspect=0;image=data:image/png,iVBORw0KGgoAAAANSUhEUgAAB1sAAAP8CAIAAACPnkCGAAAAKnRFWHRjb3B5bGVmdABHZW5lcmF0ZWQgYnkgaHR0cHM6Ly9wbGFudHVtbC5jb212zsofAAACt2lUWHRwbGFudHVtbAABAAAAeJydVs1SGzEMvvspNDnBIaXQTqfNoQPlpy2TTBkCuSu2Ejx47R3bGya3vkZfr09S2bubn0JgYQ9JLOuTP0mfVzkOEX2sCiNQRuehd4GyMnEJbganriirqO387+8/AcaxUmRj6AGuFi+ChiRj5cnXqHbV9Sy4ptJT4F8Y9YLYqbJSGxhRMW1jNrba1AQ+UYW2OkSPvArJK1uEmLKzQr+E3tDNtYUrnFPNLC3TSkhno3em9Titl4b82m9t2wh4huFu6tCrddCVKQdWGHGKgaB3G4g5SsnYyE61OSPSTmsQoq1C/+ua3wB+lWTBZHJlirvaWvmt+Q3gTIfS4LIBzJwvHoXddD+3kblVTMNiQQdUIJcbreKjQnhwXon/ICnKJusBTMjr2RKkp3SKRhMEmggTNFptWYGfTSj0n2KUi5Vql/2fOH2rygOWjNKedQbRMazZytgtx3xYU4l1ldYAMkzop128kfUu5CP+271teZD3LOOCQkgdTsBV07YBdb8sPTzbsxTAOFcCC473nqa2dcpOaXQ5akejXpRJi90tl/Z5rWyeYdVZPu3zKhm1oGfl1D2rlyK8WV6PBPBWmeVkbf07fefEczOweeFZF2GRmq9JdbxNJ7ugHfOtMZKHiLPd71aj0CZRpXgSBZFyEvmFdkPyznJQAzqEisJBDvyqax5XITqTGhPdQ6jK0vkIDOHa86BDKylTO+aPNMzFlUEbb0fDlHtIaR++O3p/9OHdlylFPNy7tffWPViQPHa1IYi6oH2x9/1qCMFVXhKoND/1tEo12xeXuEC4Tq+Pgkmk1d7NaB/G562RJbLQ3tki/Su4nIxqJ/jh4rh0MTt/+tj/piNn4JkTTEbijGbI85+h0ike/Xxrby76n8UQ7bzK2ZIVab5Hv+S9sfgH7kLyulgkDpMAAIAASURBVHhe7N0PnI1l/vj/GdQ2xv/QmCEJQ4WohGqxqs+2u/0hW/6UWrW2Qpt+tqTCJkprlvzJlP6plPInVkV9FJtKqJCi9T/EjFQMM/6P83uv6+P+3u5/c+bMPWfuc92v5+M8etznuq/7uu/7ut7Xdc55d5xJigAAAAAAAAAAwiHJWgAAAAAAAAAA0BQZYQAAAAAAAAAICzLCAAAAAAAAABAWZIQBAAAAAAAAICzICOtp3br1Y8eOGzlylDyefPKpCRMmbNiwwVoJ0IWE97hx45944ikJePmvbBPwAEqCl1EgOHiVBwAA8B0ZYd1s2/bDww8PnTjxxbVrt2/btlc9ZHvy5CmPPTZ8586d1gOARCYhPXTo3ydNeskS8FIi5QQ8gOLiZRQIDl7lAQAASgkZYa0sX/7VQw8N3bTpR+NNs/mxZcvuxx57fNWqVdbDgMS0cuXKRx/9u1vAS7nslTrWwwDABS+jQHDwKg8AAFB6yAjrY+vW7fI51v6O2fzYvn3v8OEj+EoFNCBhLB8F7UFueUgdAh5ANHgZBYKDV3kAAIBSRUZYE8ePRwYNetTtaxTmx9atPw0fPtx6PJBohgwZFk3ASx2paT0YAE7FyygQKLzKAwAAlCoywpr4+us1kya9bH+j7Ph45ZWp69evtzYBJA4J4GefnWKPbceH1CTgAXjjZRQIDl7lAQAAShsZYU2MHv20+W9ueD82bcqZNGmStQkgcUyYMDH6gJeaUt/aBACY8DIKBAev8gAAAKWNjLAmhg0baX+L7PbYsWNfVlaWtQkgcTzxxFP2wPZ4SH1rEwBgwssoEBy8ygMAAJQ2MsKaGDp0hP39sdtj+/a9fJRFQhs5cpQ9sD0eUt/aBACY8DIKBAev8gAAAKWNjLAm+HITQoVvDwHwFy+jQHDwKg8AAFDayAhrgh9ARKjwC4MA/MXLKBAcvMoDAACUNjLCmuCPpCNU+CvkAPzFyygQHLzKAwAAlDYywpo4fjwyaNCjmzb9aH+jbHls3frT8OHDrccDiWbIkGHRBLzUkZrWgwHgVLyMAoHCqzwAAECpIiOsj61btz/00FD7e2XzY/v2vcOHj9i5c6f1YCDRSBg/+ujf7UFueUgdAh5ANHgZBYKDV3kAAMLjp59+2rx582cnybaUWCvBb2SEtbJ8+VfyadbtKxVbtux+7LHHV61aZT0MSEwrV66Uj4JuAS/lslfqWA8DABe8jALBwas8AABaOnjw4NKlyyZMeOa223pfccWv69U7O82JlP/61+3/9Kfe2dnZy5cvl6OsDaFkyAjrZtu2Hx5+eOjEiS+a/yKHbE+ePOWxx4bzNQpoRkJ66NC/T5r0kiXgpUTKCXgAxcXLKBAcvMoDAKCNI0eOzJ377q233makgC+9tG23brc88MAjo0ePz86eMnv2/6qHbEvJgAEP3nxzT6lzMkFc76abbn7jjTcOHDhgbRoxISOsp3Xr1o8dO27kyFEy2Z588qkJEyZs2LDBWgnQhYT3uHHjn3jiKQl4+a9sE/AASoKXUSA4eJUHACCh7dmzd+jQxzIzm6SlpTVv3mLgwMGvvz7722+3mv/1j8dDakp9OUqOlRYaNWo8YsSIvXv3Wk+DYiIjrLmsrCxrEaAvAh6Av1hVgOBgPgIAkHBmzZqdmdkkIyPjT3/q8/bbH2zdusee843yIcdKC9KOtNakSdO5c+daT4biICOsOd46I1QIeAD+YlUBgoP5CABAYhk69LG0tLSrr77m44+/tGd4Y35Ia9KmtDxixAjrKRE1MsKa460zQoWAB+AvVhUgOJiPAAAkkH/8459paWn33HPfli0/27O6JXxIm9KytP/0009bT4zokBHWHG+dESoEPAB/saoAwcF8BAAgUaxe/U3duvV69brDnsz18SHt16tXb82aNdbTIwpkhDXHW2eECgEPwF+sKkBwMB8BAEgUffrc1ahR4+j/fFxsD2m/cePGffv2tZ4eUSAjrDneOiNUCHgA/mJVAYKD+QgAQEI4cuRIgwYN+vYdYM/h+v7o3//+c889V85ovQgUhYyw5njrjFAh4AH4i1UFCA7mIwAACWHVqlUnfuH3OXsC1/fHuHHPybm++eYb60WgKGSEE9Vbb72VFYUbb7zRWuREWrOeAAgSAh6Av1hVgOBgPgIAoJMXX3wxLS3tiSf+aU/g+v6Qs8i5pkyZYr0IFIWMsOay+DIFwoSAB+AvVhUgOJiPAKJRWFhoLQIQX7NmzUpLSxs0aKg9gev7Q84i55IzWi8CRSEjrDneOiNUCHgA/mJVAYKD+QigSN988827775rLQUQXx9//HFaWtpNN/W0J3B9f8hZ5FxyRutFoChkhDXHW2eECgEPwF+sKkBwMB8BeDh69OjgwYPPO++8PXv2WPcBiK/PPvssLS2tQYNzv/12qz2H6+ND2pezyLnkjNaLQFHICGuOt84IFQIegL9YVYDgYD4CcJOXl9e2bds6der079/fug9A3KmMcEZG3V697rCncX18SPtyFjLCsSEjrDneOiNUCHgA/mJVAYKD+QjA0XfffdeoUaOMjIzzzjtv6dKl1t0A4k5lhP/yl/7y33vuuW/Llp/tydwSPqRNadk4CxnhGJAR1hxvnREqBDwAf7GqAMHBfARgN3fu3IyMjLS0tFtuuaV9+/bW3QDKgsoIz579vw8+OEQ2rr76mo8//tKe1Y35Ia1Jm9KytC9nISMcGzLCmuOtM0KFgAfgL1YVIDiYjwAsRo4cmXbSLbfcMnnyZGsNAGXByAhv27b35ZffzMxskpGR8ac/9Xn77Q+2bt1jz/BG+ZBjpQVpR1qTNqVlKSQjHDMywprjrTNChYAH4C9WFSA4mI/KW2+9ZS2KyfHjkZ9+2vv669P//vcnhg0bOWTICPmvbEuJlMteIOB++WVPw4YN69SpozLC9erVu//+B4cPf+LNN2fm5e2z1kbwsJppzJwRlseaNdsefHBIw4aNpLB58xYDBw5+/fXZ0f/ROakp9eUoOVZayMxsIq1Jm2ovGeGYkRHWHG+dESoEPAB/saoAwcF8VHzphzVr1g8ePOzxx//x4YdLLR+8pUTKZa/UsR4GBMOxY4UrV64dNGjofff9LTOzSf3656SlpbVu3eYf/xhvxPCQIY9t2LDReiSChNVMY5aMsHqsX587ceKLN9zQtW7deup/5Fx6adubb+45YMCDo0ePz86eIvXVQ7al5IEHHunW7Rapc/L/+pzdvfutr746c/Pm3eZmyQjHjIyw5nxZZIFEQcAD8BerChAczEelhP1w7Nixp54aM3r0BMsnastD9kodqSn1rU0AZSo//9DIkVlGDK9cueHXv+7YsGGjc845p23by8wxnJU1cezYcYWFhdYmEAysZhpzzAgbjw0bdr377sJRo57u2fO2yy67ol69s1XO10LKZa/UkZpSX46yN7WNjHAJkBHWXAkXWSCxEPAA/MWqAgQH81EpST/k5e0fOPCh6P+8j9SU+nKUtSGgjOza9cuAAQ9aYnjjxl233vqnRo0aN2hw7ty5H1li+KGHHs7Pz7c2hABgNdOYd0bY/vj6682fffa18R1h2ZYSezXHBxnhmJER1lxJFlkg4RDwAPzFqgIEB/NRibkfjh0rHDjwodWrt9g/Tns8pL4cJcdamwPiLj//0IABD7rF8NChI+vUqdO79132GB48+BG+KRxArGYaK25GuCQPMsIxIyOsuZgXWSAREfAA/MWqAgQH81GJuR9Gj346+u/TmR9ylBxrbQ6Ir2PHCkeOzPKO4VdemdGkSVP7n6tavPir8eMnWFtEWWM10xgZ4YRARlhzMS+yQCIi4AH4i1UFCA7moxJbP2zcuCkra4L9g3SUDzlWWrA2CsTRypXfjR5ddAx/+OHnU6ZMt5ePH5+9ZcsWa6MoU6xmGiMjnBDICGsutkUWSFAEPAB/saoAwcF8VGLrhyFDHtu06Uf7B+koH3KstGBtFIiXY8cKBw0aGmUMf//9L/ZCOXbEiBHWdlGmWM00RkY4IZAR1lxsiyyQoAh4AP5iVQGCg/moxNAP+/fvHzFitP1TdLEe0oK0Y20aiIvc3J8ff/wf9rAs1iMraywxHCisZhojI5wQyAhrLoZFFkhcBDwAf7GqAMHBfFRi6Ie3357z4YdL7Z+ii/WQFqQda9NAXEydOqPkMfzJJ1/MnTvX2jTKDquZxsgIJwQywpqLYZEFEhcBD8BfrCpAcDAflRj64cknn7J/hI7hIe1YmwbiYtiwkfaALO5j5859MUwflJ4YhoPVLFGQEU4IZIR1duDAge7du8t/rTsAHRHwAPzFqgIEB/PREEMOZeTIUfaP0DE8pB1r00BcDB3qQ0Z4+/a8GKYPSk8Mw8FqlijICCcEMsLaKiwsHDJkyJo1a+S/sm3dDeiFgAfgL1YVIDiYj2b33XdfVjHde+8A+0foGB7kUFBWyAhridVMY2SEEwIZYW3Jcrl+/XrZkP9m8coH3RHwAPzFqgIEB/PRLIYe4N9ZI9HxqxFaimE4WM0SBRnhhEBGWE+vvPKKeT7ItpSY9gNaIeAB+ItVBQgO5qNFDDmUp576h/0jdAwPacfaNBAXjz32hD0gi/v48cf8GKYPSk8Mw8FqlijICCcEMsIaev/992fNmmUplBIptxQCGiDgAfiLVQUIDuajXQw5lLlz5y5atMz+KbpYD2lB2rE2DcTF9Olvf/jhUntYFuuxfPlKYjhQWM00RkY4IZAR1s2qVasmTZpkLT1BymWvtRRIZAQ8AH+xqgDBwXx0FEMOZf/+/U899U/7p+hiPaQFacfaNBAXe/fmPf54Sb8c+vTT44jhQGE10xgZ4YRARlgr27dvf/zxx62lJrJX6lhLgcREwAPwF6sKEBzMRzcx5FAi/+2uEZs3/2j/IB3lQ46VFqyNAnE0ZMhjmzbFHsM5OXtHjhxpbRRlitVMY2SEEwIZYX3k5eU9/PDDR44cse4wkb1SR2padwCJhoAH4C9WFSA4mI8eYsuhbNmyZcKEbPsH6Sgfcqy0YG0UiKONGzdlZU20B2c0j+3b8yZPfp4YDhpWM40tW7YsLS1t1qz59iHw/fH22+/LueSM1otAUcgIayL698TRvMMGAo6AB+AvVhUgOJiP3mLLoYgJEyZ+/vlK+2fpIh9ylBxrbQ6Iu7Fjx3388Zf2EC3y8fXXayZOJIYDh9VMY1u2bElLS3v22Vfso+D74/nnX5VzkeiPARlhTRTr380V+a/wgIAj4AH4i1UFCA7mo7eYcyiFhYWPPjrku++22T9Oezykvhwlx1qbA+JO4vChhx5evXqLPVA9HzlDhhDDQcRqprEjR440aHBu374D7APh+2PAgIHnnntu2P73sC/ICOsghr+t4fGXOoCAI+AB+ItVBQgO5mORYs6hiPz8/CFDhixdusr+idrxITWlvhxlbQgoIxKNgwc/snjxV/ZwtT+2b8/7+us1xHBgsZrp7Z577mnUqPG33261D4ePjzVrtmVmZvbt29d6ekSBjHDCmzVr1vvvv28tjYIcJcdaS4FgI+AB+ItVBQgO5mM0SpJDiZz4bt3EiRMnTXpu27af7R+tTY+fpY7U5Pt0CBqJyfHjJ4wfn715825b3P6/R27uf387mBgOMlYzva1Zs6ZevXq9et1hGxE/H3fe2UfOIueynh5RICOc2D777LNXXnnFWho1OZY/yIgEQsAD8BerChAczMcolTCHomzevHnkyJFjxjy9ZMlXubn7d+zYJ5+r5b+yLSVSLnuljvUwIDAkPkeMGJGVNfbTT7/YuXPf9u158pCN3bvzly9f+fTT44jh4GM1097TTz+dlpZ2zz33bdninbWP5SFtDhjw/0n7chbriREdMsIJbP369SVfQ6UFacdaCgQPAQ/AX6wqQHAwH6P31ltvWYtilZ+fP2fOnKxTSQn/sBqJghhOaKxmYTBixIi0tLSrr74mtj8L6fb45JMVv/vd76Vlad96SkSNjHCi+vHHH335gXxpQdqR1qw7gCAh4AH4i1UFCA7mIwAAupo7d27Tpk0zMjJ69+7z9tsfbN26x57hjfIhx/7rX//bp8/d0pq0KS1bT4biICOcqF5++eUDBw5YS2Mi7Uhr1lIgSAh4AP5iVQGCg/kIAIDG9u7dO2LEiMaNG6elpbVoceEDDzz8+uuzo/+jc1LzzTfnDB786IUXtpQWmjZtKq1Jm9bToJjICAMAAAAAAAAoLQcOHHjjjTe6detWr169tBPatm3Xo8etAwc+9M9/TszOnjJ79v/KY86cBc8998qYMc8MHjzk1ltva9eunap89tln9+7de968eUeOHLE2jZiQEQYAAAAAAABQ6g4ePLh8+fJnn332zjvv7NChw9lnn61yvhZSLnuljtSU+nKUtSGUDBlhAAAAAAAAAGXgp59+2rx582cnybaUWCvBbzpnhBctWpSUlLR7927rDv8899xz55xzTrly5eRE1n0JJQ59FQfqLvbs2WPdEQJxGEGiHUETh6Ek7AMlzIt8WdEjcgzm2ynzWyvzCyiJ2CZjlLccZTWY0WkIOG1CNFCvI0Hm0Tkeu0qJOmNxX7OASFmEa5yV5Udc1blm9913n7VSCdjXa39XgR9++KFcuXLZ2dk7duzIycmx7o5Etm/f/pe//KVevXqnnXZarVq1/vjHPy5fvtxaKe4cu+Lw4cNyC8ePHzcXFotqNsr/jbNx48abbrqpZs2a5cuXP/PMM9u3bz9//ny1y/HyolSSY5WSt+CGaC8Tjl0R52g3D00JOd5OkBH2ZcKxK+Ic9om7yJuDtkqVKr/97W/XrFljrZQ4irxfM8fKJY8cszKfMubbUfdrX5xVeeXKlQsKCozCtWvXqqiIsjOj4XYBZeurr76Sq7rsssusO07lGC1FijKciqwW29kNJTzcL/4GQJGdZqcuQKlevXqPHj1+/PFHayWEWJmHaKQUXjVKPv3N3eJvF5U5Y01ITk6uWrVq69athw8fvm/fPmu96Hh0jseuUuI27sYtJwVpGbT3j9v1+yXKl/44K/KuY47YIls2sw+HZso+IyyftXJOimb8omcevGKNepQ+/vhjafOXX36x7jhBPg/Xrl37+uuvl2rbtm378ssvBw8e/Pvf/95aL+5KoysiJ75Jd9FFF1lLnRw8eLBu3bq/+93vli5d+sMPP6xcuXLcuHFvvPGG2luSyyvJsUrJW3BDtJeJ0uiKSHGiPeLrq0hJbufo0aPWInfFquyBsC8TpdEVkeKEfUIv8uaglffHV199dZMmTayVSsyvKVakIu/XrFiVYxC0KaPu1744q/J69epNmTLFKBw4cODZZ5/tb/+4XUBx+RtO99xzj3ymKleu3Nq1a637TEo7WrxFc3aPbonmcA8eLReLXwEQM3UBarn7/PPPL7jgAlm3rZUQYmUeoqXxqhHN9Pee4+Zuia2LvNsvQ+Y1Yd26ddOmTWvVqlWjRo1iS5J6dI7HLl/Ye9ht3M23HJxl0N4/btcfA3vnRKJ+6Y+zIu865ogtsmUz+3BopuwzwvbOlbfgF1544emnn16tWrVbbrnFGKrCwsKnnnqqYcOGp512Wp06dR577LGIrRHz6Jp3JZ1KSuRwmfPqKOWyyy679957zSWRE3PmkUcekQ+3ctLMzMwXXnjB2GVv0+x//ud/7K9Yxr14NKsu+/3337/44ot/9atftWnTRl4O5XP1JZdcIk/lv+vXrzfXXLBgQbt27WSXfFaZMGGCeZdjt5x61f932eb6avuDDz6QD/8yCnLG//znP6ra4cOHBwwYULNmzYoVK3bu3Fk+4RvN3njjje+8846q9uyzz8pHqfLly6enp48ZM0YVGmS1laO2bNliKVdOvbr/Xp7HvUg3yoc0dT3XXXfda6+9ZuwS48aNk76VHs7IyBgyZMixY8fMLTje4Kkn/7/O8b6dKFnuwkC0J2kd7RHb5Zm5hajj6Eecbsfj3tX2vHnz5AVe2lEX7HZGe+Ui7ysabvdO2CdpHfYJt8ibWS5Ghkmemv+KhfdJHQfL2BvlfHTrXrf6xb1ftwnoWNnokOeee04+mRsnFT169JBBUdtu12YW25TxCA+PG3dcTCytWVo2qHK5i/bt26uSI0eOyL0PHTrUOHXE/ZbV4SWc4Ir3KXxfsSMn/gJ41apV33vvvauuukqmnnmXx2Qs7i0XuRCZqzneWtKpzEeZu6VYoe4WgY4tO15VcZlv08zjSjyW6Cj71sxyAdOnT5c7Un+93a3rPC4g4h6xSFBlHqKxvWpEPNtXs95grm+e40U27vg64jYF7O0brQWKfcTlRaFJkyb33HOPeuq2MjguiR6joHa5vfx5dL7bBdh72OM1y8xyywFZBu0DoUrUWRx7O+J+anvnGIcoHi/9bu+m3Mrdxs5yR+bbUduOcZJ0KlVoZu+oKCPWsWW3yuosbuHqdlRxh6kMOfRs3NiHUHn11Vc/+uijbdu2/fvf/27WrNmtt96qyh988MHq1atPmzZNdn3xxRfquxtFhpfaNWvWLNlet26d+p5a5MQ/QpERWrZsmTpQIk8qfP311+qpoW/fvrVq1Zo7d+7WrVuff/55CYKXXnpJ7bK3afjpp5+Sk5Mlss2FZh7Nqstu27btkiVL5Kouu+wyeYfdsWNHeW+tnl555ZXmmo0aNbK349Etjpdtrq+25UTyqf67776TK5Gzq2p33323zHlZL+R0L7744llnnWU0a9iyZYvc+5NPPvn999/LMMm1mfcKKZcKo0aNOur0f6jsl+dxL3/961/lQ5q6ffmwKkuzsWvYsGGyHMjaJwMtE/icc855+OGHzS043qD97EXeTpQsd2Eg2pO0jvaI7fIMHiHqOPoRp9vxuHe13bJlSwktuTyp43FGS+UVK1YUeV/RcLt3wj5J67BPrEXewnwxe/fu7dWr13nnnWfsLfKkjoNl7I1mPrp1r1t9o/Ho79dtAjpWNjrkl19+kfe7xq9/7N+/Xz4LvfXWWxHPazPEPGU8wsPjxh0XE0trlpYNqlz64Ywzzti4caOUvP322+eee+7ChQujD78STvBoTuH7ih05ERvyAUY+6cmnYhkO9alY8ZiMxb3lIhcio5rbdPCIVfMsK1aou0WgvWW/OtzcG2YeV+KxREfZt2aWC/jXv/4l93Xo0KGI+yrhcQEeEYsEVbYhGvOrRsSzfcfpr+qbV48iG7e/jnhMAXv7qjxoHEd87NixMqZq23FlcFuoPUZB7XJ7+fPofMcLMBo097DHa5aZ5ZYDsgzaB0KVyFncetvj1PbOMZpVPF763d5NuZW7jZ3ljozbMbYd48RxtprZOyoSRcRGXFp2q6zO4haujkfFMExlKMlaEEeqc1NNpIstdWbPni3lx48f37dvn3T9yy+/bKlQZHiZ12vLKvCHP/zhrrvuUtsS1pdccol5b+TEp8HTTjtNhtkokWpNTv4DUsc2FXkTLLtkpK07ToimWQks9VRmpjxdvHix8bRChQrqfyaompZ2mjZtauzy6BbLZdv7Sj75qF3yeU/OKB/s8/Ly5LJl5htHPfTQQ/amJOiTnNIuZuPGjZNPkpUqVbriiisGDhwohxi77Jfndi9yPfLp1Hz7f/vb39SugoKClJQU+WRi7HrjjTdq1Kihtt1u0NhlPns0txMN1TLRHnFqVu9ot1ye4hGibqMfcbqdIu/deAXyOKO9cjT3FQ3VLGEfcWpW77BPoEXeQlVQ4SobmZmZKicYiW4SOQ6WsTea+ejYvR71IyW7X2MCRlwqq0I1Op07dzbeH7/22mtVqlQ5ePCg97UZYp4y5gswnppD3X7jbotJ5NTWLC3b69x8883qnbqsJI8//rhxau9bVtVKOMGjOYXvK7bo0KGDfFyJnPxa9IwZM1S5x2SMFP+WvRciczW3WzPGwl5odIuFd6h7RGDE1rLbVRWXuTcMHlfivURH2bdm5kPkvzL68lHcUidi6jqPC/COWCSosg3RmF81Ip7tq13eq0c0jVteR7yngKX9wDLfmmH+/PlSePjwYXNhxLQyuC2JRY6C48ufd+eb2Vd1o4e9X7PMzLccnGXQPhCqRM7i2Nvepy4y/Nxe+t3eTbmVe4yd5Y6M2zG2PeLEPmoGe0dFoojYSBQt2ys7hquF96TwHqYyVPYZ4eXLl284SY39p59+euWVV9aqVUs+TJ5xxhlSR8Ju2bJlsmHPJhQZXub12jLqc+bMqVq16oEDB+R9ap06dbKzs817Iydfiswnfe+996RE/Y8jxzYV79ewaJrdtWuX2qWe/vzzz+anMt+Mbcd2zPdu1DR3i+MLobmvLBcgZ1SXvW3bNuModTpLUzKIrVu3lo6Vz43yMcDtm/Aypu+++658xLrqqquSk5PHjh2ryu2X53Yv9pAwrkeCKunUPJQKpP379xst2G/Q3LjRZpS3UyTVMtEecWpW72i3XJ7iEaJuox9xup0i733Hjh1ql8cZ7ZWjua9oqGYJ+4hTs3qHfSRxFnkLVUHa/89//jNp0iR5aztr1iy1K5qT2q/WPOjRzEfH7vWobzQe/f06TkC3yqpQjY58SJBD1N9bu+aaa3r37h0p6toMMU8Z8wVETr1Itxu3R47B3JqlZXudDz74oG7dujIj5IOlXLlxau9bdryq4k7waE7h+4otS3T58uWN65EPPDLKatvepebFobi37L0Qmau53Zqq4BirRrdEihPqHhFo1Pe9w829YfC4Eu8l2tya2nbsWzNVrgJMVulLLrlk3bp1apdj13lcgHfEIkGVbYjG/KoR8WxfbXuvHtE0bnkd8Z4ClvYDy3xrhnnz5iWdzK85rgxuS2KRo+DYw96d73gBRoNGD3u/ZpmpA9WQBWcZtA+EKpGzOPa296ktnWNRrJd+73KPsbPckXE7xrZHnNhHzWDvqEgUEWscWKy3x4735XZUDMNUhso+I2wZQhmYypUr33777UuWLFm/fv0rr7yiRsst8v7973+bG/noo4+M0TW37zjqMlR16tR57bXX5s6dW7Fixby8PPPeiGdYR1zaVLz/nUs0zTpOGMtTtW1fkqSdIrvF8YXQ8tpm3iX17S/Mar7Ze+DIkSPvvPNOv379qlev3rlzZ8teu+HDh8sUKiwsjDhdntu9qJCw375xqZ988omRh1LMp7DfoGXbUNzbcWQ5qUK0e4yF5anatg938KPdcgrFI0TdRj/idDtF3ruxy+OM9sqRKO4rGvZmI4S9rVssZzE/VduJGPYWAV/kzSzH3nfffWeffbb6B3TRnNR+tY6D7t2UvXu96xfrfve4TEDHykahalzuRd7dvvHGG/LGvUKFCuo7od7XZoh5yriFR8T9xt0WE6OO40Sw15FbkNHv2LGj+nRktO99y25XZX+qth1jpliniDjFTAwGDRokzZY/qdwJ6vI8JmPEdj1F3rJj/7tVc7w1yynMhUaDxQp1jwg06vve4fZmI55X4r1Em1uztGy/X3O5fEbduHGjzFCj3K3rPC7AO2KRoMo2RGN+1Yh4tu94Lkv96Bs3tr2ngKX9wHK8zn/+85/p6ekR95Uh4rIkWloz97zatr+mGFHk2PkeF2A5l/drlpk6MGjL4GeffSZN/fDDD0aJ+t7rgQMHIk697X1qx2E1FPnSb3835VbuMXYxvJezbDtyvLVoItbecpGV7eHkHZPFHaYyFLiMsJoARo+PHj1adavbt9NXrFghFb777jv1dNy4cY7htXjx4iTTFxYMgwcP/s1vfiODdNttt1l2RU7+4xe3r4jbI8ns6quvtv+pSlU5mmYdZ4Xlqdp+7bXX1K7IiSmt2vHoFseuMJ/U7QL2nviHAG+++aZxlPSeRw9ETv7LQbV4eZgzZ47xkz32y3O7F/XvQcy3/8ADD6hd+/fvP+OMM15//XVjl5nbDUaczm4W5e04spxUIdo9xsLyVG0nYrRbTqF4hKjb6Eecbsfj3i3n9ThjxFbZzO2+ouHYLGHvFnX2p2o7EcPeIlEW+YjtWHlfK++P33jjjUh0k8hxsIy9Uc5Hg9G93vWLdb9uE9CxcsTW+B133PGHP/xh/PjxdevWVW9hva/NLLYp4xYeEdu1GTfutphEPCeCYx311+TUv6A02ve+Zbersj9V244xU6xTmEU5Je2OHj2alpb25JNPfmPSsmVL9ediPCZjxHY9Rd6yY/+7VTOYby2aWC1WqHtEYMTWslnMHR5xadbjSryX6Cj71szxAiLuXedxAd4RiwTlGCHxDNHYXjUinu3bp7+9fvSNG9veU8DSfmDZr1P9na6+fftG3FcGo3Lk1CXRYxTUtuPLn0fne1yAfQQ9XrPM7LesuJ3LI8i9Y6BYcnNz5W3zvHnzjBJ5dVZZTrPY3iWaeb/0u72bciv3GLsY3stFXGarmf3WooxYe8selT3C1eMoQ5TDVIYClxHesWOHfPqSSbtly5bZs2fXq1fP6FYJqRo1asgM3Gb6BevDhw/XrFmzZ8+eUn/+/PkNGzZ0DC/5UCfbErg//vij+YybNm0qV65chQoVPv74Y6PQrF+/frVr137nnXfkpC+88IL5Z6TN8Wq3fv36WrVqXX/99dKyHCvTYMiQIcbfSy2yWcdZYXmqths3bvzuu+9KOy+++KIEmfqTjh7d4tgV5pN6XMDdd98ti5EsT3I66X9ZQZJs/8Zn2bJlEyZMkAm/YcOGXr16ZWRkqF9gMXz66afdu3efNWuWVJB25OJl3ho9Y788j3vp37//WWedJS3IUXLj0uHGrr///e8SLbIkff/993IiCRvHPzVuPHXrnCJvJ0qWkypEu8dYWJ6q7YSL9sjJNuW/K00KCws9QtRx9CNOt+Nx75ZbixRnUkRzX9GwX0OEsLd1i+Us5qdqO+HCPrEWeQvLsZETP55r/KhckSd1HCxjbzTz0a173erbG/e+X48JaK9sb3zhwoUym84//3xpQZVEPK/NLLYp4xEeHjfuuJhYDrEPir3OkSNHdp/4srBRXpLwszxV224xE/0p3GKmWObMmSMja/6GlBg1atQ555yjWvOYjMW9Zcf+d6zmdmvRxGpxQ90tAu0tu11VcalmF9neHnhciccSHWXfmlmqGTy6zuMCPCIWCarMQzS2V42IZ/uO098+F6Js3LztMQXs7QeTus41a9bk5ORI58sttGrVqlGjRtJXEfeVwW1J9BgFte328ufW+W4XYD9XxPM1y8x+oOJxLo8g94iB4pI3n+edd55E/vbt2+UCpFm/3iWaFfnS7/Zuyq3cbexiey/nOFvNVOXiRmzEqWWPyh7h6nZUDMNUhgKXERbSy3Xq1JGOvvLKKyW8jMGQV6AnnnhCAlT6Xbr18ccfV/U/+OADiSoJuE6dOkn/uoXXiBEjpNly5cpJ4clT/ddvfvMbGWBzidnRo0cffvhhOd1pp52WmZn5/PPPG7vM8epIIubPf/6zHCszTZahm2666auvvlK7imzWcVZYnqptuf02bdrI7UsIjhs3zmjHrVsiTl1hPqnHBchkvu+++ySOK1aseO2118osSjr5L2gMa9eulS6tXLmy3JpcmMwH816xc+dOWUlljZNrkzoNGjQYMGBAnulfc9svz+1e5KPa/ffff+aZZ6akpPzud7977bXXzLf53HPPtWjR4vTTT09NTb300kuNTva4wYjt7EXeTpQsJzUQ7R5jYX6qthMu2iMn27RQPxjkFqJuox9xuh23e7fcmuJ2RkvlaO4rGo7XECHs3aPO8lRtJ1zYJ9Yib2E5NnLyn7Z9cfKP43mf1G2w7M1GXJry6F7H+hFb40Xer9sEdKxsaVwmad26dZNsfy7D7dosYpsybuHhceNui4n5EMdBKbK8hOFnfqq23WImEvUpPGImetddd93VV19tKdy0aZO6wojnZCzuLTv2v2M1j1srMlYjxQx1jwi0tOxxVcWimrXYf+LHxN2uxGOJjrJvzew9ZnDrOo8LiLhHLBJUmYdoJNZXDe/27dPfPheibNxyoNsUsLcfTOo6RXJycpUqVS655JLHHnvM/P7NcWVwWxI9RkFtu738eXS+4wUYDZp72OM1y8x+oMHtXB5BHnGPgeKSbr/rrrtq164tkV+/fv3hw4er36J16+2I+6k97rHIl363d1Nu5R5jF8N7uYjTbDVTlZOKGbFql71lt8re4ep4VAzDVIYcejZsmjRpMmrUKGtpIvCY3vExcuRIWaGspQgwoj1mRHviIuxjRthHr8wHC0DYlPkSXeYXgIAjQqA9ghyJLtQZ4R9//PGZZ55JSUkx/rhhYon/589Vq1a99tprGzdu3LJly/PPP5+ampqgeZYQItqLi2jXAGFfXIR9zOI/WADCpsyX6DK/AAQcEQLtEeTQTKgzwvLhrWbNmsbvniSc+H/+lBXwkksukYWvQoUKjRo1kuWvzP82IqJEtBcX0a4Bwr64CPuYxX+wAIRNmS/RZX4BCDgiBNojyKGZUGeEw+Czzz6zFgH6IuAB+ItVBQgO5qMv6EboitgOG0ZcSwxrPJER1lxWVpa1CNAXAQ/AX6wqQHAwH31BN0JXxHbYMOJaYljjiYyw5phOCBUCHoC/WFWA4GA++oJuhK6I7bBhxLXEsMYTGWHNMZ0QKgQ8AH+xqgDBwXz0Bd0IXRHbYcOIa4lhjScywppjOiFUCHgA/mJVAYKD+egLuhG6IrbDhhHXEsMaT2SENcfPciNUCHgA/mJVAYKD+egLuhG6IrbDhhHXEsMaT2SEAQAAAAAAACAsyAgDAAAAAAAAQFiQEQYAAAAAAACAsCAjDAAAAAAAAABhQUZYc/wsN0KFgAfgL1YVIDiYj76gG6ErYjtsGHEtMazxREZYc1lZWdYiQF8EPAB/saoAwcF89AXdCF0R22HDiGuJYY0nMsKaYzohVAh4AP5iVQGCg/noC7oRuiK2w4YR1xLDGk9khDXHdEKoEPAA/MWqAgQH89EXdCN0RWyHDSOuJYY1nsgIa47phFAh4AH4i1UFCA7moy/oRuiK2A4bRlxLDGs8kRHWHD/LjVAh4AH4i1UFCA7moy/oRuiK2A4bRlxLDGs8kRFGPHzxxRdJSUkHDx607ijKihUrUlNTDx06ZN0BAAAAAAAAoPjICIfXhx9+eMUVV1SuXLlatWrXX3/92rVrrTX8E3NGGAAAAAAAAICPyAiH1HvvvVepUqWpU6cePXq0oKBg5MiR1atX37hxo7WeT8gIAwAAAAAAAEFARjikmjZt+uSTT5pLep4QOZm9feGFF+rXr1+pUqXbb7/dyOTu27evd+/eNWrUqFq1qpQXFBQY9WfOnCltpqSkXHTRRatXrza3bNRR7ezatatLly6VK1c+88wz+/fvf/jwYVVn+/btnTp1qlixYrNmzcaPHy/1jx49ahwY/Vkcrzw7O1sOlEK5cjl7Tk6OKnc8acTlTgEAAAAAAIBER0ZYc44/y719+/akpKRNmzaZC//1r3/VrFkzcjKvetNNN+Xn5+fk5LRo0WLgwIGqTteuXTt37pyXl7dv374rr7zy3nvvNer37Nlzz549hw4d6tWrV9u2bc0tG3VUflYO7NKlizSem5srjQ8aNEjV6dChw80331xQULBr1y5pwTEjHM1ZHK/8nXfeUd+AlsblAq677jpV7njSiMudIvgcAx4AYsaqAgQH89EXdCN0RWyHDSOuJYY1nsgIay4rK8taFImsXLkyKSkpPz/fXPj5558nJydHTuZVjZ8VfvPNN9PS0mRj9+7dUmHdunWqfN68eeYM8tatW1X54sWLK1SooLYNRmI3JyfHsXFVbjQ+Y8YMx4xwNGexN26xcOHClJSUiPtJ3e4UwecY8AAQM1YVIDiYj76gG6ErYjtsGHEtMazxREZYc47TSX1HePPmzeZCy3eEjXyxkSletWqVlFc9qUqVKmeccUZhYaH5+7/G4eqbtgajjiUZbTRuKV+6dKljRjias9gbF7NmzWrTpk316tXlsitVqiTVjh075nZStztV1RBkjgEPADFjVQGCg/noC7oRuiK2w4YR1xLDGk9khDXnNp2aNGny1FNPmUtuvfXW7t27R2zftH3rrbfOOuss2cjNzZXyHTt2mI+KnPqLEMZTx1yt/TvC0rj6Gu/OnTuTTF/XnTlzZswZYfuVS+Ply5efNm3aoUOH5OlHH32kjnU7qdudIvjcAh4AYsOqAgQH89EXdCN0RWyHDSOuJYY1nsgIa85tOs2dO7dSpUpvvPHG0aNHCwoKRo0aVa1atfXr10dO5lW7deuWn5+/a9euli1b3n///eqo66+/vmfPnj///HPkxE8uLFiwwKgfTa5W1enUqVPXrl3VT/dK4w888ICq0759+x49ehw4cGD37t3t2rWLOSNsv/JNmzZJ+fz582V769atHTp0MI51PGnE5U4RfG4BDwCxYVUBgoP56Au6EboitsOGEdcSwxpPZIQ15/Gz3B988MFll11WqVKlatWqXXvttd9++60qV3nVF154oX79+qmpqbfeemtBQYHalZeX16dPn5o1a8pRmZmZY8aMMepHk6tVdXJycm644YbKlSvXqFGjb9++6nu7kRO52o4dO1asWLFZs2Zjx45NTk4+fvx4DBlhxysfNWpUrVq15LJbt26dnZ1tHOt40ojLnSL4PAIeAGLAqgIEB/PRF3QjdEVshw0jriWGNZ7ICMPKknstE9OmTXP8o3DeSnjlsZ0UAAAAKFu5ublTp07ds2ePdQcAAIATMsKwKmFeNWZr165ds2aNbGzZsqV58+b9+/e31ihKDFde8pMCAAAAZW7JkiWNGze+++67ly1bZt0HAABwKjLCsIohr+oLeRfboEGDihUrVq9evXfv3vn5+dYaRYnhykt+UgAAACAI5s2bl56eXqdOnbZt206ePJmvDAMAADdkhAEAAABAB/PmzcvIyEhLS7vgggsaNGjAV4YBAIAjMsKa42e5ESoEPAB/saoAwcF8jJKRFBYNGjRo2rSp+SvDdCN0RWyHDSOuJYY1nsgIa069FwQAAAAQTnXr1pX/ZmZmLly4MCsry/qBAdACsR02jLiWGNZ4IiOsOaYTQoWAB+AvVhUgOJiPUZo+fXp6errKBV944YUtWrS44oorjO8I043QFbEdNoy4lhjWeCIjrDmmE0KFgAfgL1YVIDiYj9FQ6eC6deteeumlDRs27Nevn+V3hOlG6IrYDhtGXEsMazyREdYc0wmhQsAD8BerChAczMciTZ8+PSMjIz093fylYAu6EboitsOGEdcSwxpPZIQ1x89yI1QIeAD+YlUBgoP56G3JkiVNmjSxfynYgm6ErojtsGHEtcSwxhMZYQAAAABIYLm5uVOnTnX8UjAAAIAdGWEAAAAAAAAACAsywgAAAAAAAAAQFmSEAQAAAAAAACAsyAhrjp/lRqgQ8AD8xaoCBAfz0Rd0I3RFbIcNI64lhjWeyAhrLisry1oE6IuAB+AvVhUgOJiPvqAboStiO2wYcS0xrPFERlhzTCeECgEPwF+sKkBwMB99QTdCV8R22DDiWmJY44mMsOaYTggVAh6Av1hVgOBgPvqCboSuiO2wYcS1xLDGExlhzTGdECoEPAB/saoAwcF89AXdCF0R22HDiGuJYY0nMsKa42e5ESoEPAB/saoAwcF89EUM3bhixYrU1NRDhw5Zd3j64osvkpKSDh48aN1RHDE3EsM1jxw5skaNGnLUokWLrPuQCGKIbSQ0RlxLDGs8kREGAAAAgPBSidfU1NTKlStXq1atZcuWgwYNys3NtdYrjpiTuWa+NBINudnk5ORly5ZZdwAAoCkywgAAAAAQXubE67Fjx1atWnXbbbfVrl1706ZN1qpR8yWZ60sj0fjqq6+KdaLDhw9biwAASChkhAEAAAAgvBwTrzfeeGP37t0te8eMGZORkZGSkpKenq5+7VHtfeGFF+rXr1+pUqXbb79d1TQflZ2d3bRpU9lbtWrVLl265OTkSOGkSZNatGhhnG7jxo3ly5f//vvvjZLIqY3s2rVLjq1cufKZZ57Zv39/Iye7ffv2Tp06VaxYsVmzZuPHj5f6R48eNQ5UGzNnzpQLkMu+6KKLVq9ebT6FmD17tuxS35I+66yzIi7nUk29+uqrjRs3Pv3005cuXSpPZ8yYcf7558vZL774Yml5zpw5chnSWqtWrb799lvLiQAACA4ywgAAAAAQXo4Z4dmzZ9esWdO8d8uWLbLx4YcfSmFeXt7XX39t7L3pppvy8/NzcnJatGgxcOBAS5vvvPPOxo0bIycyrVdeeeV1112nWkhNTV2+fLk63eDBg3/729/+37lPMjciB3bp0kXOkpubK2cZNGiQqtOhQ4ebb765oKBAGm/btq1jRrhnz5579uw5dOhQr169pM4p5zjB0gOO51J1unXrJld+4MAB9bR79+6//PKLtHz77bfXr1//lltuMZ5efvnlp5wDAIAgISOsOX6WG6FCwAPwF6sKEBzMR184dqNjRnjJkiXlypUz7925c2f58uUnTpy4d+9eo5rau3btWvX0zTffTEtLMx9l1FQWLlyYkpKitu+888677rorcuKnKtLT02fOnHlKVVMjOTk5jmdR5evWrVPlM2bMcMwIb926VVVYvHhxhQoV1LaZ+WrdzqXqbNiwwXyI0fInn3wiT3fs2GE8dTwRSo9jbENjjLiWGNZ4IiOsOfWPuYCQIOAB+ItVBQgO5qMvHLvRMXtr/46wbM+aNatjx46VKlVq167dokWLjL35+fnqqM8//zw5Odl+VJs2bapXr16lShU5VsqPHTsm5cuXL5eSgoKCuXPn1q5d+8iRI/937pOMRlauXOl4Fku5+iUHe0bYuDX1VCqopwZzNbdzOTbl1rLbiVB6HGMbGmPEtcSwxhMZYc0xnRAqBDwAf7GqAMHBfPSFYzc6ZoS7du3ao0cPx72HDh0aNmzYmWeeaew1vlH71ltvqZ/iNY5S3yyeNm2aHCXlH330kTlV2qpVqylTptxwww0PPvjg/7VuYjRi+d6unEV9b1caTzJ9R3jmzJmq8ZJkhN3O5diUW8tuJ0LpcYxtaIwR1xLDGk9khDXHdEKoEPAA/MWqAgQH89EXjt1oTm4WFhauXr26d+/etWvXVj/+a+zdvHnzggULDh8+LHVGjx4tFYy93bp1y8/P37VrV8uWLe+//37zUZs2bZKN+fPnS+HWrVs7dOhgTpVmZ2c3b978tNNOW79+vXE9BvOFderUqWvXrur3guUsDzzwgKrTvn37Hj16HDhwYPfu3e3atVONlyQjHHE5l2NTbi27nQilxzG2oTFGXEsMazyREdYc0wmhQsAD8BerChAczEdfOHajSl+mpqZWrly5atWqF1544QMPPJCbm2vee/DgwXXr1rVp00bqpKSktGrVyvyrES+88EL9+vWlhVtvvbWgoMB8lGyPGjWqVq1alSpVat26dXZ2tjlVum/fPinv2LGjemphbiQnJ+eGG26Qs9eoUaNv377qG8eRE1lmObxixYrNmjUbO3ZscnLy8ePHS5gRdjyXY1NuLbudCKXHMbahMUZcSwxrPJER1hw/y41QIeAB+ItVBQgO5qMvfO9GS2K0uI4fP96gQYPXX3/duiMm06ZNU7/wAG3k5uZOnTp1z5491h02vsc2Ao4R1xLDGk9khAEAAAAAsShhRnj69OlpaWnGF35jsHbt2jVr1sjGli1bmjdv3r9/f2sNJLglS5Y0adKkX79+y5Yts+4DAMSKjDAAAAAAIBYlyQjXrl07LS1t7ty51h3FsWTJkgYNGlSsWLF69eq9e/fOz8+31kDimzFjRkZGRnp6+uWXXz558uRovjIMAPBGRhgAAAAAAATXjBkz0tPT69ate+mllzZs2JCvDANACZERBgAAAAAAgaaSwmkntGjRonnz5nxlGABiRkZYc/wsN0KFgAfgL1YVIDiYj75Q2TRADxkZGfLfzMzMhQsXskSEDSOuJYY1nsgIay4rK8taBOiLgAfgL1YVIDiYj76gG5G43nvvPZUCFg0aNDjvvPPatm1rfEeY2A4bRlxLDGs8kRHWHNMJoULAA/AXqwoQHMxHX9CNSFBGOviCCy5o0KDB3XffbfkdYWI7bBhxLTGs8URGWHNMJ4QKAQ/AX6wqQHAwH31BNyIRvffee+np6XXq1DF/KdiC2A4bRlxLDGs8kRHWHNMJoULAA/AXqwoQHMxHX9CNSDhLlixp3Lix/UvBFsR22DDiWmJY44mMsOb4WW6ECgEPwF+sKkBwMB99QTciseTm5k6dOtXxS8EWxHbYMOJaYljjiYwwAAAAAAAAAIQFGWEAAAAAAAAACAsywgAAAAAAAAAQFmSEAQAAAAAAACAsyAhrjp/lRqgQ8AD8xaoCBAfz0Rd0I3RFbIcNI64lhjWeyAhrLisry1oE6IuAB+AvVhUgOJiPvqAboStiO2wYcS0xrPFERlhzTCeECgEPwF+sKkBwMB99QTdCV8R22DDiWmJY44mMsOaYTggVAh6Av1hVgOBgPvqCboSuiO2wYcS1xLDGExlhzTGdECoEPAB/saoAwcF89AXdCF0R22HDiGuJYY0nMsKa42e5E8iKFStSU1MPHTr0xRdfJCUlHTx40FqjBFSbR48ete5IKEXeBQEPwF+sKkBwMB99QTdCV8R22DDiWmJY44mMcBiptFqqybXXXmutZFIaCcrE1bBhw6VLl1pLfVUaHV5kLjUh6HEXAAAAAAAAZYiMcBgVN+FY3Pri8OHD1iJflXb7blavXp2enn78+HHrDl/F0OFFSsRcqn2UE/EuAAAAAAAAAoWMcBi5JRxV+cyZM5s2bZqSknLRRRetXr167969sm18p/iZZ56Rmvv27evdu3eNGjWqVq16++23FxQUGIe/+uqrjRs3Pv30081pO8sZzXm9MWPGZGRkyCnS09ONn4yJpv2lS5far1Ydnp2dLYWVKlWSw7t06ZKTk2McPmPGjPPPP79ixYoXX3yx1J8zZ06zZs3k8FatWn377bceZ1eGDx9+zz33uNWJ/hQeVyi95DZAHkc59sOOHTuuuuoquRK5gPHjx9tzqerYF154oX79+tKs3IhxUsdzRVzGy144a9YsGSa1d8iQIXKWTZs2yfayZcuqVKmiLmPXrl3ScuXKlc8888z+/fur/K89ioq8CwAAAAAAAESPjHAYuSUcVXnPnj337Nlz6NChXr16tW3b1rF+165dO3funJeXt2/fviuvvPLee+81qnXr1k3KDxw4YFQ2dtkzwlu2bJGNDz/8UArlqK+//lpViKZ9t6sV77zzzsaNGyMnco5y+HXXXWcc3r17919++UXq33777fXr17/llluMp5dffrnH2ZVWrVp98MEHbnWiP4XHFXpkhD2OcuyHTp06denSJT8/Pzc3t3Xr1vZcqjr2pptukjo5OTktWrQYOHCg2uV4LsfxciyUiylfvvzWrVtlW66ncePGzz33nGyPGDFCNSWkWePy5NSDBg2K2EY5EsVdAAAAAAAAIHpkhDXn+LPcKulW1eTRRx81ylUWTyxevLhChQpGuZGg3L17d3Jy8rp169TTefPm1axZ06i2YcMGVW7mlhHeuXNn+fLlJ06cuHfvXqNylO27Xa3FwoULU1JSIrb6n3zyiTzdsWOH8VQd7nZ2IcdWq1btyJEjbnWiPIWF5Qo9MsJmbvdl9ENOTo6Ur127VpVPnz5d9fnJBv5LHWvUefPNN9PS0swVFONcjuPlWChat2794osv5uXlSYDJxh//+Ecp7Nix47hx4yK2yzNObRnlaO7CzDHgASBmrCpAcDAffUE3QlfEdtgw4lpiWOOJjLDmjH/Xb+aWcHTL21rKV61alWRKKFepUuWMM84oLCx0azbi3nLkxM8LdOzYsVKlSu3atVu0aFEk6vYdnxpttmnTpnr16nKstCzlx44d86hvfup2dqkzbty4nj17Rop5hfZTRIq6Qree9D5K1THOsnLlStnIz89X5Z9//rn5YsyVzXWSk5PVtuO5VLllvNwKBw8e3KNHjzlz5lxzzTU5OTk1atTYv3//r371qzVr1she++WpU1tux17NfhdmjgEPADFjVQGCg/noC7oRuiK2w4YR1xLDGk9khDXnOJ3cEo5uucUvv/zSXJ6bm5tk+uqrwa3ZyIk/yCa7du/erZ6+++67lrzeoUOHhg0bduaZZ0aibt/xqfG942nTpkmbUv7RRx+pcrf6lqduZ4+c+H7r9OnTI8W8QvspirxCx54s8ijLWaL5dq2qbNR56623zjrrrIj7uYwDzePlVihHSWv9+vX75z//KU+bNWv2+OOPp6enq72Wy5NTm78jbNxONHdh5hjwABAzVhUgOJiPvqAboStiO2wYcS0xrPFERlhzjtPJMeFoLzdyi+qHYtVXO5Xrr7++Z8+eP//8c+REzm7BggX2w82ksGrVqo899tixY8e2bdvWrl071fLmzZvl2MOHDxcWFo4ePbp27dqqfjTtOz6VNjdt2iQb8+fPj5z4nYcOHTqocrf69qeOZ//pp59SU1P379+v6jvWifIURV6hY08WeZTlLJETKeyuXbsWFBTs2rWrTZs25osxV+7WrVt+fr7Uadmy5f333x9xP5fjeDkWRk4kiFNSUqpUqaJ+WXjAgAGy3atXL+PsnTp1Mi5PTv3AAw8Yl2S+9yLvwswx4AEgZqwqQHAwH31BN0JXxHbYMOJaYljjiYyw5hynk0q6pZpcdNFFRrljbrFv377qFxImTZoUOfEHxPr06VOzZs1KlSplZmaOGTPGfrjF3LlzGzRoULFixTZt2jz//POq5XXr1snTypUrp6SktGrVyvjBgWjad3yqrnbUqFG1atWSY1u3bp2dna3KPepbnjqe/eWXX/7DH/6gKrvVif4U3lfo1pPeR6k65rNs3769U6dO0ufNmjUbP368+WLMlV944YX69etLGNx6660FBQVql+O5HMfLsVC5+uqra9euffz4cdl+7733pJFXXnnF2JuTk3PDDTfIgTVq1JAAU99Htt97kXdh5hjwABAzVhUgOJiPvqAbkVhyc3OnTp26Z88e6w4bYjtsGHEtMazxREZYc/wst19uuOGG559/3lqa4Ozp10RHwAPwF6sKEBzMR1/QjUg4S5Ysadq0ab9+/ZYtW2bdZ0Jshw0jriWGNZ7ICANReeqpp4zfQdaGfhlhAAAAAJp56aWXMjIy0tPT27dvP3ny5Gi+MgwA8EZGGAgvMsIAAAAAgu/FF1+sU6dO48aNf/Ob3zRq1KjIrwwDALyREQYAAAAAAIGmksJpaWkZGRkdOnS46KKL+MowAMSMjLDm0gAAAAAA0E6jRo3kv5mZmQsXLrR+EgYAeCIjrDl+lhuhQsAD8BerChAczEdf0I1IXAsXLqxXr57KBWdkZDRq1Ojiiy9+7rnn1HeEie2wYcS1xLDGExlhzWVlZVmLAH0R8AD8xaoCBAfz0Rd0IxKUkQ5u0KBB/fr177jjDsvvCBPbYcOIa4lhjScywppjOiFUCHgA/mJVAYKD+egLuhGJaOHChRkZGXXq1DF/KdiC2A4bRlxLDGs8kRHWHNMJoULAA/AXqwoQHMxHX9CNSDhLlixp3Lix/UvBFsR22DDiWmJY44mMsOaYTggVAh6Av1hVgOBgPvqCbkRiyc3NnTp1quOXgi2I7bBhxLXEsMYTGWHN8bPcCBUCHoC/WFWA4GA++oJuhK6I7bBhxLXEsMYTGWEAAAAAAAAACAsywgAAAAAAAAAQFmSEAQAAAAAAACAsyAgDAAAAAAAAQFiQEdYcP8uNUCHgAfiLVQUIDuajL+hG6IrYDhtGXEsMazyREdZcVlaWtQjQFwEPwF+sKkBwMB99QTdCV8R22DDiWmJY44mMsOaYTggVAh6Av1hVgOBgPvqCboSuiO2wYcS1xLDGExlhzTGdECoEPAB/saoAwcF89AXdCF0R22HDiGuJYY0nMsKaYzohVAh4AP5iVQGCg/noC7oRuiql2F6xYkVqauqhQ4fU05EjR9aoUUNKFi1adEq9UvbFF18kJSUdPXrUuqOYLLdjp0508OBB647gKaURR9liWOOJjLDm+FluhAoBD8BfrCpAcDAffUE3QleOsX399df36tXLUtixY8d+/fpZCqORm5ubnJy8bNky647SF3NGuLgZ3uLWL0OOI45Ex7DGExlhAAAAAACgm/feey8lJWXPnj1Gyfr165OTk1evXm2q5erw4cPmp1999ZW/2VJL+x7ICAPwHRlhAAAAAACgm8LCwrPPPnv8+PFGyd/+9re2bduq7X379vXu3btGjRpVq1a9/fbbCwoKIidToq+++mrjxo1PP/30pUuXqgzp7NmzU1JSZDs1NfWss86aNGlSixYtjGY3btxYvnz577//3ihR9u/ff/fdd9euXVuOOv/881euXGlp/+jRo46XIXbs2HHVVVdVrFixWbNmcgtGRtixvmp25syZTZs2leu86KKLVq9evXfvXuOaxTPPPGNO+GZnZ0vlSpUqSTtdunTJyckx2lEVxowZk5GRIS2kp6fzb/kB/ZARBgAAAAAAGho+fHjz5s3V9uHDh2vVqvXyyy+rp127du3cuXNeXt6+ffuuvPLKe++9N3IyJdqtWzcpP3DggDlDat6WvampqcuXL1dNDR48+Le//a3aNuvSpcuvf/3r7du3y/aGDRu2bdtmaT/ichmiU6dOcnh+fn5ubm7r1q2NjLBjfdVsz5499+zZc+jQoV69eqnEt+U7v+an77zzzsaNG2Vj165d0s51111nrrBlyxbZ+PDDDyMnbvbrr79WLQDQBhlhAAAAAACgoR07dlSoUGHp0qWy/eabb1arVk3lYXfv3p2cnLxu3TpVbd68eTVr1oycTIlu2LBBlbtlhMWdd9551113ycaxY8fS09Nnzpypyg0//vij1F+1apW50NK+22Xk5ORItbVr16ry6dOnq4ywW33V7NatW1X54sWL5a6NcseMsNnChQtTUlLMFXbu3Fm+fPmJEyfu3bvXUhmAHsgIa46f5UaoEPAA/MWqAgQH89EXdCN05RHbnTt3vuOOOyInvnXbv39/Vbhq1aqkpKSqJ1WpUuWMM84oLCz0SKFadi1fvlyOKigomDt3bu3atY8cOaLKDeoU+fn55kJLI26XsXLlSvOxn3/+ucoIu9V3vGyp71iuns6aNatNmzbVq1eXRipVqiTlx44ds1To2LGj7GrXrt2iRYtUC8HhMeJIXAxrPJER1hw/94NQIeAB+ItVBQgO5qMv6EboyiO2582bl5qaumLFiuTk5G+++UYV5ubmJiUl7dix49S61oytR0ZYtGrVasqUKTfccMODDz5oFBrUd4Qtv7dgacTtMty+I+xW3/Gypf6XX35pLze+Ajxt2rRDhw5J+UcffaTq2+9RKgwbNuzMM880SgLCY8SRuBjWeCIjrDmmE0KFgAfgL1YVIDiYj76gG6Erj9guLCysX79+gwYNLrvsMnP59ddf37Nnz59//jlyIgO7YMGCiEtq1S0jnJ2d3bx589NOO239+vVGodmNN97YsWNHlcA1/46wuRHHyxByYNeuXQsKCnbt2tWmTRuVsXWr73jZUl/9HPCaNWvM5VJt06ZNsjF//nwp3Lp1a4cOHSwZ4c2bN0vLhw8flt4bPXp07dq1VQvB4THiSFwMazyREdYc0wmhQsAD8BerChAczEdf0I3QlXdsjxgxIikpacqUKebCvLy8Pn361KxZs1KlSpmZmWPGjIm4pFbdMsL79u2TYzt27GiUWEgF4xTnn3/+qlWr7I04XobYvn17p06dKlas2KxZs/HjxxsZYcf6jpet6vft21f9xMSkSZPM1UaNGlWrVi1ppHXr1tnZ2ZaM8Lp169q0aVO5cuWUlJRWrVoF8FcjvEccgZKbmzt16tQ9e/ZYd9gwrPFERlhzTCeECgEPwF+sKkBwMB99QTdCV2US28ePH2/QoMHrr79u3YHSVyYjjpgtWbLkvPPO69ev37Jly6z7TBjWeCIjrDl+lhuhQsAD8BerChAczEdf0I3QVZnE9vTp09PS0tRP8SLOymTEURLZ2dl169bNyMho37795MmTHb8yzLDGExlhAAAAAACAYqhdu3ZaWtrcuXOtOwC4GD16tMyaSy655Nprr83MzCzyK8MoVWSEAQAAAAAAAJQulRQWmZmZXbp0adOmjcdXhlGqyAgDAAAAAIAEpnJMABLOJZdcknYiQbxw4ULrxEZpIiMMAAAAAAAAoHR9+umn9evXN9LBst2iRYvx48fzHeH4IyOsOX6WG6FCwAPwF6sKEBzMR1/QjdAVsR02jHgiMtLBGRkZ9erV6969u+V3hBnWeCIjrLmsrCxrEaAvAh6Av1hVgOBgPvqCboSuiO2wYcQTzqeffpqRkVGnTh2PLwUzrPFERlhzTCeECgEPwF+sKkBwMB99QTdCV8R22DDiiWXJkiWNGjWyfynYgmGNJzLCmmM6IVQIeAD+YlUBgoP56Au6EboitsOGEU8gubm5U6dOdfxSsAXDGk9khDXHdEKoEPAA/MWqAgQH89EXdCN0RWyHDSOuJYY1nsgIa46f5UaoEPAA/MWqAgQH89EXdCN0RWyHDSOuJYY1nsgIAwAAAAAAAEBYkBEGAAAAAAAAgLAgIwwAAAAAAAAAYUFGGAAAAAAAAADCgoyw5vhZboQKAQ/AX6wqQHAwH31BN0JXxHbYMOJaYljjiYyw5rKysqxFgL4IeAD+YlUBgoP56Au6EboitsOGEdcSwxpPXhnh1atX99PFE088MTaUunTpYi0C9EXAA/AXqwoQHMxHX9CN0BWxHTaMuJYY1lK1bds2c9bXKyPcr1+/JAAAAAAAAABAwho3bpw561t0Rvjaa699IpH16dNH7qJ///7jQqlLly7WIkBfBDwAf7GqAMHBfPQF3QhdEdthw4hriWEtJZ07d44lI/zEE0/8ksjmzp0rd7Fo0SLr7YUDP8uNUCHgAfiLVQUIDuajL+hG6IrYDhtGXEsMaykZO3YsGWEAAAAAAAAACIUyzgirH62YOHGidUcpIyMMAAAAAAAAIISClRGOW4I4hoywujbxyCOPXH755bLxr3/9y9jbqlUrKVmwYIHpCCt1uH3bzK3cRyU8xbATzCXRNOhdRxpUFTzqAAAAAAAAACg5MsLRUtc2bdq01atXT548WbZvuukmtWvt2rXytG7duoWFhacedArVgtqedsKp+//LXKdYDh8+bC1yEfMpFPvhbvdiZj/K7JtvvpEWvOsAAAAAAAAAKLl4ZITff//9li1bVqlSpVy5cpUrV7788svfffddtUslAVUKWG2bndKKr/r06SPtf/LJJ9bbc6cuSW3n5eWlpKScccYZe/fulacPP/yw7Bo8eLDaO2PGjPr165922mlSoV27ditWrLC3YN7esGFDixYtUlNThw4dai43O3To0KBBg+rVq1e+fPlatWq9/PLLkZONPProo1WrVlXf2y0oKLjvvvvq1KlToUKFhg0bTpo0SR3udgq3+qrOkCFDpGU53dtvv20uN5gL1XY09/7ss8+effbZciMSElJHFVrqAD7id+gB+ItVBQgO5qMv6EboitgOG0ZcSwxrKYlHRvjVV1+9/PLLb7vttj59+rRp00YOT0lJWb9+/S+nZoTvvvtu9bRjx453n2BtyCf33HOPnGXAgAHWe/NkyVf26NFDnj7//PPHjx8/55xzZPs///mP2rVw4ULp0Ozs7CFDhvzqV79q1aqVvQXz9jXXXCPb0jl33nmn5SwGlcK+9NJL5Yxjxox5/fXXIycb6dChw0svvbR48WIp6d27t5R07txZxrVr166yPWvWrIj7Kdzqqzo33nij3IJsyA2q+sY3ec3fCzY3GM29p6amZmZmTpkyZcKECT179lSFljqAj7KysqxFAFACrCpAcDAffUE3QlfEdtgw4lpiWEtJPDLCYvbs2Q8//HDfvn3//Oc/q8TfK6+88ovtZyIsT0tDbOngiC1f+cEHH8jT9u3bf/LJJ7LRpk0bY9e0adPS09NVfVG+fHlVbm7BvF2xYkXZ3rdvX15enrncrEqVKlL+ww8/mAtV5W3bthkllStXVoWGO++8M+J+Crf6anv37t1Hjx6VjeTkZOMUapfx1FISzb23bt1aztu9e/e///3vn3/+uSq01AF8xOsHAH+xqgDBwXz0Bd0IXRHbYcOIa4lhLSXxyAjfcccdJzOE/88zzzzziy0FbHnqu5jTwRFbvrKwsDAjIyM5Ofn3v/+9lBu/tyBq1Kih7mLBggXVqlUzjjK3YN5W6dq8vLy9e/dazmLwyAibS1Q1dWpl9erVEfdTuNU317GcxfLUUhLNvcs1vPTSSwMHDmzUqJEUzpkzx14H8BGvHwD8xaoCBAfz0Rd0I3RFbIcNI64lhrWUxCMjfMYZZ8gh99xzT05OznfffacSf+bfDjZSwMnJyfJ0woQJpxzvk5KkgyNO+cqHHnpIFf7qV7+S9o3ymjVrSuFTTz3117/+1XyU27bbTzqYqe9Wq1+NePrpp994442I0yWpH5do2bLl5MmTpaY0ePfdd0fcT+FW31zHchaVRJYxmj9/vr1CNPfeo0ePSZMmvfbaax06dJDCMWPG2OsAPuL1A4C/WFWA4GA++oJuhK6I7bBhxLXEsJaSeGSEzz33XDmkQYMGvXv3zszMVIk/x4zw2WefLU8bNWr0l7/8xd/fES5hOjjilK80stt//OMfzeVvvvlm7dq1K1Wq9MADD9SvX984ytyCeXvDhg3NmzevWLGi1DeXmx08ePBvf/tb3bp11V+WmzJlSsTpkg4dOjR48OBzzjmnQoUKlStXbtOmzdSpUyPup3Crb65jOcs//vGPqlWrSskFF1xgrxDNvV999dU1a9YsV65ctWrVunXrpv46n6UO4CN+hx6Av1hVgOBgPvqCboSuiO2wYcS1xLCWknhkhBcsWHDBBRdUqFDh3HPPff3111XizzEjPG3atEaNGpUvX16Vn9JKCZQ8HRw5ma/cvXt3QUGBdR9KRrpUOlb1sHUfAAAAAAAAAP/EIyNctnxJB0dOZoTFI488Yt2Hkhk2bJjRvdZ9AAAAAAAAAPyjeUbYr3SwMP722saNG637UDKbNm0yute6DwAAAAAAAIB/YswI9+nTZ27gqT+b5ks6GAAAAAAAAAA0EGNGOFGQDnbEz3IjVAh4AP5iVQGCg/noC7oRuiK2w4YR1xLDWkqKnRF+4okn5ID+/fsvCrxPPvnEevU4ISsry1oE6IuAB+AvVhUgOJiPvqAboStiO2wYcS0xrKWk2BlhxwOQWJhOCBUCHoC/WFWA4GA++oJuhK6I7bBhxLXEsJYSxwQvGWHNMZ0QKgQ8AH+xqgDBwXz0Bd0IXRHbYcOIa4lhLSWOCV4ywppjOiFUCHgA/mJVAYKD+egLuhG6IrbDhhHXEsNaShwTvGSENcfPciNUCHgA/mJVAYKD+egLuhG6IrbDhhHXEsNaShwTvGSEAQAAAAAAAEBDjgleMsIAAAAAAPz/7N17dBbVofdxQhDJHUKIIVEDIpRLoAQbA3pacoIu7apcQmrBKFJKOVrAWkuRxfFCL54uLWlO34hJVaqWxoJcWhdUWC5uayEHiFhuVc7CcClQyBMRczGBRBKedze7zBnn2TOEh3l0suf7+cM1s2fPnnn2Zej5nVkTILJ2797dpUuXCxcuWA8AQCQpA14SYQAAAAAA4C8ynz1//rylJHKJ7WXbD70lALh6yoCXRBgAAAAAAPhLaPx62cT2slpaWqxFJpdtP/SWAODqKQNeEmHN8Vlu+AoTHoC7eKoA3sF6dAXdCF2FMbdD41dzYltSUpKRkRETE5Oenl5cXCwrNDQ0zJgxIzk5OSkpafr06U1NTcZZy5YtGzhwYPfu3S2B76lTp+64447Y2NisrKzS0lKj/fLy8sGDB8fHx4umCgoKqqur6+rqxOVEhbh2L7zwgrKauXE/C2PE4X0Ma4QoA14SYc0Z/3QBfsCEB+AuniqAd7AeXUE3QldhzG2HRPjYsWNiY9OmTaKwvr5+//79skJhYeGkSZNESUNDw7hx4x555BHjrClTpojyc+fOGa1J+fn5BQUFjY2NgUAgJyfHSITXrVt3+PBhsVFTUyOaGj9+vNGU+ZaU1RAMa8ThfQxrhCgDXhJhzbGc4CtMeADu4qkCeAfr0RV0I3QVxtwOjV+NRPj06dPR0dFLliypq6szjp45cyYqKurQoUNyd/369SkpKcZZVVVVRk1DdXW1OHTw4EG5u3LlSiMRNtuyZUtMTExQdUtmRjUEwxpxeB/DGiHKgJdEWHMsJ/gKEx6Au3iqAN7BenQF3QhdhTG3//rXv3bp0kV++UGqrKwUJW1tbWJ7zZo1eXl58fHxY8aM2bp1qyjZt2+fOJp0SWJiYo8ePURlhxh379694lBjY6Pc3blzp5EIi/Zzc3N79eol2hFXEeWtra2hTSmrGUf9LIwRh/cxrBGiDHhJhDXHcoKvMOEBuIunCuAdrEdX0I3QVRhz+/Tp0+YXeIUVK1akpaWZqgSbm5sXLVrUu3dvsR0IBET9U6dOmSsEHV/stXtHWL6DvHz5ctG+KN+8ebMsf++998xN2VW71LyvhTHi8D6GNUKUAS+JsOb4LDd8hQkPwF08VQDvYD26gm6ErsKb2+PGjZs4ceJHH30ktg8fPjxixIjHH39cbB89enTjxo0tLS1tbW2LFy9OTU2V9SdMmFBUVHT27Nlge9or6gQdE2EhLy+vsLCwqamppqYmNzdXRrpHjhwRGxs2bBAVjh8/PnbsWFkuv1/8wQcfyHPtqpnb963wRhwex7BGiDLgJREGAAAAAAC+8/HHH3/3u9/t06dPXFzcjTfe+J//+Z+fffaZKD906FBubm5CQkJMTEx2drb8akSw/a/MzZo1KyUlJT4+ftCgQSUlJcHLJcInT57Mz8+PjY3NysoqLS01It1nn31WXFe0k5OTU15ebpTPnj1bfpWirKzMoRoAdJwy4CURBgAAAAAAOqutra2oqAgEAtYDAKA7ZcBLIgwAAAAAADTU2tr6/PPPT548eciQITt27LAeBgAfUAa8JMIAAAAAAEAr//u//zt16tTrr7++b9++N910E3EwAN9SBrwkwprjs9zwFSY8AHfxVAG8g/XoCroRujLmtnwpeOTIkWntvvnNb2ZlZREH64enmZYY1ghRBrwkwporLi62FgH6YsIDcBdPFcA7WI+uoBuhKzG3jZeCZRYsfPe73yUO1hVPMy0xrBGiDHhJhDXHcoKvMOEBuIunCuAdrEdX0I3Q1Zw5c2666aa0tLT09HQjEb7xxhvLysrEtBfbcvKzzTbbnt2WgogAZcBLIqw5lhN8hQkPwF08VQDvYD26gm6ErsTcrq2tfemll2677bZhw4Z95StfSUtL69u3780338w7wlriaaYlhjVClAEvibDmWE7wFSY8AHfxVAG8g/XoCroRujLP7crKytmzZ990003Z2dkZGRmEwlriaaYlhjVClAEvibDm+Cw3fIUJD8BdPFUA72A9uoJuhK5C57bxynB6enpmZiahsGZCRxwaYFgjRBnwkggDAAAAAAA9VVZWzpkzZ8iQIYTCAPxJGfCSCAMAAAAAAJ3V1tZWVFQEAgHrAQDQnTLgJREGAAAAAAAAAA0pA14SYQAAAAAAAADQkDLgJRHWHJ/lhq8w4QG4i6cK4B2sR1fQjdAVc9tvGHEtMawRogx4SYQ1V1xcbC0C9MWEB+AuniqAd7AeXUE3QlfMbb9hxLXEsEaIMuAlEdYcywm+woQH4C6eKoB3sB5dQTdCV8xtv2HEtcSwRogy4CUR1hzLCb7ChAfgLp4qgHewHl1BN0JXzG2/YcS1xLBGiDLgJRHWHMsJvsKEB+AuniqAd7AeXUE3QlfMbb9hxLXEsEaIMuAlEdYcn+WGrzDhAbiLpwrgHaxHV9CN0BVz228YcS0xrBGiDHhJhAEAAAAAAKx2797dpUuXCxcu7NmzJy4urrm52VrDM4xbtR5wJM86f/58B8vdFd49A7hSyoCXRBgAAAAAAOhGBo5x7RITE++8887333/fWsmRu5GlQ8zqcKiDwrtVu+valbsrvHsGcKWUAS+JMAAAAAAA0I051qyrq5sxY8bw4cOtlRw5R5YtLS3WIkcOMavDoQ5yvlU7dte1K78aod0V3j0DuFLKgJdEGAAAAAAA6MYSa27fvj06Oto42tDQMGPGjOTk5KSkpOnTpzc1NcnyU6dO3XHHHbGxsVlZWaWlpTKyNJqSG8uWLRs4cGD37t3FIbt2Pv3004cffjg1NTUuLm7o0KHvvPNOTExMl0vvLL/wwgvGndTV1YUeqqmpKSgoSEhI6N2799y5c0Pj1KDNrYry8vLywYMHx8fHi1sSjVRXV8v6JSUlGRkZ4lrp6enyT3jJn7N69WpRX5SPGjXqwIEDRvnSpUszMzNFO+J3Gd1od2PKi4Z2l909A4gcZcBLIqw5PssNX2HCA3AXTxXAO1iPrqAboSvl3DYnwmfPnn3wwQdvu+0242hhYeGkSZPq6+sbGhrGjRv3yCOPyPL8/PyCgoLGxsZAIJCTk6NMhKdMmSJOPHfunEM7opGvf/3rJ0+eFNtVVVUnTpxwePE29JBoyriNESNGLFiwwFT9X5S3KsrXrVt3+PDhYHt6K9oZP3682D527JiosGnTJrEt7nb//v3BS9ctKiqqra1tbm6eNm3a6NGjjfJ7771XNF5dXS1uYN68efKidjemvGhod9nd85VSjjg6O4Y1QpQBL4mw5uT/3w/wCSY8AHfxVAG8g/XoCroRulLObRlHJiUlxcfHi43MzMxTp07JQ2fOnImKijp06JDcXb9+fUpKitiorq4WNQ8ePCjLV65cqUyEq6qqnNv56KOPRLV9+/bJcik09rU7ZLmNFStWpKWl/V/tdna3+vlawS1btsTExIiN06dPR0dHL1mypK6uzjgqr3v8+HG5u23btm7duhnloTfQkRsLmi5q6a4O3nNHKEccnR3DGiHKgJdEWHMsJ/gKEx6Au3iqAN7BenQF3QhdKee2EbNevHhx165dvXv3fvrpp+Whffv2dWkPi6XExMQePXq0tbXt3btXlDc2NspqO3fulJGlJRE2olu7dmS50Y7U8UQ49DaioqL+r3a70DpGurpmzZrc3NxevXqJ+5FpeGtrqyzPy8sTJWPGjNm6dWsw5Lpy1/i9oTcQelHjxpQXvezvMu75SilHHJ0dwxohyoCXRFhzLCf4ChMegLt4qgDewXp0Bd0IXSnntiWOfPnll3v06HH69GmxHQgExCHjlWGD3UusdomwXTvyHWH5ZQbDe++9Zz7X4ZDlNt54443QV3HtblW+C7x8+fLm5mZRvnnzZkvqKsoXLVrUu3fvYEgXWRJh8w1cd911wZCLGjdmd1FL+3b3LHeviHLE0dkxrBGiDHhJhDXHcoKvMOEBuIunCuAdrEdX0I3QlXJuW+LICxcuDBw48Mc//rHcnTBhQlFR0dmzZ4PtSeXGjRtleV5eXmFhYVNTU01NTW5uriXZDH3P166dyZMni6ZkWCy/Iyy/5PvBBx8Y5xpCD+Xn5xu3MXLkyPnz55uq/4vyVo8cOSI2NmzYICocP3587Nixsvzo0aPi3lpaWtra2hYvXpyamhoM6SJLIjxlypTGxkZ5A4899piso7wxu4uGdpfyno2jHacccXR2DGuEKANeEmHN8Vlu+AoTHoC7eKoA3sF6dAXdCF0p53ZoHPn666/HxcWdOXMm2P7X1WbNmpWSkhIfHz9o0KCSkhJZ5+TJk/n5+bGxsVlZWaWlpZZkM7RNu3YaGhqM8qFDh8pvCs+ePVt+X6KsrMxoQbIcqq6unjhxYkJCQnJysjgk3721UN6qKH/22Wf79OkjrpuTk1NeXi7LDx06lJubKxqMiYnJzs7uyFcjli5dmpmZKXrsgQceaGpqknXsbkx50dDusrvnK6UccXR2DGuEKANeEmEAAAAAAAB8yQKBQEVFRW1trfUAgKugDHhJhAEAAAAAAPDl27Fjx8033zxt2rTKykrrMQBhUQa8JMIAAAAAAADwhG3btmVkZPTt23fkyJFlZWW8MgxcJWXASyIMAAAAAAAAr9i2bduNN96YlpZ2ww03iA1eGQauhjLgJRHWHJ/lhq8w4QG4i6cK4B2sR1fQjdAVc1s/Rigs9e/f3/zKMCOuJYY1QpQBL4mw5oqLi61FgL6Y8ADcxVMF8A7WoyvoRujKyA2hseHDh4v/Dho0aMuWLTzNtMSwRogy4CUR1hzLCb7ChAfgLp4qgHewHl1BN0JXzG39lJaW9u3bNy0trV+/ft/85jdzcnK+8Y1vvPTSS/IdYUZcSwxrhCgDXhJhzbGc4CtMeADu4qkCeAfr0RV0I3TF3NaMjIOHDx9+1113DRw4cM6cOZbvCDPiWmJYI0QZ8JIIa47lBF9hwgNwF08VwDtYj66gG6Er5rZOfvvb315//fXp6enml4ItGHEtMawRogx4SYQ1x2e54StMeADu4qkCeAfr0RV0I3TF3NbGjh07Bg8eHPpSsAUjriWGNUKUAS+JMAAAAAAAAL5kgUCgoqJC+VIwgLApA14SYQAAAAAAAADQkDLgJREGAAAAAAAAAA0pA14SYQAAAAAAAADQkDLgJRHWHJ/lhq8w4QG4i6cK4B2sR1fQjdAVc9tvGHEtMawRogx4SYQ1V1xcbC0C9MWEB+AuniqAd7AeXUE3QlfMbb9hxLXEsEaIMuAlEdYcywm+woQH4C6eKoB3sB5dQTdCV8xtv2HEtcSwRogy4CUR1hzLCb7ChAfgLp4qgHewHl1BN0JXzG2/YcS1xLBGiDLgJRHWHMsJvsKEB+AuniqAd7AeXUE3QlfMbb9hxLXEsEaIMuAlEdac65/l3rNnT1xcXHNzs/WAo927d4u5dP78eeuBqyDbvHDhgvWAI7s7sSt3V3j3jI5zfcID8DmeKoB3sB5dQTdCV8xtv2HEtcSwRogy4CURhpVMLePi4hISEnr27Dly5MgFCxYEAgFrvSsRibw1vHTV7k7syt0V3j0DAAAAAAAAYVAGvCTCsDJno62trfv27XvwwQdTU1OPHDlirdphkchbw0tX7e7ErvxqtLS0WErCu2cAAAAAAAAgDMqAl0QYVspsdPLkyVOnTrUcLSkpycjIiImJSU9Pl197kUeXLl2amZkZHx8/ffp0WdN8Vnl5+eDBg8XRpKSkgoKC6upqUVhWVjZixAjjcocPH46Ojv773/9ulEinTp264447YmNjs7KySktLjXRV2WbQ/g5Xr14t6ovyUaNGHThwwCgPvXOhpqZGtJmQkNC7d++5c+caOa/yorKdZcuWDRw4sHv37uL27O4ZAAAAAAAAiChlwEsiDCtlIvznP/85JSXFfPTYsWNiY9OmTaKwvr5+//79xtF77723sbGxurp6xIgR8+bNs7S5bt26w4cPB9uT1nHjxo0fP162EBcX9+6778rLLVy48K677vrXtU3y8/MLCgpE44FAICcnx0hXlW063GFRUVFtbW1zc/O0adNGjx5tlIfeuSAaNC4qyhcsWCDLlReV7UyZMkVc8dy5c0H7ewYAAAAAAAAiShnwkghrLozPcisT4R07dnTt2tV89PTp09HR0UuWLKmrqzOqyaMHDx6UuytWrEhLSzOfZdSUtmzZEhMTI7dnzpz50EMPBds/VZGenr569erPVQ0Gq6urzY2vXLlSma4abTrc4fHjx+Xutm3bunXrZpSH3rnloka5hXFR2U5VVZUs7+A9wy1hTHgAcMBTBfAO1qMr6EboirntN4y4lhjWCFEGvCTCmpOfSrgiyvQ29B1hsb1mzZq8vLz4+PgxY8Zs3brVONrY2CjP2rlzZ1RUVOhZubm5vXr1SkxMFOeK8tbWVlH+7rvvipKmpqa1a9empqZ+9tln/7r2JXv37rU0bqSrdm3a3aHx6+SuaMTuzkMvKsuDNhe1tB96unHPiIQwJjwAOOCpAngH69EVdCN0xdz2G0ZcSwxrhCgDXhJhzYWxnJSJcGFh4X333ac82tzcvGjRot69extHjVdi33jjjeuuu858lnxvd/ny5eIsUb5582ZzQpqdnf3aa69NnDjx8ccf/1frJnbv2zq3GVTdoV0iHHrnlouKcvmOsN1FLe3b3bPchevCmPAA4ICnCuAdrEdX0I3QFXPbbxhxLTGsEaIMeEmENRfGcjJnmm1tbQcOHJgxY0Zqaqr8Zq5x9OjRoxs3bmxpaRF1Fi9eLCoYR6dMmdLY2FhTUzNy5MjHHnvMfNaRI0fExoYNG0Th8ePHx44da05Iy8vLhw8ffs0113z44YfG/Zjl5eUVFhY2NTWJxnNzc+W5dm063KFdIhx658H2DwEbFxXl8+fPF4V2Fw1NzJX3bByFu8KY8ADggKcK4B2sR1fQjdAVc9tvGHEtMawRogx4SYQ1F8ZykplmXFxcQkJCUlLSV7/61fnz5wcCAfPR8+fPHzp0KDc3V9SJiYnJzs42f5Nh6dKlmZmZooUHHnigqanJfJbYfvbZZ/v06RMfH5+Tk1NeXm5OSBsaGkR5Xl6e3A118uTJ/Pz82NjYrKys0tJS41xlmw53aJcIh955sP0934kTJ4p2kpOTZ8+eLV8KtrtoaCJsd8+IhDAmPAA44KkCeAfr0RV0I3TF3PYbRlxLDGuEKANeEmHNXfaz3LW1tRUVFUbge5VC89ArcvHixf79+7/++uvWA0DHXHbCA8AV4akCeAfr0RV0I3TF3PYbRlxLDGuEKANeEmH/2rx589SpU4cMGbJjxw7rsXBdZSK8cuXKtLQ04yVcAAAAAAAAAGFTBrwkwr5TW1v7xBNPDBw4sG/fvv3793cxDg5eXSKcmpqalpa2du1a6wEAAAAAAAAAV04Z8JII+8jmzZvvuuuu9PT0tLS07OzsYcOGuRsHAwAAAAAAAPAOZcBLIqw/80vBae3+7d/+jTgYAAAAAAAA0Jsy4CUR1tySJUv69esng2CDKCkrKysuLhbb8i85ss22HtuPPvqospxtttlmO7xt8VRRlrPNNttf/DbrkW222WabbWObP0GmJYY1QpQBL4mw5sSDsra2try8fOTIkf37909rN2DAgMGDB/OOMPQj/1cCALiFpwrgHaxHV9CN0BVz228YcS0xrBGiDHhJhDVnXk6VlZUPPvjgje369etHKAz98O8HAHfxVAG8g/XoCroRumJu+w0jriWGNUKUAS+JsOZCl5PxynDfvn379etHKAydhE54ALgaPFUA72A9uoJuhK6Y237DiGuJYY0QZcBLIqw5h+VUWVk5c+bMIUOGEApDGw4THgDCwFMF8A7WoyvoRuiKue03jLiWGNYIUQa8JMKau+xnuWtraysqKgKBgPUA0AlddsIDwBXhqQJ4B+vRFXQjdMXc9htGXEsMa4QoA14SYQAAAAAAAADQkDLgJREGAAAAAAAAAA0pA14SYQAAAAAAAADQkDLgvXwiLPz0pz8Vu+K/bLPNNttss80222yzzTbbbLPNNttss80222x3iu277767SxiJMO8Id2p8lhu+woQH4C6eKoB3sB5dQTdCV8xtv2HEtcSwRogy4CUR1lxxcbG1CNAXEx6Au3iqAN7BenQF3QhdMbf9hhHXEsMaIcqA94oT4S6XPPHEE8auucJVMjdo17hduYuu8hKL2plLOtKgcx3RoKzgUCcUywm+woQH4C6eKoB3sB5dQTdCV8xtv2HEtcSwRog64DXvWKhPaLd8+fIDBw4Yu+YKV8nc4PJ2nz/+T2FftKWlxVpkI+xLSKGn2/0Ws9CzzP72t7+JFpzrhGI5wVeY8ADcxVMF8A7WoyvoRuiKue03jLiWGNYIUQe85h0L9QmfTyTNu3L7qaeeSkpK6tOnz5/+9CdROG3aNFH49ttvi+2TJ0927dp1xIgRYnvVqlWZmZnXXHNNjx49xowZs2fPHrsG5XZVVZU4MS4u7umnnzaXmzU3Ny9YsOCGG26Ijo4WN/Dqq68GLzXy5JNPiruS7+02NTU9+uijffv27dat24ABA8rKyuTpdpewqy/rWH6vUW4wF8rtjvz23/72tzfeeKP4IYmJiaKOLLTU6QiWE3yFCQ/AXTxVAO9gPbqCboSumNt+w4hriWGNEHXAa96xUJ/w+UTSvCu3J0+e/NRTT4mNfv36icJt27aJ7WnTpont5557TmwvWbJEbG/ZskW0XF5eLipfe+212dnZdg3Kbfl38WbNmjVz5kxzuZk4KspvvfXWl19+uaSk5PXXXw9eamTs2LGvvPKKuBlRMmPGDFEyadIk8QMLCwvF9po1a4L2l7CrL+tYfm+w/XVgecj8XrC5wY789ri4uEGDBr322mvPP/98UVGRLLTU6Qg+yw1fYcIDcBdPFcA7WI+uoBuhK+a23zDiWmJYI0Qd8Jp3LNQnfD6RNO/K7TNnzly4cEFsREVFyfLBgwfHxcU1NjYOHz48JiamtrY22B6bpqeny1OE6OhouwbldmxsrNhuaGior683l5slJiaK8n/84x/mQln5xIkTRklCQoIsNMycOTNofwm7+nI79Pcah4xdS0lHfntOTo647tSpU3/605/u3LlTFlrqAAAAAAAAAIAddcBr3rFQn/D5RNK8a7e9ePFisT1//nzx3wcffFAWJicnd2l/X3jjxo09e/ZUnmjelnFtfX19XV2dudzMIRE2l8hq8tKS/Cay3SXs6pvrWK5i2bWUdOS3i3t45ZVX5s2bd/PNN4vCN998M7QOAAAAAAAAANhRB7zmHQv1CZ9PJM27dtsfffRR9+7do6KiRMn27dtlYUpKith97rnnfvjDH9qdaN62+6SD2fe///0ul74a8Zvf/OaPf/xjMOSGg5c+LjFy5MiXXnpJ1BQNPvzww0H7S9jVN9exXEWGyM8///yGDRtCK3Tkt993331lZWV/+MMfxo4dKwpLSkpC6wAAAAAAAACAHXXAa96xUJ/w+UTSvGu3Ldx7771id8iQIUbJihUrUlNT4+Pj58+fn5mZqTzRvF1VVTV8+PDY2Fj5rrG5ccP58+d/8pOfXH/99fIvy7322mvBkDsJtv8BuoULF/br169bt24JCQm5ubkVFRVB+0vY1TfXsVzlV7/6VVJSkigZNmxYaIWO/PY777wzJSWla9euPXv2nDJlSl1dXWgdAAAAAAAAALCjDnjNOxbqE9qdOXOmqanJXI5IEx0uuv1KE2E+yw1fYcIDcBdPFcA7WI+uoBuhK+a23zDiWmJYI0Qd8Jp3LNQnXPLEE0+YyxFpixYtMjrfesxecXGxtQjQFxMegLt4qgDewXp0Bd0IXTG3/YYR1xLDGiHqgNe8Y6E8wfjraocPHzaXI9KOHDlidL71mD2WE3yFCQ/AXTxVAO9gPbqCboSumNt+w4hriWGNEGXAe8WJMDoXlhN8hQkPwF08VQDvYD26gm6ErpjbfsOIa4lhjRBlwEsirDmWE3yFCQ/AXTxVAO9gPbqCboSumNt+w4hriWGNEGXASyKsOT7LDV9hwgNwF08VwDtYj66gG6Er5rbfMOJaYlgjRBnwkggDAAAAAAAAgIaUAS+JMAAAAAAAAABoSBnwkggDAAAAAAAAgIaUAS+JMAAAAAAAwFXZvXt3ly5dzp8/v2fPnri4uObmZmWFCxcuWMrd4lb7dvdvMH6p9QAAT1IGvCTCmuOz3PAVJjwAd/FUAbyD9egKuhG6CmNuux5rXrZBtxJbO2G3f9k7t7jS+pEQxojD+xjWCFEGvCTCmisuLrYWAfpiwgNwF08VwDtYj66gG6GrMOa267HmZRsML7FtaWmxFtkIr/1gB+7c4krrR0IYIw7vY1gjRBnwkghrjuUEX2HCA3AXTxXAO1iPrqAboasw5rYRa8qN1atXDx48OCYmZtSoUQcOHBAVlixZ8tWvftWof/To0a5dux47dkxsl5eXi8rx8fFJSUkFBQXV1dWhDcrA9NSpU3fccUdsbGxWVlZpaakysf30008ffvjh1NTUuLi4oUOH7t27V7awbNmygQMHdu/eXZzS0NAwY8aM5ORkccXp06c3NTXJc+3aV9ZX/tK6ujqxLcrj2r3wwgvm+3f+pWK7pKQkIyNDtJCenh7GKITti7wWvjAMa4QoA14SYc2xnOArTHgA7uKpAngH69EVdCN0FcbctgS4RUVFtbW1zc3N06ZNGz16tKjwySefXHvttXv37pX1n3766fz8fLm9bt26w4cPi42amppx48aNHz8+tEEZmIpTCgoKGhsbA4FATk6OMhEWFb7+9a+fPHlSbFdVVZ04cUK2MGXKlPr6+nPnzonywsLCSZMmid2GhgZxxUceeUSea9e+sr7dL7W882vedf6lx44dExubNm0SheJa+/fvly18AcIYcXgfwxohyoCXRFhzLCf4ChMegLt4qgDewXp0Bd0IXYUxty0B7vHjx2X5tm3bunXrJre/853v/PCHPxQbFy9ezMzMrKioME43bNmyJSYmJhjSoNiorq4WGwcPHpQ1V65cGZoIf/TRR6Jw37595kLZQlVVldw9c+ZMVFTUoUOH5O769etTUlLEhl37dvXtfqlDImwW+ktPnz4dHR29ZMmSuro6S+VIC2PE4X0Ma4QoA14SYc3xWW74ChMegLt4qgDewXp0Bd0IXYUxt0MDXHO5zG03bNiQkpLy2Wefbdq0KSkpSb6uK6xZsyY3N7dXr16JiYnx8fGifmtra2iDe/fuFRuNjY3yrJ07dxotG/bt22euI1luSdZJukRctEePHm1tbXbt29W3+6XKcrnr/Etlhby8PHFozJgxW7dulS18AcIYcXgfwxohyoCXRBgAAAAAAPhLaIBrLpe5bWtra0ZGxpo1ax544IGHHnpIVpAvxi5fvry5uVnsbt682ZKrGht27/DKXUm+I2z53oLllgKBgNg9deqUuU7Q/h1hu/p2v/S9994LLT9/6RVgh19qtCwqLFq0qHfv3kYJAO9QBrwkwgAAAAAAwF9CA1xzuZHbLly4cOzYsbGxsZWVlbLkyJEjosKGDRvE9vHjx8VRS05qbjAvL6+wsLCpqammpiY3N9fcsmHy5Mmimgxwzd8RNkeuEyZMKCoqOnv2bLA9CN64caMst2tfWd/ul8rPAX/wwQfmclHtsr/06NGjouWWlpa2trbFixenpqbKFgB4ijLgJREGAAAAAAD+ogxwjXIjt/3www/F7rBhw/7vzGDw2Wef7dOnT3x8fE5OTnl5uSUnNTd48uTJ/Pz82NjYrKys0tJSc8uGhoaGWbNmpaSkiAaHDh26b9++0ES4vr7eqDNo0KCSkhJZbte+sr7DL509e7b8xERZWZm5mvMvPXToUG5ubkJCQkxMTHZ29hf51QgAHacMeEmEAQAAAACAzmpraysqKgKBgPUAAOhOGfCSCGuOz3LDV5jwANzFUwXwDtajK+hG6Mphbq9fv/473/nOkCFDduzYYT2GTsthxNF5MawRogx4SYQ1V1xcbC0C9MWEB+AuniqAd7AeXUE3Qlehc/vjjz+eN2/egAED+vbte9NNNxEHayZ0xKEBhjVClAEvibDmWE7wFSY8AHfxVAG8g/XoCroRujLP7fXr1//7v/97375909LSbr311mHDhhEH64enmZYY1ghRBrwkwppjOcFXmPAA3MVTBfAO1qMr6EboSsxt46XgtEvGjRtHHKwrnmZaYlgjRBnwkghrjuUEX2HCA3AXTxXAO1iPrqAboas5c+b069fPyIKlzMzMsrIyMe3Ftpz8bLPNtme3pSAiQBnwkghrjs9yw1eY8ADcxVMF8A7WoyvoRuhKzO3a2toXX3zxlltuufnmm9PT09PS0vr16/eVr3yFd4S1xNNMSwxrhCgDXhJhAAAAAACgicrKyu9973uZmZn9+/e/4YYbCIUB+Jwy4CURBgAAAAAAWjFeGe7bt2+/fv0IhQH4ljLgJREGAAAAAAB6qqys/I//+I8hQ4YQCgPwJ2XASyIMAAAAAAB0VltbW1FREQgErAcAQHfKgJdEWHN8lhu+woQH4C6eKoB3sB5dQTdCV8xtv2HEtcSwRogy4CUR1lxxcbG1CNAXEx6Au3iqAN7BenQF3QhdMbf9hhHXEsMaIcqAl0RYcywn+AoTHoC7eKoA3sF6dAXdCF0xt/2GEdcSwxohyoCXRFhzLCf4ChMegLt4qgDewXp0Bd0IXTG3/YYR1xLDGiHKgJdEWHMsJ/gKEx6Au3iqAN7BenQF3QhdMbf9hhHXEsMaIcqAl0RYc3yWG77ChAfgLp4qgHewHl1BN0JXzG2/YcS1xLBGiDLgJREGAAAAAAAAAA0pA14SYQAAAAAAAADQkDLgJREGAAAAAIRjz549cXFxzc3N1gOOdu/eLf4vzfPnz1sPAAAAtykDXhJhAAAAAICaTG/j4uISEhJ69uw5cuTIBQsWBAIBa70rQSIMAMAXRhnwkghrjs9yw1eY8ADcxVMF8A7WoyvC6EZzetva2rpv374HH3wwNTX1yJEj1qod9oUlwi0tLQ67djpYDZ4SxtxGp8aIa4lhjRBlwEsirLni4mJrEaAvJjwAd/FUAbyD9eiKMLpRmd5Onjx56tSplqMlJSUZGRkxMTHp6enyQvLo0qVLMzMz4+Pjp0+fLmuazyovLx88eLA4mpSUVFBQUF1dLQrLyspGjBhhXO7w4cPR0dF///vfjRKpoaFhxowZycnJ4lzReFNTU/BS48uWLRs4cGD37t137dpl3r1w4UJNTY24UEJCQu/evefOnSvzX8tZoppxFXlo1apVQ4cOjY2NveWWWw4cOPDmm29mZWWJH5udnf3+++873E9Q1TN2hcreEE6ePJmfny+uLi5aWloq7kfeod0VfSiMuY1OjRHXEsMaIcqAl0RYcywn+AoTHoC7eKoA3sF6dEUY3ahMhP/85z+npKSYjx47dkxsbNq0SRTW19fv37/fOHrvvfc2NjZWV1ePGDFi3rx5ljbXrVt3+PBhsVFTUzNu3Ljx48fLFuLi4t599115uYULF951113/urZJYWHhpEmTROWGhgZx7iOPPBK81PiUKVNE+blz5yy7ooKoWVBQIG4pEAiIW1qwYEHoWearyENTp0795JNPmpubp0+fnpmZef/99xu7t99+u6ypvB9lzygLgza9IYwdO/Y73/lOU1OTKB89erSRCCuv6E9hzG10aoy4lhjWCFEGvCTCmmM5wVeY8ADcxVMF8A7WoyvC6EZlIrxjx46uXbuaj54+fTo6OnrJkiV1dXVGNXn04MGDcnfFihVpaWnms4ya0pYtW2JiYuT2zJkzH3rooWD7pyrS09NXr179uarB4JkzZ6Kiog4dOiR3169fbw6pq6qqZLllt7q62uGWjGpm8tDx48fl7jvvvCN2T506Zex269YtaH8/yp5RFloYvSHv2Wh51apVMhG2u6I/hTG30akx4lpiWCNEGfCSCGuO5QRfYcIDcBdPFcA7WI+uCKMblelt6DvCYnvNmjV5eXnx8fFjxozZunWrcbSxsVGetXPnzqioqNCzcnNze/XqlZiYKM4V5a2traL83XffFSVNTU1r165NTU397LPP/nXtS/bt2ycqJ10iKvfo0aOtrc1yw5bdvXv3XvaWLJQNGp+VMHbt7ieo6hmHwtDesNyz/A6G8xV9KIy5jU6NEdcSwxohyoCXRFhzfJYbvsKEB+AuniqAd7AeXRFGNyqj0sLCwvvuu095tLm5edGiRb179zaOGi/kvvHGG9ddd535LPmq7PLly8VZonzz5s3msDU7O/u1116bOHHi448//q/WTQKBQBfTu7oGZYBr7FreERa3x5SHYAAAgABJREFU5Pzacughu0TY7n4M5p5RFtr1hijvYnpHePXq1R28oq+EMbfRqTHiWmJYI0QZ8JIIAwAAAADUzHloW1vbgQMHZsyYkZqaKj93axw9evToxo0bW1paRJ3FixeLCsbRKVOmNDY21tTUjBw58rHHHjOfdeTIEbGxYcMGUXj8+PGxY8eaw9by8vLhw4dfc801H374oXE/ZhMmTCgqKjp79mywPeoVNxC0CXDNUW9+fn5hYaH8Jq+4pfnz5yurGZQNhibCQZv7UfaMstChN77xjW/cd999586dO3PmzJgxY5yvCACAmTLgJREGAAAAAKjJxDMuLi4hISEpKemrX/3q/PnzA4GA+ej58+cPHTqUm5sr6sTExGRnZ5u/GrF06dLMzEzRwgMPPNDU1GQ+S2w/++yzffr0iY+Pz8nJKS8vN4etDQ0NojwvL0/uhqqvr581a1ZKSoqoNmjQoJKSkqBNgGuOequrqydOnChuNTk5efbs2fKF3NBqBmWDykRYeT/KnlEWBu174/jx46IfYmNjs7KyxP+dHhUVdfHiRbsrAgBgpgx4SYQBAAAAAP9UW1tbUVFhBL5XySFm7YiLFy/279//9ddftx7wt+XLl8svXQAA0BHKgJdEGAAAAAD8bvv27UVFRUOGDNmxY4f1WLiuMhFeuXJlWlqafIfX5w4ePPjBBx+IjWPHjg0fPnzu3LnWGgAA2FAGvCTCmuOz3PAVJjwAd/FUAbyD9eiK0G6sra195plnBg8e3Ldv3/79+7sYBwevLhFOTU1NS0tbu3at9YAviXERoxMbG9urV68ZM2Y0NjZaa/he6NyG3hhxLTGsEaIMeEmENVdcXGwtAvTFhAfgLp4qgHewHl1h7sbt27ffc889GRkZaWlpw4YNGzp0qLtxMPBF4hHhN4y4lhjWCFEGvCTCmmM5wVeY8ADcxVMF8A7WoytENxovBaenp6e1+9rXvkYcjM6OR4TfMOJaYlgjRBnwkghrjuUEX2HCA3AXTxXAO1iPrpgzZ06/fv1kEGwQJWVlZaKHxbbsZ7bZ7nTbchf+wYhriWGNEGXASyKsOZYTfIUJD8BdPFUA72A9uqK4/R3h0tLSESNGZGZmprUbPHiwu39QDvji8YjwG0ZcSwxrhCgDXhJhzfFZbvgKEx6Au3iqAN7BenSFuRsrKyunTp16ww03ZGRkDBgwgFAYnRqPCL9hxLXEsEaIMuAlEQYAAAAAnzJeGe7bt2+/fv0IhQEA0Iwy4CURBgAAAAC/q6ys/O53v8ubwgAAaEYZ8JIIAwAAAAD+qba2tqKiIhAIWA8AAIDOSRnwkggDAAAAAAAAgIaUAS+JsOb4LDd8hQkPwF08VQDvYD26gm6ErpjbfsOIa4lhjRBlwEsirLni4mJrEaAvJjwAd/FUAbyD9egKuhG6Ym77DSOuJYY1QpQBL4mw5lhO8BUmPAB38VQBvIP16Aq6EbpibvsNI64lhjVClAEvibDmWE7wFSY8AHfxVAG8g/XoCroRumJu+w0jriWGNUKUAS+JsOZYTvAVJjwAd/FUAbyD9egKuhG6Ym77DSOuJYY1QpQBL4mw5vgsN3yFCQ/AXTxVAO9gPbqCboSumNt+w4hriWGNEGXASyIMAAAAAAAAABpSBrwkwoAv7NmzJy4urrm5effu3WJdnz9/3lrjKsg2L1y4YD3QqejxKwAAAAAAAAzKgJdE2I9k8hVncs8991grmUQiQ4TSgAEDdu3aZS11VSRGU48sVY9fAQAAAAAAYFAGvCTCfnSlmeCV1hdaWlqsRZ3Hl3XzBw4cSE9Pv3jxovWAq8IYzcvqjFlq6Ch3xl8BAAAAAADgQBnwkghrTvlZbrtMUJavXr168ODBMTExo0aNOnDgQF1dndg23il+4YUXRM2GhoYZM2YkJycnJSVNnz69qanJOH3ZsmUDBw7s3r27OVlTtiwPKZtas2aNaERWeOqpp8S5R44cEduVlZWJiYmWzM7yc8y5XklJSUZGhrhienq68TcrlVe03PyuXbvsbri8vFwUxsfHi9MLCgqqq6uN01etWjV06NDY2NhbbrlF1H/zzTezsrLE6dnZ2e+//77D1aWf//znP/jBD+zqdPwSDncoeslu9B3OUvbDqVOn7rjjDnEn4gZKS0uNPjfIc5cuXZqZmSmaFT/EuKjyWkGb8QotdJgeYorK26ipqREtJyQk9O7de+7cuTL/DZ2il/0VAHxO+c8ogC8F69EVdCN0xdz2G0ZcSwxrhCgDXhJhzRmxmpldJijLi4qKamtrm5ubp02bNnr0aGX9wsLCSZMm1dfXNzQ0jBs37pFHHjGqTZkyRZSfO3fOqGwcCm3ZrilRLTo6+vjx42Jb1Bw4cOCLL74otp955pnx48ebGv4nu0T42LFjYmPTpk2iULS/f/9+WUF5RcvNO9zwunXrDh8+HGzPHMXp8n5k/alTp37yySei/vTp0zMzM++//35j9/bbb3e4upSdnf3222/b1en4JRzu0CERdjhL2Q/5+fkFBQWNjY2BQCAnJ0f2ublBee69994r6lRXV48YMWLevHnykPJayvFSFjpMj6FDh8pLiGaN2xOXXrBgQTBklIMd+BUAfE75zyiALwXr0RV0I3TF3PYbRlxLDGuEKANeEmHNKZeTzMWSTJ588kmjXAZtwrZt27p162aUGxnimTNnoqKiDh06JHfXr1+fkpJiVKuqqpLlZnYt2zUl5OTk/O53v6uvrxe3Jza+/e1vi8K8vLzQCWmXCJ8+fTo6OnrJkiV1dXVGZbsrWm7e7oYttmzZEhMTEwyp/84774jdU6dOGbuX/b3i3J49e3722Wd2dTp4CQvLHTokwmZ2v8voh+rqalF+8OBBWb5y5UrZ55ca+Cd5rlFnxYoVaWlp5gqScS3leCkLg/bTY9KkScGQ2zMubRnljvwKAD6n/GcUwJeC9egKuhG6Ym77DSOuJYY1QpQBL4mw5pTLyS4TtItWLeX79u3rYgqUExMTe/To0dbWZtds0L5lu6ZEnYULF953331vvvnm3XffXV1dnZyc/Omnn1577bUffPDB55q2bzzY/nmBvLy8+Pj4MWPGbN26Ndjhm1fuGm3m5ub26tVLnCtaFuWtra0O9c27dlcXdcRCKyoqCl7hHYZeIni5O7QbJuezZB3jKnv37hUbjY2Nsnznzp3mmzFXNteJioqS28pryXLLeNkV2k2P+fPni6Ohtycvbfk5odVCfwUAn1P+MwrgS8F6dAXdCF0xt/2GEdcSwxohyoCXRFhzyuVklwnaxX/vvfeeuTwQCHQxvZ1qsGs29JDRsl1TwubNm6+77ro5c+b8+te/FrtZWVm/+MUv0tPTrfXa/yCbaOTMmTNy9y9/+Ysl12tubl60aFHv3r2DHb555e6FS+8dL1++XLQZbL9JWW5X37Jrd/Vg+/utK1euDF7hHYZe4rJ3qBymy55luUpH3q6VlY06b7zxhhjQoP21jBPN42VXaDc95IS33J64tPkdYePndORXAPA55T+jAL4UrEdX0I3QFXPbbxhxLTGsEaIMeEmENaf8LLcyEwwtN+I/+S1X88u5EyZMKCoqOnv2bLA9Vtu4cWPo6WZ2LQdtmgq2J4AxMTGJiYny07E/+tGPxPa0adP+1aKJaDYpKelnP/tZa2vriRMnxowZIxs/evSoaK2lpaWtrW3x4sWpqamyvvKKyjsMveEjR46IjQ0bNgTbv/MwduxYWW5XP3RXefWPP/44Li7u008/lfWVdTp4icveoXKYLnuW5SrB9gi7sLCwqamppqYmNzfXfDPmylOmTGlsbBR1Ro4c+dhjjwXtr6UcL2Vh0H56GBM+Pz/fuD1xafnucOhvv+yvAOBzyn9GAXwpWI+uoBuhK+a23zDiWmJYI0QZ8JII+5HMxeJMRo0aZZQr47/Zs2fLjxiUlZUF2//G16xZs1JSUuLj4wcNGlRSUhJ6uplDy8qmpDvvvDM1NfXixYti+6233hKn/P73vzeOmq1du7Z///6xsbG5ubkvv/yybPzQoUNiNyEhISYmJjs72/jggPKKyjtU3vCzzz7bp08fcW5OTk55ebksd6hv2VVe/dVXX/3Wt74lK9vV6fglnO/Qbpicz5J1zFc5efJkfn6+6POsrKzS0lLzzZgrL126NDMzU8yxBx54oKmpSR5SXks5XspCyXl6VFdXT5w4UZyYnJwsZq98Hzn0t1/2VwAAAAAAAHReyoCXRBj48k2cOPHll1+2lnZyofErAAAAIiEQCFRUVNTW1loPAAAA31MGvCTCwJfvueeeM76DrA0SYQAAgC/Mjh07vvKVr8yZM6eystJ6DAAA+Jgy4CURBhARJMIAAABfpFWrVmVkZKSnp99+++0vvfQSrwwDAICgTcBLIqw5PssNX2HCA3AXTxXAO1iPHbFq1ar09PTrr7/+1ltvHTBgQOgrw3QjdMXc9htGXEsMa4QoA14SYc0VFxdbiwB9MeEBuIunCuAdrMcOkqFwWrsRI0YMHz7c/Mow3QhdMbf9hhHXEsMaIcqAl0RYc5MnTxb/W1AuKvFfttnWe1sKLWebbbbZZpttttn21bZZRkaG+O+gQYO2bNki6wD6YW77DSOuJYY1QpQBL4mw5lhO8BUmPAB38VQBvIP12EFvvfWWjICF/v37DxkyZPTo0bwjDO0xt/2GEdcSwxohyoCXRFhzLCf4ChMegLt4qgDewXrsCCMOHjZsWP/+/R9++GHLd4TpRuiKue03jLiWGNYIUQa8JMKa47Pc8BUmPAB38VQBvIP1eFlvvfVWenp63759zS8FW9CN0BVz228YcS0xrBGiDHhJhAEAAACgc9uxY8fAgQNDXwoGAAA+pwx4SYQBAAAAoBMLBAIVFRXKl4IBAIDPKQNeEmEAAAAAAAAA0JAy4CURBgAAAAAAAAANKQNeEmHN8Vlu+AoTHoC7eKoA3sF6dAXdCF0xt/2GEdcSwxohyoCXRFhzxcXF1iJAX0x4AO7iqQJ4B+vRFXQjdMXc9htGXEsMa4QoA14SYc2xnOArTHgA7uKpAngH69EVdCN0xdz2G0ZcSwxrhCgDXhJhzbGc4CtMeADu4qkCeAfr0RV0I3TF3PYbRlxLDGuEKANeEmHNsZzgK0x4AO7iqQJ4B+vRFXQjdMXc9htGXEsMa4QoA14SYc3xWW74ChMegLt4qgDewXp0Bd0IXTG3/YYR1xLDGiHKgDf8RPjAgQNz/OSXv/zlfwMAAAAAAACAx5w4ccKa3rb7b1XAG34iPGfOnC4AAAAAAAAAgC+VXYSrDHivNhG+5557fqm7WbNmiV86d+7c/wcAAAAAAAAAnjFp0iSHCFcZ8F5tIvzLX/7yE92tXbtW/NKtW7dauwAAAAAAAAAAvjzOEa7yKInw5XXqRJjPcsNXmPAA3MVTBfAO1qMr6EboirntN4y4lhjWsDlHuMqjX2gi3KXdkiVLrAe8rVMnwsXFxdYiQF9MeADu4qkCeAfr0RV0I3TF3PYbRlxLDGvYnCNc5VES4csLIxGWv1R44oknrMc6ZlE7c4lsMHTbmcNy6kiDduUuuspLOHeUHec6okFZwaEOvMlhwgNAGHiqAN7BenQF3QhdMbf9hhHXEsMaNucIV3nUKfBSnmAgEXYgf+ny5csPHDhgPdYxsgVzyfJ2dkftOCwncyPmxs06fiGLlpYWa5GNsC8hhZ5u91vMQs8y+9vf/iZacK4Db3KY8AAQBp4qgHewHl1BN0JXzG2/YcS1xLCGzTnCVR51CryUJxiuPhF+6aWXsrOzr20nNsSuubLDUdnOj3/849zcXHF05MiR27dvN53qslmzZonLvfPOO9YusCfvULkbuv3UU08lJSX16dPnT3/6k7ncYHei3DZMmzZNFL799tti++TJk127dh0xYoRYTqtWrcrMzLzmmmt69OgxZsyYPXv2yPp2DVZVVYkT4+Linn76aeWFhObm5gULFtxwww3R0dHizl999dXgpUaefPJJ8XPke7tNTU2PPvpo3759u3XrNmDAgLKyMnm63SXs6ss6YXRUR377b3/72xtvvFH8kMTERFFHFlrqoLPg3w8A7uKpAngH69EVdCN0xdz2G0ZcSwxr2JwjXOVRp8BLeYLhKhPh3/zmN2K7a9eukyZNmjx5stgQu6JQ1nQ+Ktu59tpr77///gEDBojtzMzMmpoa40Iu+sEPfiDa/9GPfmT9/Y7kHSp3Q7fFD3zqqafERr9+/WS58YKq3XvB5m3Dtm3bROG0adPE9nPPPdelvav/53/+Z8uWLWIQy8vLxVVkvC7r2zV49913i+1Zs2bNnDlTeSFBpuS33nrryy+/XFJS8vrrrwcvNTJ27NhXXnlF3IwomTFjhigRgyjmUmFhodhes2ZN0P4SdvVlnTA6qiO/PS4ubtCgQa+99trzzz9fVFQkCy110FnwHXoA7uKpAngH69EVdCN0xdz2G0ZcSwxr2JwjXOVRp8BLeYLhKhPh/v37i+0ZM2bIQzIKFIVy1/mobGf27Nlie/v27XL3zTfflEddFF4cHAwJE827odtnzpy5cOGC2IiKilKeEloSelQaPHhwXFxcY2Pj8OHDY2Jiamtrg+2xaXp6ujxFiI6OlpXtGoyNjRXbDQ0N9fX15nKzxMREUf6Pf/zDXCgrnzhxwihJSEiQhYaZM2cG7S9hV19uh9FRHfntOTk54rpTp0796U9/unPnTlloqQMAAAAAAAB4kHOEqzzqFHgpTzBcZSLcrVs3sf3rX/9aHhIbYveaa66Ru85HZTvi9sR2dXW13H3xxRflUbeEHQcHQ8LEqKgosdva2vrJpZsPrWY5xbJrKQk9Ki1evFiUz58/X/z3wQcflIXJycld2rt948aNPXv2VDZi3pZxbX19fV1dnbnczCERNpfIavLSkvywst0l7Oqb61iuYtm1lHTkt4t7eOWVV+bNm3fzzTd3af9/LYTWAQAAAAAAADzIOcJVHnUKvJQnGK4yEZZvAX/ve9+Th8RGl5B3hO2OynYi+o7w1cTBwZAwMTMzs0t7hG35SILddvBSNvr8889v2LAhtIKlsuGjjz7q3r27DKBFz8jClJQUsfvcc8/98Ic/tGvEvG33SQez73//+10ufTXiN7/5zR//+Meg6q7kxyVGjhz50ksviZqiwYcffjhofwm7+uY6lqs4d1RHfvt9991XVlb2hz/8YezYsaKwpKQktA4AAAAAAADgQc4RrvKoU+ClPMFwlYmwfO03KipqfDsZYpaUlMiazkdlOz169DC+I3zDDTe4+B3hq4yDgyFh4p/+9Kc+ffokJib+5Cc/MR+y2xZ+9atfJSUliZJhw4aFVrBUNrv33nvFoSFDhhglK1asSE1NjY+Pnz9/vsymZbldg1VVVcOHD4+NjZXvGisvdP78efFbrr/+evmX5V577bWg6q6am5sXLlzYr1+/bt26JSQk5ObmVlRUBO0vYVffXMdyFeeO6shvv/POO1NSUrp27dqzZ88pU6bU1dWF1gEAAAAAAAA8yDnCVR51CryUJxiuMhEWysvLR44ceW07sSF2zZUdjsp2Hn/88dtuu6179+4jRozYtm2b6dSrcvVxcPBSmHjmzJmmpibrsS8Wn+UOgxg1MXZyEK3H4G1MeADu4qkCeAfr0RV0I3TF3PYbRlxLDGvYnCNc5VGnwEt5giGMRNgtMqozkmUXuRIHBy8lwsITTzxhPfbFKi4uthbhchYtWmSMoPUYvI0JD8BdPFUA72A9uoJuhK6Y237DiGuJYQ2bc4SrPOoUeClPMOiXCLsVBwvGH0Y7fPiw9dgXi+UUhiNHjhgjaD0Gb2PCA3AXTxXAO1iPrqAboSvmtt8w4lpiWMPmHOEqj15tIjxr1qy1XziZCD/66KPWA1dB/k0zV+JgT2E5wVeY8ADcxVMF8A7WoyvoRuiKue03jLiWGNawOUe4yqNXmwjrRL84OMhygs8w4QG4i6cK4B2sR1fQjdAVc9tvGHEtMaxhc45wlUfDT4R/+ctfiqNz587dqoV33nnH+gu1wGe54StMeADu4qkCeAfr0RV0I3TF3PYbRlxLDGvYnCNc5dHwE2HnowAAAAAAAACAiHIOaZVHSYQBAAAAAAAAoFNyDmmVR0mEAQAAAAAAAKBTcg5plUdJhAEAAAAAAACgU3IOaZVHSYQ1x2e54StMeADu4qkCeAfr0RV0I3TF3PYbRlxLDGvYnENa5VESYc0VFxdbi+BLe/bsiYuLa25u3r17t1i558+ft9a4CrLNCxcuWA984a5mwnvnVwDwjqt5qgBwF+vRFXQjdMXc9htGXEsMa9icQ1rlURJhzSmXk0y+4kzuueceayWTSGSIUBowYMCuXbuspa6KxGh6J0tVTvgO8s6vAOAdV/NUAeAu1qMr6EboirntN4y4lhjWsDmHtMqjJMKaUy6nK80Er7S+0NLSYi3qPL6smz9w4EB6evrFixetB1wVxmhelneyVOWEVwodZe/8CgDe0fGnCoBIYz26gm6ErpjbfsOIa4lhDZtzSKs8SiKsOeVysssEZfnq1asHDx4cExMzatSoAwcO1NXVie0ul94pfuGFF0TNhoaGGTNmJCcnJyUlTZ8+vampyTh92bJlAwcO7N69uzlZU7YsDymbWrNmjWhEVnjqqafEuUeOHBHblZWViYmJlszO8nPMuV5JSUlGRoa4Ynp6utEVyitabn7Xrl12N1xeXi4K4+PjxekFBQXV1dXG6atWrRo6dGhsbOwtt9wi6r/55ptZWVni9Ozs7Pfff9/h6tLPf/7zH/zgB3Z1On4JhzsUvWQ3+g5nKfvh1KlTd9xxh7gTcQOlpaVGnxvkuUuXLs3MzBTNih9iXFR5raDNeIUWOkyPHj16yNuoqakRLSckJPTu3Xvu3Lky/w2dopf9FQB8TvnPKIAvBevRFXQjdMXc9htGXEsMa9icQ1rlURJhzSk/y22XCcryoqKi2tra5ubmadOmjR49Wlm/sLBw0qRJ9fX1DQ0N48aNe+SRR4xqU6ZMEeXnzp0zKhuHQlu2a0pUi46OPn78uNgWNQcOHPjiiy+K7WeeeWb8+PGmhv/JLhE+duyY2Ni0aZMoFO3v379fVlBe0XLzDje8bt26w4cPB9szR3G6vB9Zf+rUqZ988omoP3369MzMzPvvv9/Yvf322x2uLmVnZ7/99tt2dTp+CYc7dEiEHc5S9kN+fn5BQUFjY2MgEMjJyZF9bm5QnnvvvfeKOtXV1SNGjJg3b548pLyWcryUhQ7Tw+gE0axxe+LSCxYsCIaMcrADvwKAzyn/GQXwpWA9uoJuhK6Y237DiGuJYQ2bc0irPEoi7EcyF0syefLJJ41yGbQJ27Zt69atm1FuZIhnzpyJioo6dOiQ3F2/fn1KSopRraqqSpab2bVs15SQk5Pzu9/9rr6+Xtye2Pj2t78tCvPy8kKnnF0ifPr06ejo6CVLltTV1RmV7a5ouXm7G7bYsmVLTExMMKT+O++8I3ZPnTpl7F7294pze/bs+dlnn9nV6eAlLCx36JAIm9n9LqMfqqurRfnBgwdl+cqVK2WfX2rgn+S5Rp0VK1akpaWZK0jGtZTjpSwMXm56WG7PuLRllDvyKwAAAAAAALzMOaRVHiUR9iO7TNAuWrWU79u3r4spUE5MTOzRo0dbW5tds0H7lu2aEnUWLlx43333vfnmm3fffXd1dXVycvKnn3567bXXfvDBB59r2r7xYPvnBfLy8uLj48eMGbN169Zgh29euWu0mZub26tXL3GuaFmUt7a2OtQ379pdXdQRS6moqCh4hXcYeong5e7Qbpicz5J1jKvs3btXbDQ2NsrynTt3mm/GXNlcJyoqSm4rryXLLeNlV+g8PUJvT17a8nNCq4X+CgAAAAAAAC9zDmmVR0mE/cguE7SL/9577z1zeSAQ6GJ6O9Vg12zoIaNlu6aEzZs3X3fddXPmzPn1r38tdrOysn7xi1+kp6db67X/QTbRyJkzZ+TuX/7yF0uu19zcvGjRot69ewc7fPPK3QuX3jtevny5aDPYfpOy3K6+Zdfu6sH291tXrlwZvMI7DL3EZe9QOUyXPctylY68XSsrG3XeeOMNMaBB+2sZJ5rHy67QeXpYbk9c2vyOsPFzOvIrAAAAAAAAvMw5pFUeJRH2I2UmGFpuxH/yW67ml3MnTJhQVFR09uzZYHustnHjxtDTzexaDto0FWxPAGNiYhITE+WnY3/0ox+J7WnTpv2rRRPRbFJS0s9+9rPW1tYTJ06MGTNGNn706FHRWktLS1tb2+LFi1NTU2V95RWVdxh6w0eOHBEbGzZsCLZ/52Hs2LGy3K5+6K7y6h9//HFcXNynn34q6yvrdPASl71D5TBd9izLVYLtEXZhYWFTU1NNTU1ubq75ZsyVp0yZ0tjYKOqMHDnyscceC9pfSzleysJgB6ZHfn6+cXvi0vPnzzduyfzbL/srAAAAAAAAvMw5pFUeJRHWnPKz3DIXizMZNWqUUa6M/2bPni0/YlBWVhZs/xtfs2bNSklJiY+PHzRoUElJSejpZg4tK5uS7rzzztTU1IsXL4rtt956S5zy+9//3jhqtnbt2v79+8fGxubm5r788suy8UOHDondhISEmJiY7Oxs44MDyisq71B5w88++2yfPn3EuTk5OeXl5bLcob5lV3n1V1999Vvf+pasbFen45dwvkO7YXI+S9YxX+XkyZP5+fmiz7OyskpLS803Y668dOnSzMxMMcceeOCBpqYmeUh5LeV4KQsl5fQwJnx1dfXEiRPFicnJyWL2yveRQ3/7ZX8FAJ9T/jMK4EvBenQF3YjOJRAIVFRU1NbWWg+EYG77DSOuJYY1bM4hrfIoibDmiouLrUXwnokTJ7788svW0k4uNH79AjDhAbiLpwrgHaxHV9CN6HR27NgxZMiQOXPmVFZWWo+ZMLf9hhHXEsMaNueQVnmURFhzLKdO4bnnnjO+g6wNEmEAGuCpAngH69EVdCM6o/Ly8uuvvz4jI+Mb3/jGSy+9pHxlmLntN4y4lhjWsDmHtMqjJMKaYznhy0IiDEADPFUA72A9uoJuRCe1ePHitLS0r33ta/fcc8+gQYNCXxlmbvsNI64lhjVsziGt8iiJsOZYTvAVJjwAd/FUAbyD9egKuhGdlwyFhUGDBhUUFOTm5ppfGWZu+w0jriWGNWzOIa3yKImw5uQ/mQAAAAAA6ORrX/taWntAvGXLFv4gld8w4lpiWMPmHNIqj5IIAwAAAAAAT9u+fXtmZqYRB4vtESNGlJaWKj8rDAC+4hzSKo+SCAMAAAAAAO8y4uCMjIwbbrhh6tSplu8IA4CfOYe0yqMkwgAAAAAAwKO2b9+ekZHRt29fXgoGACXnkFZ5lEQYAAAAAAB40Y4dO26++WZeCgYAB84hrfIoibDm+Cw3fIUJD8BdPFUA72A9uoJuROcSCAQqKio68lIwc9tvGHEtMaxhcw5plUdJhDVXXFxsLQL0xYQH4C6eKoB3sB5dQTdCV8xtv2HEtcSwhs05pFUeJRHWHMsJvsKEB+AuniqAd7AeXUE3QlfMbb9hxLXEsIbNOaRVHiUR1hzLCb7ChAfgLp4qgHewHl1BN0JXzG2/YcS1xLCGzTmkVR4lEdYcywm+woQH4C6eKoB3sB5dQTdCV8xtv2HEtcSwhs05pFUeJRHWHJ/lhq8w4QG4i6cK4B2sR1fQjdAVc9tvGHEtMaxhcw5plUdJhAEAAAAAAACgU3IOaZVHSYQBAAAAAAAAoFNyDmmVR0mEAQAAAAAAAKBTcg5plUdJhAEAAAAAAACgU3IOaZVHSYQ1x2e54StMeADu4qkCeAfr0RV0I3QVobm9Z8+euLi45uZmuftf//VfycnJomTr1q2fqxdhu3fv7tKly4ULF6wHrpDl54SSFzp//rz1gPdEaMTx5WJYw+Yc0iqPkghrrri42FoE6IsJD8BdPFUA72A9uoJuhK6Uc3vChAnTpk2zFObl5c2ZM8dS2BGBQCAqKqqystJ6IPLCToSvNOG90vpfIuWIo7NjWMPmHNIqj5IIa47lBF9hwgNwF08VwDtYj66gG6Er5dx+6623YmJiamtrjZIPP/wwKirqwIEDplq2WlpazLt//etf3U1LLe07IBEOpRxxdHYMa9icQ1rlURJhzbGc4CtMeADu4qkCeAfr0RV0I3SlnNttbW033nhjaWmpUfKTn/xk9OjRcruhoWHGjBnJyclJSUnTp09vamoKXopEly1bNnDgwO7du+/atUsmpH/+859jYmLEdlxc3HXXXVdWVjZixAij2cOHD0dHR//97383SqRPP/304YcfTk1NFWcNHTp07969lvYvXLigvA3h1KlTd9xxR2xsbFZWlvgJRiKsrC+bXb169eDBg8V9jho16sCBA3V1dcY9Cy+88II58C0vLxeV4+PjRTsFBQXV1dVGO7JCSUlJRkaGaCE9PV3ZvV8uD94Srh7DGjbnkFZ5lERYcywn+AoTHoC7eKoA3sF6dAXdCF3Zze2f//znw4cPl9stLS19+vR59dVX5W5hYeGkSZPq6+sbGhrGjRv3yCOPBC9FolOmTBHl586dMyek5m1xNC4u7t1335VNLVy48K677pLbZgUFBV//+tdPnjwptquqqk6cOGFpP2hzG0J+fr44vbGxMRAI5OTkGImwsr5stqioqLa2trm5edq0aTL4trzza95dt27d4cOHxUZNTY1oZ/z48eYKx44dExubNm0Ktv/Y/fv3yxa8w27E0akxrGFzDmmVR0mENcdnueErTHgA7uKpAngH69EVdCN0ZTe3T5061a1bt127dontFStW9OzZU+awZ86ciYqKOnTokKy2fv36lJSU4KVItKqqSpbbJcLCzJkzH3roIbHR2tqanp6+evVqWW746KOPRP19+/aZCy3t291GdXW1qHbw4EFZvnLlSpkI29WXzR4/flyWb9u2Tfxqo1yZCJtt2bIlJibGXOH06dPR0dFLliypq6uzVPYIuxFHp8awhs05pFUeJREGAAAAAAB6mjRp0ve+971g+1u3c+fOlYX79u3r0qVL0iWJiYk9evRoa2tziFAth959911xVlNT09q1a1NTUz/77DNZbpCXaGxsNBdaGrG7jb1795rP3blzZ5f2RNiuvvK2RX1ludxds2ZNbm5ur169RCPx8fGivLW11VIhLy9PHBozZszWrVtlCwC8yTmkVR4lEQYAAAAAAHpav359XFzcnj17oqKi/va3v8nCQCDQpUuXU6dOfb6uNbF1SISF7Ozs1157beLEiY8//rhRaJDvCFu+t2BpxO427N4RtquvvG1R/7333gstN14BXr58eXNzsyjfvHmzrB/6G0WFRYsW9e7d2ygB4EHOIa3yKIkwAAAAAADQU1tbW2ZmZv/+/W+77TZz+YQJE4qKis6ePRtsT2A3btwYtIlW7RLh8vLy4cOHX3PNNR9++KFRaDZ58uS8vDwZ4Jq/I2xuRHkbgjixsLCwqamppqYmNzdXJrZ29ZW3LerLzwF/8MEH5nJR7ciRI2Jjw4YNovD48eNjx461JMJHjx4VLbe0tIjeW7x4cWpqqmwBgDc5h7TKoyTCAAAAAABAW88880yXLv+fvXuPz6I68D9OCCK5YwgxFzGkQsolINFNI7UKG3Tr7ooQUgukIk2RliJaXYr88Ia72/alJc12IyYtUqUYCiKoq11ZX2jclyKIWkBUdjFcChTyYKq5mEAil+d3NqdMx3lmTsIwkcmZz/sPX+c558zlOZfh1+/v2UmvFStWmCubmppmz56dkpISHx+fk5NTXl4edohWnRLh5uZmcez48eONGgvRwbjEiBEjduzYEXkS29sQDh06VFhYGBsbm5ubW1FRIRNbp/62ty37z507V75iorKy0tzt4YcfHjhwoDhJfn5+VVWVJRHevXt3QUFBQkJCTExMXl4eb43AuQiFQtXV1Q0NDdYGeEcd0tq2kghrjtdyI1BY8AC8xVMF8A/2oycYRujqvKzt06dPZ2dnr1q1ytqA7ndeZhyubd68efjw4bfffvvWrVutbSZMq2vqkNa2lURYc2VlZdYqQF8seADe4qkC+Af70RMMI3R1Xtb22rVr09LS5Kt48SU7LzOOc1FRUXHppZdmZmZee+21y5Yts/3JMNPqmjqktW0lEdYc2wmBwoIH4C2eKoB/sB89wTBCV1/+2k5NTU1LS3vhhResDfhSfPkzjnN3zz33pKenT5gwYdq0aTk5OZE/GWZaXVOHtLatJMKaYzshUFjwALzFUwXwD/ajJxhG6Iq1HTTMeA91zz33pHX4xje+UVpaevXVV5t/Msy0uqYOaW1bSYQ1x3ZCoLDgAXiLpwrgH+xHTzCM0JXMmAD0LFlZWdddd50o5OTk1NTU8I+Ua+qQ1raVRFhzvJYbgcKCB+AtniqAf7AfPcEwQles7aBhxnuozZs3Z2dnG4lwZmbm8OHDf/rTn8rfCDOtrqlDWttWEmEAAAAAAAAA3cgcB2dmZk6cOHHTpk3WTnBFHdLatpIIAwAAAAAAAOgumzdvHjRoUFpamvlHwfCKOqS1bSURBgAAAAAAANAtNm/ePGTIEH4U3H3UIa1tK4kwAAAAAAAAAO+FQqHq6mp+FNyt1CGtbSuJsOZ4LTcChQUPwFs8VQD/YD96gmGErljbQcOMa4lpdU0d0tq2kghrrqyszFoF6IsFD8BbPFUA/2A/eoJhhK5Y20HDjGuJaXVNHdLatpIIa47thEBhwQPwFk8VwD/Yj55gGKEr1nbQMONaYlpdU4e0tq0kwppjOyFQWPAAvMVTBfAP9qMnGEboirUdNMy4lphW19QhrW0ribDm2E4IFBY8AG/xVAH8g/3oCYYRumJtBw0zriWm1TV1SGvbSiKsOV7LjUBhwQPwFk8VwD/Yj55gGKEr1nbQMONaYlpdU4e0tq0kwgAAAAAAAADQI6lDWttWEmEAAAAAAAAA6JHUIa1ta3clwjt37rxdFz/72c/+DQAAAAAAAADOk4MHD1oT2A7/pgxpbVu7KxG+/fbbewEAAAAAAAAAzplTDKsOaW1buzcRvvHGG3/Wk82ePVt8i3nz5v17j3X33XdbqwB9seABeIunCuAf7EdPMIzQFWs7aJhxLTGtCpMnT1bEsOqQ1ra1exPhn/3sZ5/2ZC+88IL4Fq+99pr16/UcZWVl1ipAXyx4AN7iqQL4B/vREwwjdMXaDhpmXEtMq4I6hnXRSiKsQiIM9CwseADe4qkC+Af70RMMI3TF2g4aZlxLTKuCOoZ10dozEuFeHZYuXWpt6GYkwkDPwoIH4C2eKoB/sB89wTBCV6ztoGHGtcS0KqhjWBetPTIR/tICYheJsLw34b777rv66qtF4T/+4z+M1ry8PFGzceNG0xFW8vDIsplTfSTX26nrl7C1uIO5pisnVPcRJ5QdFH0QcK4XPADY4qkC+Af70RMMI3TF2g4aZlxLTKuCOoZ10apK1mwPMKhbA54Ir169eufOncuWLRPlm2++WTbt2rVLfLzkkktOnTr1xYO+QJ5Blld3+GL7/zH3UXvzzTfNH9vb280fFbp+CVuRhzt9F7PIo8zef/99cQZ1HwScZcEDwDniqQL4B/vREwwjdMXaDhpmXEtMq4I6hnXRqkrWbA8wqFtdJML/9V//NWbMmMTExN69eyckJFx99dW///3vZZMMAWUELMtmXziLp1wnwrLc1NQUExPTr1+/xsZG8fHee+8VTYsWLZKtzzzzTFZW1gUXXCA6jB07dtu2bZFnMJdra2tHjx4dFxf34IMPmuvN2traFi5cOGjQoOjo6IEDBz755JPhMye5//77k5KS5O92W1tbf/SjH6Wnp/fp0+eyyy6rrKyUhztdwqm/7PPAAw+IM4vLPfvss+Z6g7lSlrvy3X/1q19deuml4ouIJSH6yEpLHwAAAAAAAEBv6hjWRasqWbM9wKBudZEIr1y58uqrr7711ltnz55dUFAgDo+Jifnoo48+/WIiPGfOHPlx/PjxczpYT+Qdea033njD+vWcyXszPk6fPl18fPzxx0+fPj148GBR/t///V/ZVFNTI0avqqrqgQceuPDCC/Py8iLPYC7fcMMNoiwGZ9asWZarGESrqP/a174mrlheXr5q1arwmZOMGzfuiSeeeP3110VNaWmpqJk8ebKYxOLiYlFev3592PkSTv1lnylTpoivIAriC8r+xi95zb8LNp+wK989Li4uJydnxYoVjz76aElJiay09AEAAAAAAAD0po5hXbSqkjXbAwzqVheJsPDcc8/de++9c+fOve2222Tw99vf/vbTiNdEWD52k3nz5omr3HXXXdbvpiTvzfj48ssvi4/XXnvtG2+8IQoFBQVG0+rVqzMyMmR/ITo6Wtabz2Aux8bGinJzc3NTU5O53iwxMVHU/+lPfzJXys4HDx40ahISEmSlYdasWWHnSzj1l+X6+voTJ06IQlRUlHEJ2WR8tNR05bvn5+eL606bNu2hhx7asmWLrLT0AQAAAAAAAPSmjmFdtKqSNdsDDOpWF4nw9773PRn2mT322GOfRkTAlo/dwV0cHI7IK0+dOpWZmRkVFfUP//APot5434KQnJwsv8XGjRv79+9vHGU+g7ks49qmpqbGxkbLVQyKRNhcI7vJS0s7d+4MO1/Cqb+5j+Uqlo+Wmq58d3EPTzzxxPz584cMGSIqn3/++cg+AAAAAAAAgN7UMayLVlWyZnuAQd3qIhHu16+fOOSHP/xhXV3d//zP/8jgz/zuYCMCjoqKEh8fffTRLxzvHddxcNgur/x//+//ycoLL7xQnNyoT0lJEZWPPPLInXfeaT7Kqez0Sgcz+dtq+daIX/7yl7/73e/efPPNyM7y5RJjxoxZtmyZ6ClOOGfOnLDzJZz6m/tYriJDZDFHGzZsiOzQle8+ffr0ysrKp556aty4caKyvLw8sg9gwXvoAXiLpwrgH+xHTzCM0BVrO2iYcS0xrQrqGNZFqypZsz3AoG51kQh/5StfEYdkZ2eXlpbm5OTI4M82Eb700kvFxyFDhnz/+9/3/D3C5xIHh+3ySiPd/ta3vmWuX7NmTWpqanx8/IIFC7KysoyjzGcwl2tra0eNGhUbGyv6m+vNjh8//uMf//iSSy6Rf1luxYoVZWVlkZ3b2toWLVo0ePDgPn36JCQkFBQUVFdXh50v4dTf3MdylZ///OdJSUmiZuTIkZEduvLdr7/++pSUlN69e/fv33/q1Knyr/NZ+gAWYsFbqwDgHPBUAfyD/egJhhG6Ym0HDTOuJaZVQR3DumhVJWu2BxjUrS4S4Y0bN44cObJPnz5f+cpXVq1aJYM/20R49erVQ4YMiY6OlvVfOMu5Occ4OHwmr6yvr29tbbW2nQ86bScxpGJg5Qhb24AOOi14AH7AUwXwD/ajJxhG6Iq1HTTMuJaYVgV1DOuiVZWs2R5gULe6SITPu3OPg8NnEmHhvvvus7adDzptp8WLFxvDa20DOui04AH4AU8VwD/Yj55gGKEr1nbQMONaYloV1DGsi1ZVsmZ7gEHd2uMSYU/iYMH422t79uyxtp0POm2nvXv3GsNrbQM66LTgAfgBTxXAP9iPnmAYoSvWdtAw41piWhXUMayLVhLh/+NVHOxDvJYbgcKCB+AtniqAf7AfPcEwQles7aBhxrXEtCqoY1gXrd2bCM+ePfsF35szZ46ucTAAAAAAAACAHk0dw7po7d5EuKcgDgYAAAAAAADgQ+oY1kVrdyXCP/vZz0TrvHnzXvO9N954w3r3AAAAAAAAAOAD6hjWRWt3JcLqVgAAAAAAAABAp9RBq4tWEmHN8VpuBAoLHoC3eKoA/sF+9ATDCF2xtoOGGdcS06qgDlpdtJIIa66srMxaBeiLBQ/AWzxVAP9gP3qCYYSuWNtBw4xriWlVUAetLlpJhDXHdkKgsOABeIunCuAf7EdPMIzQFWs7aJhxLTGtCuqg1UUribDm2E4IFBY8AG/xVAH8g/3oCYYRuuoRa/udd97p1avXiRMnrA04ez1ixnG2mFYFddDqopVEWHNsJwQKCx6At3iqAP7BfvQEwwhduVjbMp89fvy4pab7EttOzx95S3DiYsbhf0yrgjpoddFKIqw5XsuNQGHBA/AWTxXAP9iPnmAYoSsXazsyfu00se1Ue3u7tcqk0/NH3hKcuJhx+B/TqqAOWl20kggDAAAAAIBgiYxfzYlteXl5ZmZmTExMRkaG8bvF5ubm0tLS5OTkpKSkmTNntra2GketXLly6NChffv2tQS+hw8fvu6662JjY3NzcysqKozzV1VVDRs2LD4+XpyqqKiorq6usbFRXE50iOvw2GOP2XYznxxAcKiDVhetJMIAAAAAACBYFInw/v37ReGVV14RlU1NTe+9957sUFxcPHnyZFHT3Nw8YcKEO+64wzhq6tSpov7YsWPG2aTCwsKioqKWlpZQKJSfn28kwi+++OKePXtE4ejRo+JUEydONE5lviXbbgACSB20umglEQYAAAAAAMESGb8aifCRI0eio6OXLl3a2NhotNbX10dFRe3evVt+fOmll1JSUoyjamtrjZ6Guro60bRr1y75ce3atUYibFZTUxMTExO2uyUzoxuAAFIHrS5aSYQBAAAAAECw/OEPf+jVq5d884O0detWUXPq1ClRXr9+/fjx4+Pj48eOHfvaa6+Jmh07dojWpDMSExP79esnOiti3O3bt4umlpYW+XHLli1GIizOX1BQcNFFF4nziKuI+pMnT0aeyrab0QogONRBq4tWEmHN8VpuBAoLHoC3eKoA/sF+9ATDCF25WNtHjhzpZfoBr7BmzZq0tDRTl3BbW9vixYsHDBggyqFQSPQ/fPiwuUNY+cNep98Iy98gr169Wpxf1L/66quy/t133zWfyqnbmdMHmosZh/8xrQrqoNVFK4mw5oxX4ANBwIIH4C2eKoB/sB89wTBCV+7W9oQJEyZNmvTxxx+L8p49e0aPHn3PPfeI8r59+zZu3Nje3n7q1KklS5akpqbK/jfddFNJScknn3wS7kh7RZ+wMhEWxo8fX1xc3NraevTo0YKCAhnp7t27VxQ2bNggOhw4cGDcuHGyXr6/+MMPP5THOnUznz+w3M04fI5pVVAHrS5aSYQ1x3ZCoLDgAXiLpwrgH+xHTzCM0JW7tf3nP//5u9/97sCBA+Pi4i699NJ77733888/F/W7d+8uKChISEiIiYnJy8uTb40Id/yVudmzZ6ekpMTHx+fk5JSXl4c7S4QPHTpUWFgYGxubm5tbUVFhRLoPP/ywuK44T35+flVVlVE/d+5c+VaKyspKRTe4m3H4HNOqoA5aXbSSCGuO7YRAYcED8BZPFcA/2I+eYBihq07XdkNDQ3V1dSgUsjagZ+p0xtETMa0K6qDVRSuJsObYTggUFjwAb/FUAfyD/egJhhG6UqzttWvXfutb3xo+fPjmzZutbeixFDOOnotpVVAHrS5aSYQ1x2u5ESgseADe4qkC+Af70RMMI3QVubZDodDcuXOzs7PT09O/8pWvEAdrJnLGoQGmVUEdtLpoJREGAAAAAACaWLt27dVXX53W4Rvf+EZubi5xMICeTh20umglEQYAAAAAAD2b8aNgmQULN954I3EwAD2og1YXrSTCAAAAAACgB6upqTFnwVJWVlZlZWVZWZkoy/eTUqZM2bdlWYATddDqopVEGAAAAAAA9GwNDQ3Lli3Lz8/PyckZNGhQWlqa+K8o8xthABpQB60uWkmENcdruREoLHgA3uKpAvgH+9ETDCN0ZV7bW7du/f73vz948OCcnJzMzExCYS3xNNMS06qgDlpdtJIIa45f3SNQWPAAvMVTBfAP9qMnGEboKnJtGz8ZTk9Pz8rKIhTWTOSMQwNMq4I6aHXRSiKsObYTAoUFD8BbPFUA/2A/eoJhhK4Ua3vr1q1z5swZPnw4obBOFDOOnotpVVAHrS5aSYQ1x3ZCoLDgAXiLpwrgH+xHTzCM0FWna7uhoaG6ujoUClkb0DN1OuPoiZhWBXXQ6qKVRFhzbCcECgsegLd4qgD+wX70BMMIXbG2g4YZ1xLTqqAOWl20kghrjtdyI1BY8AC8xVMF8A/2oycYRuiKtR00zLiWmFYFddDqopVEGAAAAAAAAAB8Sh20umglEQYAAAAAAAAAn1IHrS5aSYQBAAAAAAAAwKfUQauLVhJhAAAAAAAAAPApddDqopVEWHO8lhuBwoIH4C2eKoB/sB89wTBCV6ztoGHGtcS0KqiDVhetJMKaKysrs1YB+mLBA/AWTxXAP9iPnmAYoSvWdtAw41piWhXUQauLVhJhzbGdECgseADe4qkC+Af70RMMI3TVTWv7nXfe6dWr14kTJ7Zt2xYXF9fW1mbt4RvGrVoblORRx48f72K9t9zds9RNM47zi2lVUAetLlpJhDXHdkKgsOABeIunCuAf7EdPMIzQle3aloFjXIfExMTrr7/+gw8+sHZSOpfIMpIiZlU0dZG7W3W6rlO9t9zds2Q74+jpmFYFddDqopVEWHNsJwQKCx6At3iqAP7BfvQEwwhd2a5tc6zZ2NhYWlo6atQoaycldWTZ3t5urVJSxKyKpi5S36oTp+s61Z+LyOFyd8+S7Yyjp2NaFdRBq4tWEmHN8VpuBAoLHoC3eKoA/sF+9ATDCF3Zrm1LrLlp06bo6Gijtbm5ubS0NDk5OSkpaebMma2trbL+8OHD1113XWxsbG5ubkVFhYwsjVPJwsqVK4cOHdq3b1/R5HSezz77bM6cOampqXFxcSNGjHjjjTdiYmJ6nfnN8mOPPWbcSWNjY2TT0aNHi4qKEhISBgwYMG/evMg4Nexwq6K+qqpq2LBh8fHx4pbESerq6mT/8vLyzMxMca2MjAwZvcmvs27dOtFf1F9xxRU7d+406pcvX56VlSXOI76XMYxON2Z70cjhcrrns2U74+jpmFYFddDqopVEGAAAAAAA6MacCH/yySe33nrr17/+daO1uLh48uTJTU1Nzc3NEyZMuOOOO2R9YWFhUVFRS0tLKBTKz8+XkaUlEZ46dao48NixY4rziJNcc801hw4dEuXa2tqDBw8qfngb2SROZdzG6NGjFy5caOr+F7a3KupffPHFPXv2hDvSW3GeiRMnivL+/ftFh1deeUWUxd2+99574TPXLSkpaWhoaGtrmzFjxlVXXWXU33zzzeLkdXV14gbmz58vL+p0Y7YXjRwup3sGoKYOWl20kggDAAAAAADdyDgyKSkpPj5eFLKysg4fPiyb6uvro6Kidu/eLT++9NJLKSkpolBXVyd67tq1S9avXbtWRpaWRLi2tlZ9no8//lh027Fjh6yXImNfpybLbaxZsyYtLe2vvTs43eoXe4VrampiYmJE4ciRI9HR0UuXLm1sbDRa5XUPHDggP77++ut9+vQx6iNvoCs3FjZd1DJcXbxnAJHUQauLVhJhAAAAAACgGyNmPX369FtvvTVgwIAHH3xQNu3YsaNXR1gsJSYm9uvX79SpU9u3bxf1LS0tstuWLVtkZGlJhI3o1uk8st44j9T1RDjyNqKiov7au0NkH3mrorx+/fqCgoKLLrpI3I9Mw0+ePCnrx48fL2rGjh372muvhSOuKz8a3zfyBiIvatyY7UU7/V7GPQNQUwetLlpJhAEAAAAAgG4sceTjjz/er1+/I0eOiHIoFBJNxk+GDU4/YnVKhJ3OI38jLN/MYHj33XfNxyqaLLfx9NNPR/4U1+lW5W+BV69e3dbWJupfffVVWW8cKOoXL148YMCAcMQQWRJh8w1cfPHF4YiLGjfmdFHL+Z3uWX4EoKAOWl20kghrjtdyI1BY8AC8xVMF8A/2oycYRujKdm1b4sgTJ04MHTr0n/7pn+THm266qaSk5JNPPgl3JJUbN26U9ePHjy8uLm5tbT169GhBQYEl2Yz8na/TeaZMmSJOJcNi+R5h+SbfDz/80DjWENlUWFho3MaYMWMWLFhg6v4Xtre6d+9eUdiwYYPocODAgXHjxsn6ffv2iXtrb28/derUkiVLUlNTwxFDZEmEp06d2tLSIm/g7rvvln1sb8zpopHDZXvPRmvX2c44ejqmVUEdtLpoJRHWnPz7oUBAsOABeIunCuAf7EdPMIzQle3ajowjV61aFRcXV19fH+7462qzZ89OSUmJj4/PyckpLy+XfQ4dOlRYWBgbG5ubm1tRUWFJNiPP6XSe5uZmo37EiBHyncJz586V75eorKw0ziBZmurq6iZNmpSQkJCcnCya5G9vLWxvVdQ//PDDAwcOFNfNz8+vqqqS9bt37y4oKBAnjImJycvL68pbI5YvX56VlSVG7JZbbmltbZV9nG7M9qKRw+V0z2fLdsbR0zGtCuqg1UUribDm2E4IFBY8AG/xVAH8g/3oCYYRumJt6yEUClVXVzc0NFgbIjDjWmJaFdRBq4tWEmHNsZ0QKCx4AN7iqQL4B/vREwwjdMXa1sbmzZuHDh06e/bsrVu3WttMmHEtMa0K6qDVRSuJsObYTggUFjwAb/FUAfyD/egJhhG6Ym3rZOPGjRkZGenp6fn5+cuWLbP9yTAzriWmVUEdtLpoJRHWHK/lRqCw4AF4i6cK4B/sR08wjNAVa1szGzduvOSSS9LS0oYOHTp48ODInwwz41piWhXUQauLVhJhAAAAAAAA+IgRCguiMHToUMVPhgHtqYNWF60kwgAAAAAAoAeTuSH0lp2dLf6bk5NTU1NjXQGA7tRBq4tWEmEAAAAAAAD4yFNPPZWeni6z4IKCgjFjxlxzzTX8RhiBpQ5aXbSSCAMAAAAAAMAvZBycnZ39jW98Y8iQIbfffrvlPcJA0KiDVhetJMKa47XcCBQWPABv8VQB/IP96AmGEbpibevkqaeeyszMzMjIUPwomBnXEtOqoA5aXbSSCGuurKzMWgXoiwUPwFs8VQD/YD96gmGErljb2ti8efNXv/rVTn8UzIxriWlVUAetLlpJhDXHdkKgsOABeIunCuAf7EdPMIzQFWtbD6FQqLq62vZHwRbMuJaYVgV10OqilURYc2wnBAoLHoC3eKoA/sF+9ATDCF2xtoOGGdcS06qgDlpdtJIIa47thEBhwQPwFk8VwD/Yj55gGKEr1nbQMONaYloV1EGri1YSYc3xWm4ECgsegLd4qgD+wX70BMMIXbG2g4YZ1xLTqqAOWl20kggDAAAAAAAAgE+pg1YXrSTCAAAAAAAAAOBT6qDVRSuJMAAAAAAAAAD4lDpoddFKIgwAAAAAAAAAPqUOWl20kghrjtdyI1BY8AC8xVMF8A/2oycYRuiKtR00zLiWmFYFddDqopVEWHNlZWXWqnOzbdu2uLi4trY2a4PSO++8I9bD8ePHrQ3nQJ7zxIkT1gYlpztxqveWu3tG13m+4AEEHE8VwD/Yj55gGKEr1nbQMONaYloV1EGri1YSYc252E4ytYyLi0tISOjfv/+YMWMWLlwYCoWs/c5Gd+St7tJVpztxqveWu3tG17lY8ACgwFMF8A/2oycYRuiKtR00zLiWmFYFddDqopVEWHMutpM5Gz158uSOHTtuvfXW1NTUvXv3Wrt2WXfkre7SVac7cao/F+3t7ZYad/eMrnOx4AFAgacK4B/sR08wjNAVaztomHEtMa0K6qDVRSuJsOZcbCfbbHTKlCnTpk2ztJaXl2dmZsbExGRkZMgLydbly5dnZWXFx8fPnDlT9jQfVVVVNWzYMNGalJRUVFRUV1cnKisrK0ePHm1cbs+ePdHR0X/84x+NGunw4cPXXXddbGxsbm5uRUWFka7anjPsfIfr1q0T/UX9FVdcsXPnTqM+8s6Fo0ePinMmJCQMGDBg3rx5Rs5re1F5npUrVw4dOrRv377i9pzuGd3BxYIHAAWeKoB/sB89wTBCV6ztoGHGtcS0KqiDVhetJMKac/FabttE+LnnnktJSTG37t+/XxReeeUVUdnU1PTee+8ZrTfffHNLS0tdXd3o0aPnz59vOeeLL764Z8+ecEfSOmHChIkTJ8ozxMXFvf322/JyixYt+uY3v/mXa5sUFhYWFRWJk4dCofz8fCNdtT2n4g5LSkoaGhra2tpmzJhx1VVXGfWRdy6IExoXFfULFy6U9bYXleeZOnWquOKxY8fCzveM7uBiwQOAAk8VwD/Yj55gGKEr1nbQMONaYloV1EGri1YSYVjZJsKbN2/u3bu3ufXIkSPR0dFLly5tbGw0usnWXbt2yY9r1qxJS0szH2X0lGpqamJiYmR51qxZP/jBD8Idr6rIyMhYt27dF7qGw3V1deaTr1271jZdNc6puMMDBw7Ij6+//nqfPn2M+sg7t1zUqLcwLirPU1tbK+u7eM8AAAAAAACALXXQ6qKVRBhWtult5G+ERXn9+vXjx4+Pj48fO3bsa6+9ZrS2tLTIo7Zs2RIVFRV5VEFBwUUXXZSYmCiOFfUnT54U9W+//baoaW1tfeGFF1JTUz///PO/XPuM7du3W05upKtO53S6Q+PbyY/iJE53HnlRWR92uKjl/JGHG/cMAAAAAAAAdEodtLpoJRGGlW0iXFxcPH36dNvWtra2xYsXDxgwwGg1fhL79NNPX3zxxeaj5O92V69eLY4S9a+++qo5Ic3Ly1uxYsWkSZPuueeev5zdxOn3tupzhu3u0CkRjrxzy0VFvfyNsNNFLed3umf5EQAAAAAAAFBTB60uWkmEYWXONE+dOrVz587S0tLU1FT5zlyjdd++fRs3bmxvbxd9lixZIjoYrVOnTm1paTl69OiYMWPuvvtu81F79+4VhQ0bNojKAwcOjBs3zpyQVlVVjRo16oILLvjoo4+M+zEbP358cXFxa2urOHlBQYE81umcijt0SoQj7zzc8SJg46KifsGCBaLS6aKRibntPRutAAAAAAAAgII6aHXRSiKsORev5ZaZZlxcXEJCQlJS0uWXX75gwYJQKGRuPX78+O7duwsKCkSfmJiYvLw88zsZli9fnpWVJc5wyy23tLa2mo8S5YcffnjgwIHx8fH5+flVVVXmhLS5uVnUjx8/Xn6MdOjQocLCwtjY2Nzc3IqKCuNY23Mq7tApEY6883DH73wnTZokzpOcnDx37lz5o2Cni0Ymwk73jO7gYsEDgAJPFcA/2I+eYBihK9Z20DDjWmJaFdRBq4tWEmHNlZWVWau+qKGhobq62gh8z1FkHnpWTp8+nZ2dvWrVKmsD0DWdLngAOCs8VQD/YD96gmGErljbQcOMa4lpVVAHrS5aSYQ1p9hOW7ZsueWWW4YPH75582Zrm1vnmAivXbs2LS3N+BEucLYUCx4AXOCpAvgH+9ETDCN0xdoOGmZcS0yrgjpoddFKIqy5yO3U0NCwZMmSkSNHpqenZ2dnexgHh88tEU5NTU1LS3vhhResDUCXRS54ADgXPFUA/2A/eoJhhK5Y20HDjGuJaVVQB60uWkmENWfeTlu2bCkqKrrkkkvS09OHDRs2YsQIb+Ng4Lzj3w8A3uKpAvgH+9ETDCN0xdoOGmZcS0yrgjpoddFKIqy5N9980/hR8CWXXJLW4fLLLycOhpZ4Dz0Ab/FUAfyD/egJhhG6Ym0HDTOuJaZVQR20umglEdZcTU3N4MGDZRBsEDWVlZVlZWWiLP9/YChTpkyZMmXKlClTpkyZMmXKlHtKGQgUddDqopVEWH8NDQ2/+MUvzL8RHjVqlLd/UA4AAAAAAABAd1AHrS5aSYQDZMuWLVOmTJHvEf7qV79KKAwAAAAAAAD4nDpoddFKIhw4xk+G09PTs7OzCYUBAAAAAAAA31IHrS5aSYQ1p3gt95YtW2bMmMEvhaETxYIHABd4qgD+wX70BMMIXbG2g4YZ1xLTqqAOWl20kghrrtMXrjc0NFRXV4dCIWsD0AN1uuAB4KzwVAH8g/3oCYYRumJtBw0zriWmVUEdtLpoJRHWHNsJgcKCB+AtniqAf7AfPcEwQles7aBhxrXEtCqog1YXrSTCmmM7IVBY8AC8xVMF8A/2oycYRuiKtR00zLiWmFYFddDqopVEWHNsJwQKCx6At3iqAP7BfvQEwwhdsbaDhhnXEtOqoA5aXbR2byIsPPTQQ+Kj+C/l81KeNWuWbT1lypQpU6ZMudPym2++aVtPmTLlL7/MfvSkLP7XgW09Zco9vczaDlqZrEPLMv/WK8o33HBDr85i2LNq7WX+YGF7gOFcWgEAAAAAAAAAnVIHrS5aSYQBAAAAAAAAwKfUQauL1i81Ee51xn333Wd8NHc4R+YTOp3cqd5D53iJxR3MNV05obqPOKHsoOgDAAAAAAAAwG9sg1aDi1ZVPmh7gMFFq0wkV69evXPnTuOjucM5Mp9wdYcvtv8f1xdtb2+3VjlwfQkp8nCn72IWeZTZ+++/L86g7gMAAAAAAADAb2yDVoOLVlU+aHuAwUWrJZE0f5TlBx54ICkpaeDAgc8++6yonDFjhqh8+eWXRfnQoUO9e/cePXq0KD/zzDNZWVkXXHBBv379xo4du23bNqcTynJtba04MC4u7sEHHzTXm7W1tS1cuHDQoEHR0dHiBp588snwmZPcf//94q7k73ZbW1t/9KMfpaen9+nT57LLLqusrJSHO13Cqb/sY/m+Rr3BXCnLXfnuv/rVry699FLxRRITE3Nzc2WlpQ+gpTfffNNaBQDngKcK4B/sR08wjNAVaztomHEtMa0KtkGrwUWrKh+0PcDgotWSSJo/yvKUKVMeeOABURg8eLCofP3110V5xowZovzII4+I8tKlS0W5pqZGnLmqqkp0vvDCC/Py8pxOKMvy7/HNnj1b/vlRo95MtIr6r33ta48//nh5efmqVavCZ04ybty4J554QtyMqCktLRU1kydPFl+wuLhYlNevXx92voRTf9nH8n3DHT8Hlk3m3wWbT9iV7x4XF5eTk7NixYpHH33U6GDpA2iprKzMWgUA54CnCuAf7EdPMIzQFWs7aJhxLTGtCrZBq8FFqyoftD3A4KLVkkiaP8pyfX39iRMnRCEqKkrWDxs2LC4urqWlZdSoUTExMQ0NDeGO2DQjI0MeIkRHRzudUJZjY2NFubm5uampyVxvlpiYKOr/9Kc/mStl54MHDxo1CQkJstIwa9assPMlnPrLcuT3NZqMj5aarnz3/Px8cd1p06Y99NBDd9xxh6y09AG0xL8fALzFUwXwD/ajJxhG6Iq1HTTMuJaYVgXboNXgolWVD9oeYHDRakkkzR+dykuWLBHlBQsWiP/eeuutsjI5OblXx++FN27c2L9/f9sDzWUZ1zY1NTU2NprrzRSJsLlGdpOXluQ7kZ0u4dTf3MdyFctHS01Xvru4hyeeeGL+/PlDhgwRlc8//3xkH0BL/PsBwFs8VQD/YD96gmGErljbQcOMa4lpVbANWg0uWlX5oO0BBhetlkTS/NGp/PHHH/ft2zcqKkrUbNq0SVampKSIj4888sidd97pdKC57PRKB7Pbbrut15m3Rvzyl7/83e9+F4644fCZl0uMGTNm2bJloqc44Zw5c8LOl3Dqb+5juYoMkR999NENGzZEdujKd58+fXplZeVTTz01btw4UVleXh7ZB9AS/34A8BZPFcA/2I+eYBihK9Z20DDjWmJaFWyDVoOLVlU+aHuAwUWrJZE0f3QqCzfffLP4OHz4cKNmzZo1qamp8fHxCxYsyMrKsj3QXK6trR01alRsbKz8rbH55Ibjx4//+Mc/vuSSS+RflluxYkU44k7CHX+AbtGiRYMHD+7Tp09CQkJBQUF1dXXY+RJO/c19LFf5+c9/npSUJGpGjhwZ2aEr3/36669PSUnp3bt3//79J0yY0NjYGNkH0BLvoQfgLZ4qgH+wHz3BMEJXrO2gYca1xLQq2AatBhetqnzQ9gCDi1aZSNbX17e2tprr0d3EgIthJxEGAAAAAAAAehbboNXgolWVD9oeYHDRKhNJ4b777jPXo7stXrzYGHxrGwAAAAAAAAC/sg1aDS5aVfmg7QEGF63GX1fbs2ePuR7dbe/evcbgW9sAAAAAAAAA+JVt0Gpw0fqlJsIAAAAAAAAAgK5TB60uWkmENcdruREoLHgA3uKpAvgH+9ETDCN0xdoOGmZcS0yrgjpoddFKIqy5srIyaxWgLxY8AG/xVAH8g/3oCYYRumJtBw0zriWmVUEdtLpoJRHWHNsJgcKCB+AtniqAf7AfPcEwQles7aBhxrXEtCqog1YXrSTCmmM7IVBY8AC8xVMF8A/2oycYRuiKtR00zLiWmFYFddDqopVEWHNsJwQKCx6At3iqAP7BfvQEwwhdsbaDhhnXEtOqoA5aXbSSCGuO13IjUFjwALzFUwXwD/ajJxhG6MoPa/udd97p1avX8ePHt23bFhcX19bWZtvhxIkTlnqveHV+p/s3GN/U2vAl8sOMw3NMq4I6aHXRSiIMAAAAAACCxfNYs9MTepXYOnF9/k7v3OJs+wM4d+qg1UUriTAAAAAAAAgWz2PNTk/oLrFtb2+3Vjlwd/5wF+7c4mz7Azh36qDVRSuJMAAAAAAACBYj1pSFdevWDRs2LCYm5oorrti5c6fosHTp0ssvv9zov2/fvt69e+/fv1+Uq6qqROf4+PikpKSioqK6urrIE8rA9PDhw9ddd11sbGxubm5FRYVtYvvZZ5/NmTMnNTU1Li5uxIgR27dvl2dYuXLl0KFD+/btKw5pbm4uLS1NTk4WV5w5c2Zra6s81un8tv1tv2ljY6Moi/q4Do899pj5/tXfVJTLy8szMzPFGTIyMngJLNB91EGri1YSYQAAAAAAECyWALekpKShoaGtrW3GjBlXXXWV6PDpp59eeOGF27dvl/0ffPDBwsJCWX7xxRf37NkjCkePHp0wYcLEiRMjTygDU3FIUVFRS0tLKBTKz883Elsz0eGaa645dOiQKNfW1h48eFCeYerUqU1NTceOHRP1xcXFkydPFh+bm5vFFe+44w55rNP5bfs7fVPLb37NH9XfdP/+/aLwyiuviEpxrffee0+eAYDn1EGri1YSYc3xWm4ECgsegLd4qgD+wX70BMMIXblY25YA98CBA7L+9ddf79Onjyx/+9vfvvPOO0Xh9OnTWVlZ1dXVxuGGmpqamJiYcMQJRaGurk4Udu3aJXuuXbu2V0Qi/PHHH4vKHTt2mCvlGWpra+XH+vr6qKio3bt3y48vvfRSSkqKKDid36m/0zdVJMJmkd/0yJEj0dHRS5cubWxstHTubi5mHP7HtCqog1YXrSTCmuP/agOBwoIH4C2eKoB/sB89wTBCVy7WdmSAa66Xue2GDRtSUlI+//zzV155JSkpSf5cV1i/fn1BQcFFF12UmJgYHx8v+p88eTLyhNu3bxeFlpYWedSWLVuMMxt27Nhh7iNZbkn2STpDXLRfv36nTp1yOr9Tf6dvalsvP6q/qewwfvx40TR27NjXXntNnuFL4GLG4X9Mq4I6aHXRSiKsObYTAoUFD8BbPFUA/2A/eoJhhK5crO3IANdcL3PbkydPZmZmrl+//pZbbvnBD34gO8gfxq5evbqtrU18fPXVVy25qlFw+g2v/CjJ3whb3rdguaVQKCQ+Hj582Nwn7PwbYaf+Tt/03Xffjaw/fuYnwIpvapxZdFi8ePGAAQOMmu7mYsbhf0yrgjpoddFKIqw5thMChQUPwFs8VQD/YD96gmGErlys7cgA11xv5LaLFi0aN25cbGzs1q1bZc3evXtFhw0bNojygQMHRKslJzWfcPz48cXFxa2trUePHi0oKDCf2TBlyhTRTQa45vcImyPXm266qaSk5JNPPgl3BMEbN26U9U7nt+3v9E3l64A//PBDc73o1uk33bdvnzhze3v7qVOnlixZkpqaKs/wJXAx4/A/plVBHbS6aCUR1hzbCYHCggfgLZ4qgH+wHz3BMEJXLta2bYBr1Bu57UcffSQ+jhw58q9HhsMPP/zwwIED4+Pj8/Pzq6qqLDmp+YSHDh0qLCyMjY3Nzc2tqKgwn9nQ3Nw8e/bslJQUccIRI0bs2LEjMhFuamoy+uTk5JSXl8t6p/Pb9ld807lz58pXTFRWVpq7qb/p7t27CwoKEhISYmJi8vLyeGsEzhHTqqAOWl20kghrjtdyI1BY8AC8xVMF8A/2oycYRuiq07Xd0NBQXV0dCoWsDeiZOp1x9ERMq4I6aHXRSiIMAAAAAAD0tGnTppKSkuHDh2/evNnaBgA9hDpoddFKIgwAAAAAALTS0NDwk5/8ZNiwYenp6dnZ2cTBAHo0ddDqopVEGAAAAAAAaGLTpk033nhjZmZmWlrayJEjR4wYQRwMoKdTB60uWkmEAQAAAABAz2b8KDgjIyOtw9/8zd8QBwPQgzpoddFKIqw5XsuNQGHBA/AWTxXAP9iPnmAYoaulS5cOHjxYBsEGUVNZWVlWVibK4r+iG2XKlH1bFvhHSkEdtLpoJRHWnNxaQECw4AF4i6cK4B/sR08wjNCVWNsNDQ0VFRWjR4/OyspK6zBs2DD+oJyueJppiWlVUAetLlpJhDXHdkKgsOABeIunCuAf7EdPMIzQlXltb926ddq0aYMGDcrMzLzssssIhbXE00xLTKuCOmh10UoirDm2EwKFBQ/AWzxVAP9gP3qCYYSuIte28ZPh9PT0wYMHEwprJnLGoQGmVUEdtLpoJRHWHNsJgcKCB+AtniqAf7AfPcEwQleKtb1169bvfve7/FJYM4oZR8/FtCqog1YXrSTCmuO13AgUFjwAb/FUAfyD/egJhhG66nRtNzQ0VFdXh0IhawN6pk5nHD0R06qgDlpdtJIIAwAAAAAAAIBPqYNWF60kwgAAAAAAAADgU+qg1UUriTAAAAAAAAAA+JQ6aHXRSiIMAAAAAAAAAD6lDlpdtJIIa47XciNQWPAAvMVTBfAP9qMnGEboirUdNMy4lphWBXXQ6qKVRFhzZWVl1ipAXyx4AN7iqQL4B/vREwwjdMXaDhpmXEtMq4I6aHXRSiKsObYTAoUFD8BbPFUA/2A/eoJhhK5Y20HDjGuJaVVQB60uWkmENcd2QqCw4AF4i6cK4B/sR08wjNAVaztomHEtMa0K6qDVRSuJsObYTggUFjwAb/FUAfyD/egJz4dx27ZtcXFxbW1t1gald955R/yvxePHj1sbALc8X9vwOWZcS0yrgjpoddFKIqw5XsuNQGHBA/AWTxXAP9iPnnAxjDK9jYuLS0hI6N+//5gxYxYuXBgKhaz9zgaJMDznYm2jR2PGtcS0KqiDVhetJMIAAAAAAHvm9PbkyZM7duy49dZbU1NT9+7da+3aZV9aItze3q746KSL3QAA+NKog1YXrSTCAAAAAAB7tuntlClTpk2bZmktLy/PzMyMiYnJyMiQ/5e/snX58uVZWVnx8fEzZ86UPc1HVVVVDRs2TLQmJSUVFRXV1dWJysrKytGjRxuX27NnT3R09B//+EejRmpubi4tLU1OThbHipO3traGz5x85cqVQ4cO7du371tvvWX+eOLEiaNHj4oLJSQkDBgwYN68eTL/tRwluhlXkU3PPPPMiBEjYmNjr7zyyp07dz7//PO5ubniy+bl5X3wwQeK+wnbjYxTpe1oCIcOHSosLBRXFxetqKgQ9yPv0OmKAADNqINWF60kwgAAAAAAe7aJ8HPPPZeSkmJu3b9/vyi88sororKpqem9994zWm+++eaWlpa6urrRo0fPnz/fcs4XX3xxz549onD06NEJEyZMnDhRniEuLu7tt9+Wl1u0aNE3v/nNv1zbpLi4ePLkyaJzc3OzOPaOO+4Inzn51KlTRf2xY8csH0UH0bOoqEjcUigUEre0cOHCyKPMV5FN06ZN+/TTT9va2mbOnJmVlfWd73zH+Hj11VfLnrb3YzsytpVhh9EQxo0b9+1vf7u1tVXUX3XVVb3OJMK2VwQA6EcdtLpoJREGAAAAANizTYQ3b97cu3dvc+uRI0eio6OXLl3a2NhodJOtu3btkh/XrFmTlpZmPsroKdXU1MTExMjyrFmzfvCDH4Q7XlWRkZGxbt26L3QNh+vr66Oionbv3i0/vvTSS+aQura2VtZbPtbV1SluyehmJpsOHDggP77xxhvi4+HDh42Pffr0CTvfj+3I2FZaGKMh79k48zPPPNOrIxF2uiIAQD/qoNVFK4mw5ngtNwKFBQ/AWzxVAP9gP3rCxTDapreRvxEW5fXr148fPz4+Pn7s2LGvvfaa0drS0iKP2rJlS1RUVORRBQUFF110UWJiojhW1J88eVLUv/3226KmtbX1hRdeSE1N/fzzz/9y7TN27NghOiedITr369fv1KlTlhu2fNy+fXunt2Rhe0LjtRLGR6f7CduNjKIycjQs9yzfg6G+YgC5WNvo0ZhxLTGtCuqg1UUribDmjDdSAUHAggfgLZ4qgH+wHz3hYhhto9Li4uLp06fbtra1tS1evHjAgAFGq/GD3Keffvriiy82HyV/Krt69WpxlKh/9dVXZdYp++fl5a1YsWLSpEn33HPPX85uEgqFepl+q2uwDXCNj5bfCItbUv9sObLJKRF2uh+DeWRsK51GQ9T3Mv1GeN26dV28YqC4WNvo0ZhxLTGtCuqg1UUribDm2E4IFBY8AG/xVAH8g/3oCRfDaM5DT506tXPnztLS0tTUVPm6W6N13759GzdubG9vF32WLFkiOhitU6dObWlpOXr06JgxY+6++27zUXv37hWFDRs2iMoDBw6MGzdOZp3y0lVVVaNGjbrgggs++ugj437MbrrpppKSkk8++STcEfWKGwg7BLjmqLewsLC4uFi+k1fc0oIFC2y7GWxPGJkIhx3ux3ZkbCsVo3HttddOnz792LFj9fX1Y8eOVV8xmFysbfRozLiWmFYFddDqopVEWHNsJwQKCx6At3iqAP7BfvSEi2GUiWdcXFxCQkJSUtLll1++YMGCUChkbj1+/Pju3bsLCgpEn5iYmLy8PPNbI5YvX56VlSXOcMstt7S2tpqPEuWHH3544MCB8fHx+fn5VVVV5rC1ublZ1I8fP15+jNTU1DR79uyUlBTRLScnp7y8POwQ4Jqj3rq6ukmTJolbTU5Onjt3rvxBbmQ3g+0JbRNh2/uxHRnbyrDzaBw4cECMQ2xsbG5urvjf2lFRUadPn3a6YjC5WNvo0ZhxLTGtCuqg1UUribDm2E4IFBY8AG/xVAH8g/3oiU6HsaGhobq62gh8z5EiZu2K06dPZ2dnr1q1ytoQbKtXr5ZvuoBZp2sbmmHGtcS0KqiDVhetJMKa47XcCBQWPABv8VQB/IP96AnFMG7dunXmzJnDhw/fvHmztc2tc0yE165dm5aWJn/DG3C7du368MMPRWH//v2jRo2aN2+etUfgKdY2tMSMa4lpVVAHrS5aSYQBAAAAIKAaGhrE/2obNWpUenr64MGDPYyDw+eWCKempqalpb3wwgvWhkAS85KdnR0bG3vRRReVlpa2tLRYewAAtKYOWl20kggDAAAAQOBs3bp12rRpgwYNysjIGDJkiLe/DgYAAB5SB60uWkmEAQAAACAojB8FX3rppWkdhncgDgYAwLfUQauLVhJhAAAAAAiEmpqawYMHyyDYIGoqKyvLyspEWf5VH8qUe2IZADSmDlpdtJIIa47XciNQWPAAvMVTBfAP9qMnxDA2NDT89Kc/HT58eGZmZlqHK6+8csSIEfxGGD0aj4igYca1xLQqqINWF60kwprj/7MUgcKCB+AtniqAf7AfPWEexk2bNk2cOFHmwiNHjiQURo/GIyJomHEtMa0K6qDVRSuJsObYTggUFjwAb/FUAfyD/eiJyGE0fjKcnp6enZ1NKIweKnJtQ2/MuJaYVgV10OqilURYc2wnBAoLHoC3eKoA/sF+9IRiGDdt2lRSUsKfmEMPpVjb0BIzriWmVUEdtLpoJRHWHNsJgcKCB+AtniqAf7AfPdHpMDY0NFRXV4dCIWsD4G+drm1ohhnXEtOqoA5aXbSSCGuO13IjUFjwALzFUwXwD/ajJxhG6Iq1HTTMuJaYVgV10OqilUQYAAAAAAAAAHxKHbS6aCURBgAAAAAAAACfUgetLlpJhAEAAAAAAADAp9RBq4tWEmEAAAAAAAAA8Cl10OqilURYc7yWG4HCggfgLZ4qgH+wHz3BMEJXrO2gYca1xLQqqINWF60kwporKyuzVgH6YsED8BZPFcA/2I+eYBihK9Z20DDjWmJaFdRBq4tWEmHNsZ0QKCx4AN7iqQL4B/vREwwjdMXaDhpmXEtMq4I6aHXRSiKsObYTAoUFD8BbPFUA/2A/eoJhhK5Y20HDjGuJaVVQB60uWkmENcd2grRt27a4uLi2trZ33nlH7M3jx49be5wDec4TJ05YG75057Lg/fMtAPjHuTxVAHiL/egJhhG6Ym0HDTOuJaZVQR20umglEdac7Wu5ZfIVZ3LjjTdaO5l0R4YIW5dddtlbb71lrfVUd8ymf7JU2wXfRf75FgD841yeKgC8xX70BMMIXbG2g4YZ1xLTqqAOWl20kggH0dlmgmfbX2hvb7dW9Rzn6+Z37tyZkZFx+vRpa4OnXMxmp3pilho5yz3xWwAAAAAAAO2pg1YXrSTCQeSUCcr6devWDRs2LCYm5oorrti5c2djY6Mo9zrzm+LHHntM9Gxubi4tLU1OTk5KSpo5c2Zra6tx+MqVK4cOHdq3b19zsmZ7Ztlke6r169eLk8gODzzwgDh27969orx169bExERLZmf5OuZcr7y8PDMzU1wxIyPD+L8+sL2i5ebfeustpxuuqqoSlfHx8eLwoqKiuro64/BnnnlmxIgRsbGxV155pej//PPP5+bmisPz8vI++OADxdWlf/mXf/nhD3/o1Kfrl1DcoRglp9lXHGU7DocPH77uuuvEnYgbqKioMMbcII9dvnx5VlaWOK34IsZFba8VdpivyMquLI+jR4+KMyckJAwYMGDevHky/41cop1+CwAAAAAAgPNLHbS6aCURDiKnTFDWl5SUNDQ0tLW1zZgx46qrrrLtX1xcPHny5Kampubm5gkTJtxxxx1Gt6lTp4r6Y8eOGZ2NpsgzO51KdIuOjj5w4IAoi55Dhw799a9/Lco/+clPJk6caDrx/3FKhPfv3y8Kr7zyiqgU53/vvfdkB9srWm5eccMvvvjinj17wh2Zozhc3o/sP23atE8//VT0nzlzZlZW1ne+8x3j49VXX624upSXl/fyyy879en6JRR3qEiEFUfZjkNhYWFRUVFLS0soFMrPz5djbj6hPPbmm28Wferq6kaPHj1//nzZZHst2/myrezK8hCnNW5PXHrhwoXhiFkOd+FbAAAAAAAAnF/qoNVFK4lwEMlcLMnk/vvvN+pl0Ca8/vrrffr0MeqNDLG+vj4qKmr37t3y40svvZSSkmJ0q62tlfVmTmd2OpWQn5//m9/8pqmpSdyeKHzrW98SlePHj49cVE6J8JEjR6Kjo5cuXdrY2Gh0drqi5eadbtiipqYmJiYmHNH/jTfeEB8PHz5sfOz0+4pj+/fv//nnnzv16eIlLCx3qEiEzZy+lzEOdXV1on7Xrl2yfu3atXLMz5zg/8hjjT5r1qxJS0szd5CMa9nOl21luLPlYbk949KWWe7KtwAAAAAAADi/1EGri1YSYc3ZvpbbKRN0ilYt9Tt27OhlCpQTExP79et36tQpp9OGnc/sdCrRZ9GiRdOnT3/++edvuOGGurq65OTkzz777MILL/zwww+/cGrnk4c7Xi8wfvz4+Pj4sWPHvvbaa+Eu37ztR+OcBQUFF110kThWnFnUnzx5UtHf/NHp6qKP2CwlJSXhs7zDyEuEO7tDp2lSHyX7GFfZvn27KLS0tMj6LVu2mG/G3NncJyoqSpZtryXrLfPlVOm0PFatWiVaI29PXtrydSK7RX4LAAFn+88ogPOC/egJhhG6Ym0HDTOuJaZVQR20umglEdac8TJWM6dM0Cn+e/fdd831oVCol+nXqQan00Y2GWd2OpXw6quvXnzxxbfffvsvfvEL8TE3N/df//VfMzIyrP06/iCbOEl9fb38+Pvf/16e3OjQ1ta2ePHiAQMGhLt887YfT5z53fHq1avFOcMdNynrnfpbPjpdPdzx+9a1a9eGz/IOIy/R6R3aTlOnR1mu0pVf18rORp+nn35aTGjY+VrGgeb5cqp0Wh5ywVtuT1za/Bth4+t05VsACDjbf0YBnBfsR08wjNAVaztomHEtMa0K6qDVRSuJsOZst5NtJhhZb8R/8l2u5h/n3nTTTSUlJZ988km4I1bbuHFj5OFmTmcOO5wq3JEAxsTEJCYmylfH3nXXXaI8Y8aMv5zRRJw2KSnpn//5n0+ePHnw4MGxY8fKk+/bt0+crb29/dSpU0uWLElNTZX9ba9oe4eRN7x3715R2LBhQ7jjPQ/jxo2T9U79Iz/aXv3Pf/5zXFzcZ599Jvvb9uniJTq9Q9tp6vQoy1XCHRF2cXFxa2vr0aNHCwoKzDdj7jx16tSWlhbRZ8yYMXfffXfY+Vq282VbGXZeHsaCLywsNG5PXHrBggXGLZm/e6ffAkDA2f4zCuC8YD96gmGErljbQcOMa4lpVVAHrS5aSYQ1Z7udZC4WZ3LFFVcY9bbx39y5c+VLDCorK8Mdf+Nr9uzZKSkp8fHxOTk55eXlkYebKc5seyrp+uuvT01NPX36tCj/53/+pzjkt7/9rdFq9sILL2RnZ8fGxhYUFDz++OPy5Lt37xYfExISYmJi8vLyjBcO2F7R9g5tb/jhhx8eOHCgODY/P7+qqkrWK/pbPtpe/cknn/zHf/xH2dmpT9cvob5Dp2lSHyX7mK9y6NChwsJCMea5ubkVFRXmmzF3Xr58eVZWllhjt9xyS2trq2yyvZbtfNlWSrbLw1jwdXV1kyZNEgcmJyeL1St/jxz53Tv9FgACzvafUQDnBftRIRQKVVdXNzQ0WBsiMIzQFWs7aJhxLTGtCuqg1UUribDm2E49wqRJkx5//HFrbQ8XGb9+CVjwALzFUwXwD/aj2ubNm4cNG3b77bdv3brV2mbCMEJXrO2gYca1xLQqqINWF60kwprjtdw9wiOPPGK8B1kb5yURZsED8BZPFcA/2I+deuKJJzIzMzMyMq699tply5bZ/mSYYYSuWNtBw4xriWlVUAetLlpJhAF0i/OSCAMAAATZb37zm/T09KFDh/7t3/7tkCFDOv3JMAAA6BHUQauLVhJhAAAAANCEDIXT0tIyMzPHjRt3xRVXKH4yDAAAegR10OqilURYc2VlZeL/OShfxUKZMmXKlClTpkyZMuUglM2GDBki/puTk1NTUxMGAAA9kDpoddFKIgwAAAAAmqipqRk0aJDMgjMzM4cMGXLllVf++te/5jfCAAD0XOqg1UUribDmeC03AoUFD8BbPFUA/2A/doURB2dnZ2dlZX3ve9+zvEeYYYSuWNtBw4xriWlVUAetLlpJhDUn/2/HgIBgwQPwFk8VwD/Yj52qqanJzMxMT09X/CiYYYSuWNtBw4xriWlVUAetLlpJhDXHdkKgsOABeIunCuAf7Ee1zZs3Dx06NPJHwRYMI3TF2g4aZlxLTKuCOmh10UoirDm2EwKFBQ/AWzxVAP9gPyqEQqHq6mrbHwVbMIzQFWs7aJhxLTGtCuqg1UUribDm2E4IFBY8AG/xVAH8g/3oCYYRumJtBw0zriWmVUEdtLpo7d5EePLkyf+G8+quu+6yVgH6YsED8BZPFcA/2I+eYBihK9Z20DDjWmJaFSZPntxpDHtWrd2bCAMAAAAAAAAAzpE6hj2r1u5KhA8ePPjvAAAAAAAAAIBzdvDgQWsC20Ed0tq2dlciDAAAAAAAAADoVuqQ1raVRBgAAAAAAAAAeiR1SGvbSiKsuTfffNNaBeiLBQ/AWzxVAP9gP3qCYYSuWNtBw4xriWl1TR3S2raSCGuurKzMWgXoiwUPwFs8VQD/YD96gmGErljbQcOMa4lpdU0d0tq2nmsiPHny5H+DjxUVFVmrAH2x4AF4i6cK4B/sR08wjNAVaztomHEtMa2uTZ48udMI1+NEGAAAAAAAAABwHqkjXM8S4YMHD/47fK+oqMhaBeiLBQ/AWzxVAP9gP3qCYYSuWNtBw4xriWk9RwcPHrSmtx1sA173iTB6BF7LjUBhwQPwFk8VwD/Yj55gGKEr1nbQMONaYlq7iW3ASyIMAAAAAAAAABqyDXhJhAEAAAAAAABAQ7YBL4kwAAAAAAAAAGjINuAlEQYAAAAAAAAADdkGvCTCmuO13AgUFjwAb/FUAfyD/egJhhG6Ym0HDTOuJaa1m9gGvJ0nwsJDDz0kPor/Uu5x5b/7u7+zradMmTJlypQpd1ouKyuzradMmfKXX2Y/elIW/+vAtp4y5Z5eZm0HrUzWoWWZf+u7qXzDDTf0cpEI8xvhHk1sJ2sVoC8WPABv8VQB/IP96AmGEbpibQcNM64lprWb2Aa8JMKaYzshUFjwALzFUwXwD/ajJxhG6Iq1HTTMuJaY1m5iG/CedSLc64z77rvP+Ghp/WtvTS3uYK09N91xzvCZ7WSZl/Ly8rS0tKioKFFZW1sb2aFTRn9xz7J8VocD3YR/PwB4i6cK4B/sR08wjNAVaztomHEtMa3dxD7gNX+wsD+gw+rVq3fu3Gl8tLT+tbcr7e3t1iqf8eRrWnTHOYX//u//Fv9d3cGo7Nu3r7jWr3/9a1H52WefRXbolHG377//vjiwm24eOFu8hx6At3iqAP7BfvQEwwhdsbaDhhnXEtPaTewDXvMHC/sDvpj9KT7+6le/uvTSS6OjoxMTE8eOHSsrW1tbf/SjH6Wnp/fp0+eyyy6rrKw0H3j//fcnJSVF/lT2mWeeycrKuuCCC/r16ydOtW3bNlnf1ta2cOHCQYMGiasMHDjwySefdKo8fvz4j3/848zMTHHdjIyMu++++9ixY/Ik5nuOLD/wwAPilsR5nn32WXO9QVaayfrIAzu9B8Nfz9VhxowZovLll18W5UOHDvXu3Xv06NHhsxlM82mNq0RWyrLTaWtra8V14+LiHnzwQXN/y+EAAAAAAAAA/MA+4DV/sLA/QBkFmj/GxcXl5OSsWLHi0UcfLSkpkZWlpaWiw+TJk8XJi4uLRXn9+vXGgePGjXviiSdef/1144RSTU2NuI2qqqoHHnjgwgsvzMvLk/WzZ88WR33ta197/PHHy8vLV61a5VR52223icpvfvOby5cvF/8V5e9973vyJOZ7jixPmTJFXFQUBg8eLOuNn8Q6/a7W6UDFPajPKQZENM2YMUOUH3nkEVFeunRp+GwGU9bIs9ley9zB6bTyTxOK4Z01a5a5v+VwAAAAAAAAAH5gH/CaP1jYH6CMAs0f8/PzExISpk2b9tBDD23ZskVWihrZxzBr1izjwIMHDxqnMlu9enVGRoZxSHR0tKxPTEwUH//0pz+ZOysqP/74Y1EW/xVlUSOb5DmdyvX19SdOnBCFqKgoWW/pFsnpQMU9GEcZHy2GDRsWFxfX0tIyatSomJiYhoaG8NkMpqxx+mipcTptbGysKDc3Nzc1Ncl628MBAAAAAAAA+IF9wGv+YGF/wBezv+TkZPHxyJEjonz48GFRTklJkU2NjY1PPPHE/PnzhwwZIuqff/758JlUdOnSpRvPsH0fsYW8ijyqf//+Rk9F+GtbWV9fH45IY+UfWDt58uSnn35qvg2ncuRHC6cDFfdg6RlpyZIlonXBggXiv7feequs7PpgWmrUHZxOKxPhpqYmMbOdnhAAAAAAAADA+WUf8Jo/WNgf8MXsT75AID8//957773yyitF+bbbbpNN06dPr6ysfOqpp8aNGyfqy8vLw2de6TBmzJhly5Y9/vjj4vA5c+ZEntYiJSVFtD7yyCN33nmnuad8D4N8QcQvf/nL3/3ud+rKG2644Te/+c3f//3f9zrzu1chKytLfBRf1vIyBKdy+Exm+uijj27YsMGoNDgdqLiHcGfn/Pjjj/v27SvD602bNsnKrgymfC23uSbyo6XG6bS8NQL+x3voAXiLpwrgH+xHTzCM0BVrO2iYcS0xrd3EPuA1f7CwP+CL2d9nn302Z86ciy++ODo6Oi0t7Yc//KGokU3XX399SkpK7969+/fvP3Xq1MbGxnDHn31btGjR4MGD+/Tpk5CQUFBQUF1dHXlaizVr1qSmpsbHxy9YsEAGuLJe/q22Sy65RP4RuRUrVigq58+fn5GRISrT09Pvuusu46+6Pfvss6JbYmKiOMp8G05l4ec//3lSUpKoGTlypFFpcDpQcQ/hzs4p3HzzzaJ1+PDhRk1XBrOsrMxSE/nRUuN02tra2lGjRsXGxsqfKqtPCJwXcsEDgFd4qgD+wX70BMMIXbG2g4YZ1xLT2k3sA17zBwv7AzrU19e3traa6+FP3b2dxDIQi4FEGD7R3QseQNDwVAH8g/3oCYYRumJtBw0zriWmtZvYB7zmDxb2B5xx3333mevhT929nRYvXmwsCWsb8KXr7gUPIGh4qgD+wX70BMMIXbG2g4YZ1xLT2k3sA17zBwvbA4y/NrZnzx5zPfypu7fT3r17jSVhbQO+dN294AEEDU8VwD/Yj55gGKEr1nbQMONaYlq7iW3Ae9aJMHoWXsuNQGHBA/AWTxXAP9iPnmAYoSvWdtAw41piWruJbcBLIgwAAAAAAAAAGrINeEmEAQAAAAAAAEBDtgEviTAAAAAAAAAAaMg24CURBgAAAAAAAAAN2Qa8JMKa47XcCBQWPABv8VQB/IP96AmGEbpibQcNM64lprWb2Aa8JMKaKysrs1YB+mLBA/AWTxXAP9iPnmAYoSvWdtAw41piWruJbcBLIqw5thMChQUPwFs8VQD/YD96gmGErljbX4Jt27bFxcW1tbXJjz/96U+Tk5NFzbJly8z1nXrnnXd69ep14sQJa8PZYMa1xLR2E9uAl0RYc2wnBAoLHoC3eKoA/sF+9ATDCF2dy9r+yU9+0qtXrxUrVlgbvkQyJD1+/Li14ex5eCqFUCgUFRW1detWa0MXkAjDCdPaTWwDXhJhzbGdECgseADe4qkC+Af70RMMI3Tlem2fOnUqKyvr8ssv//rXv25t+xJ5GON6eCqz9vZ288c//OEPrq9CIgwnTGs3sQ14SYQ1x2u5ESgseADe4qkC+Af70RMMI3Tlem2/9NJLcXFxH3zwQVRU1Pvvv2/Uf/bZZ3PmzElNTRWtI0aM2L59u1Pl0aNHi4qKEhISBgwYMG/ePJmcWmJZIwOVhXXr1g0bNiwmJuaKK67YuXNnY2OjKIv6uA6PPfaYcRvGsZZDZFPkpdWnWrp06eWXX2583LdvX+/evffv3y/Kzc3NpaWlycnJSUlJM2fObG1tDZ+59MqVK4cOHdq3b9+33npLfqnnnnvOuMrFF19s/rK25xEOHz583XXXxcbG5ubmVlRUnHsi7HrG4WdMazexDXhJhAEAAAAAQBBNnjz5lltuEYVrr7123rx5Rn1RUdE111xz6NAhUa6trT148KBT5YQJE0R9S0tLKBQaPXr0woULw50lwiUlJQ0NDW1tbTNmzPj/7N0JfBRF3vh/wqGEEM4QknCEKEQuEVREZJUsro+7z64YYJVDkQddFAGvRUR0FVFR1AiimLiAyiqKCgiLCutPxVV3uVSIKKyckTMBlEBIIByh/7WU6X/bVyaTnklPzef9ystXT3V1dXXVt3oyX4fOpZdeaq1v5HSIFtipjQ4ePHj22WfLRLbw8MMP9+nTR24PGDBADMXhw4eLiopEs3fccYdW3tTAgQNF+dGjR40tO23btiOIE+ld7d69e9UzwgACZ5vgJSMMAAAAAACizp49e2rXrv3hhx+K7VmzZjVq1Ojo0aNie//+/TVq1MjNzTVWti3Mz88XhRs3bpQv33rrraSkJM2SljVlhHfs2CHLP//8c9EBa30jp0MCPLXJ9ddff+edd4qN06dPp6amzp07V2wfOHAgJiZm06ZNss7SpUsTEhK08qa2bNkiy52ywPq2Uzumrr7zzjtyNORLAKFmm+AlIwwAAAAAAKLOo48+mpycfOrUKbF96NChunXrvvrqq2I7Nze3Ro0axcXFxsq2hevWrTMWrly5MiYmRrOkZU0Z4QrLjZwOCfDUJsuWLUtISDhx4sTHH3/csGFDmQGXl9awXIMGDcRQlJWV2Z7aJSPs1I61q/ISfu4TgBCzTfCSEQYAAAAAANFF/k25s846q3m52rVrywcyyK8Df/PNN8b6toWmb7++/fbb8ou669evF+UHDhyQ5e+//77MgdrmWEX5V199ZSw3cjrE6dQuTQmnTp1q0aLFwoULb7zxxttuu00WFhQUiEP27Nnzy7r2p3bJCDu1w3eEgeplm+AlI6w4HsuNqELAA/AWdxXAP1iPnmAYoaogYvuDDz6oWbPmV199lV/uH//4R40aNeTfbevfv39GRoZMbuqPDLYt7NOnz4ABA0pKSvbt29e1a9dx48aJwmPHjjVs2HDSpEmnTp0S1Xr27ClzoLY5VlGel5cnNjZs2FDeu/+f0yGaw6ldmpImTJjQu3fvevXqrV69Wi/s27fvkCFDfvrpJ+1MAvejjz7SHE7tkhF2akcQ46Z3tUePHlXPCAcx4/A/pjVEbBO8ZIQVl5WVZS4C1EXAA/AWdxXAP1iPnmAYoaoKY7uwsHDu3LkFBQV6Sd++ffv372+o8l89e/YcPXq02CgqKhoxYkRCQkL9+vU7duwoHx9sW5ifn3/ttdfGx8c3adJk1KhRpaWlsqklS5akpaXVq1evR48es2bNcs8Ii21xrHzYQnZ2ttxrrGN7iNOpnZqSNm/eLFro1KmTsfDw4cP6paWnp0+dOlVzOLU1C2zctm1H2LVrV58+fcRodO7c+fnnn696RrjCGUckYlpDxDbBS0ZYcSwnRBUCHoC3uKsA/sF69ATDCFW5xPbq1atvvvnmDh06rFixwrwPEctlxhG5mNYQsU3wkhFWHMsJUYWAB+At7iqAf7AePcEwQlXW2C4sLMzOzu7atWtycnKbNm1IByvGOuNQANMaIrYJXjLCimM5IaoQ8AC8xV0F8A/WoycYRqjKGNurV68eOnRo69atW7Vq1aZNm/bt25MOVg93MyUxrSFim+AlI6w4HsuNqELAA/AWdxXAP1iPnmAYoSoR2/qXgtPS0pLOOPfcc0kHq4q7mZKY1hCxTfCSEQYAAAAAABFs+fLlbdq0kYlgnSjJzs7OysoS2/K7h2yzzbZvt+UGQsE2wUtGGAAAAAAARLbCwsK//OUv6enpycnJSWf06tWrU6dOfEcYQJSzTfCSEQYAAAAAAIpYvnz51VdfnZKSkpSU1LVrV5LCAKKcbYKXjDAAAAAAAFCK8SvDaWlpJIUBRC3bBC8ZYcXxWG5EFQIegLe4qwD+wXr0BMMIVbnE9vLlywcNGtShQweSwipxmXFELqY1RGwTvGSEFceTuRFVCHgA3uKuAvgH69ETDCNUVWFsFxYWzp07t6CgwLwDkanCGUckYlpDxDbBS0ZYcSwnRBUCHoC3uKsA/sF69ATDCFUR29GGGVcS0xoitgleMsKKYzkhqhDwALzFXQXwD9ajJxhGqIrYjjbMuJKY1hCxTfCSEVYcywlRhYAH4C3uKoB/sB49wTBCVcR2tGHGlcS0hohtgpeMsOJ4LDeiCgEPwFvcVQD/YD16gmGEqojtaMOMK4lpDRHbBC8ZYQAAAAAAAABQkG2Cl4wwAAAAAAAAACjINsFLRhgAAAAAAAAAFGSb4CUjDAAAAAAAAAAKsk3wkhFWHI/lRlQh4AF4i7sK4B+sR08wjFAVsR1tmHElMa0hYpv1pjSiAABbRElEQVTgJSOsuKysLHMRoC4CHoC3uKsA/sF69ITnw7h27dq4uLjS0lLzDldffvml+KR57Ngx844wMvV88uTJTZo0ESUzZ84M4opMghsWVIXnsQ2fY8aVxLSGiG2Cl4yw4lhOiCoEPABvcVcB/IP16IkghlFmb+Pi4uLj4xs1atS1a9fx48cXFBSY61WGHzLCRuJyYmJiVq9ebd4RML9dURQKIrYR0ZhxJTGtIWKb4CUjrDiWE6IKAQ/AW9xVAP9gPXoiiGE05jpPnTqVm5t70003JSYmbtu2zVw1YNWePz1+/Ljx5ddff13F/lTXFZkuxPTSSYDVIksQsY2IxowriWkNEdsELxlhxbGcEFUIeADe4q4C+Afr0RNBDKNtrrN///6DBg0y7Z06dWqLFi1iY2NTUlLkieTe2bNnp6am1q9ff9iwYbKm8aicnJz27duLvQ0bNuzXr19+fr4ozM7O7tKli366rVu31qpV64cfftBLhBkzZlxwwQX6y+3bt9esWTMvL09sFxUVDR8+vEmTJqJNcdKSkhKt/KSvvfZau3btzjrrrFWrVsk+LFq0SPS5xpnvQTdv3tzYtyNHjowcOTIxMVHs6tix47p16zS7Dh86dEhvQXjxxReNjezbt09Ui4+Pb9q06ZgxY2Q2VlZYsGCBaEoce+GFF65fv16/Fl3gF6K/PHnypMsZjdX0s8hd8+fPF9dYr169iy66SHRm8eLFnTt3Fn3r1q3bd99959IfzW7qnQqtoyfLd+3a1adPH3F2cdLnn39e9Ef20OmMVkHENiIaM64kpjVEbBO8ZIQVx2O5EVUIeADe4q4C+Afr0RNBDKNtRnjRokUJCQnGvXl5eWLj448/FoWHDx/+5ptv9L3XXXddcXFxfn5+ly5dxo4da2rzvffe27p1q3Ymc3rllVdec801soW4uLg1a9bI002YMOHqq6/++dzlDh48ePbZZ8ssrfDwww/36dNHbg8YMCAzM1M0UlRUJNq84447tPKTDhw4UJQfPXrU2Aen7X79+l1++eW7du0S21u2bNm5c6fm0GHTKBlfijqiHTECBQUFYgTGjx+vVxgyZEhhYWFpaenQoUMvvfRSeaxR4Beiv9Rcz2isppO7Bg0aJIZUdGbYsGGpqak33HCD/rJXr16ypm1/bKfetlBzGD2hd+/e119/fUlJiSgXQ1GjPCNse0ZbQcQ2IhozriSmNURsE7xkhAEAAAAA9mwzwitWrKhZs6Zx7969e2vVqjVjxoxDhw7p1eTejRs3ypdvvfVWUlKS8Si9prR8+fLY2Fi5fcstt9x2223amUdVpKSkLFiw4BdVz7j++uvvvPNOsXH69OnU1NS5c+eK7QMHDsTExGzatEnWWbp0qTF5vWXLFlnulAXWt/fv3y82cnNzZX1beoedMsL5+fkuI7Bjxw5Z/vnnn9euXVtu6yp1IfpL9zPq1YxMnfniiy/Eyz179ugvZd+c+mM79baFJvroyT7rLc+fP7/GmYyw0xkBAJVim+AlIwwAAAAAsGebvbV+R1hsL1y4MCMjo379+j179vz000/1vcXFxfKolStXxsTEWI/q0aNH48aNGzRoII4V5adOnRLla9asESUlJSVLlixJTEw8ceLEz+c2WLZsmeiG2PXxxx83bNhQfvU1NzdXNNKwnGikbt26ZWVlTklbp23Zjt55nW2HnRpft25dhSOgvzQ+yUEL6kKEAM9oZNug3hn9pVN/NLupdym0jp6pz/I5GO5nBAAEzjbBS0YYAAAAAGDPNpM4YMCAwYMH2+4tLS2dOHFi06ZN9b3691Xffvvt5s2bG4+S3ySdN2+eOEqUf/LJJ8ZcZLdu3ebMmXPttdfed999P7f+S6dOnWrRosXChQtvvPFG+YVioaCgoIbhK64627ynS0ZYfkdYf9yB5NThr776yrZx0zd2xQjYfkvalISVgrgQzfIdYaczGtk2aM0IO/VHZ5x620Kn0RPlNQzfEV6wYEGAZwQABMI2wUtGGAAAAABgz5guLCsrW79+/fDhwxMTE+XTYPW927dv/+ijj44fPy7qPPPMM6KCvnfgwIHFxcX79u3r2rXrPffcYzxq27ZtYmPZsmWicMeOHb179zbmInNycs4///w6deps3rxZ74/JhAkTxFH16tVbvXq1Xti3b98hQ4b89NNP2pkMqeiY5pD3dMkIa2f+gF5GRobMSMrnCDt1WD42d8OGDdbG+/TpM2DAAPmEXDEC48aNc+qMKSOsVf5CpEDOaGTboDUjrDn0x3bqbQudRk+8vOKKKwYPHnz06NEDBw707NnT/YwAgEqxTfCSEVYcj+VGVCHgAXiLuwrgH6xHT1Q4jIWFhXPnzi0oKNBLZEIwLi4uPj6+YcOGF1xwwbhx4/QKejJx06ZNPXr0EHViY2O7detmfGrE7NmzU1NTRQs33nhjSUmJ8SixPWXKlGbNmtWvX7979+45OTnGXGRRUZEoz8jIkC9tbd68WRzSqVMnY+Hhw4dHjBiRkJAgDk9PT586darmkPe0ZoGN26IDejsdO3aUzxR26vCoUaPkww2ys7ONjeTn51977bViZJo0aSLqyK/H2nbGmhGu7IVIgZzRyLZB24ywbX9sp962UHMevR07doiJrlevXufOnadNmxYTE3P69GmnM9qqMLahGGZcSUxriNgmeMkIKy4rK8tcBKiLgAfgLe4qgH+wHj3hMoyrV68eOXJkhw4dVqxYYd4XLJcsZCBOnz6dlpb2xhtvmHdAafPmzZNPuqgUl9iGkphxJTGtIWKb4CUjrDiWE6IKAQ/AW9xVAP9gPXrCOoyFhYUzZ87s3r17cnJyamqqh+lgrcoZ4XfeeScpKUl+xRVq27hxo3zmRl5e3vnnnz9mzBhzjYpYYxtqY8aVxLSGiG2Cl4yw4lhOiCoEPABvcVcB/IP16AnjMK5evfrWW29t06ZNenp6ixYtxH+9TQdrVcsIJyYmJiUlLVmyxLwDKhKxl5aWVq9evcaNGw8fPry4uNhcoyLcIqINM64kpjVEbBO8ZIQVx3JCVCHgAXiLuwrgH6xHT4hh1L8UnJ6e3rJly6SkpFatWoUiHQyEE7eIaMOMK4lpDRHbBC8ZYcXxWG5EFQIegLe4qwD+wXr0xIwZM9LS0pJ+KTU1NTs7W3wOF9vy0zjbbEfcNreIaMOMK4lpDRHbBC8ZYQAAAACIFgUFBaNHjzbmhX//+9936tSJ7wgDAKAk2wQvGWEAAAAAiDoLFiz41a9+lZycnJSU1KtXL5LCAAAoyTbBS0YYAAAAAKKU/pXh5OTkc845h6QwAACKsU3wkhEGAAAAgGi3YMGCP/7xjx06dCApDACASmwTvGSEFcdjuRFVCHgA3uKuAvgH69ETFQ5jYWHh3LlzCwoKzDsAf6swtqEYZlxJTGuI2CZ4yQgrTv4BViBKEPAAvMVdBfAP1qMnGEaoitiONsy4kpjWELFN8JIRVhzLCVGFgAfgLe4qgH+wHj3BMEJVxHa0YcaVxLSGiG2Cl4yw4lhOiCoEPABvcVcB/IP16AmGEaoitqMNM64kpjVEbBO8ZIQVx3JCVCHgAXiLuwrgH6xHTzCMUBWxHW2YcSUxrSFim+AlI6w4HsuNqELAA/AWdxXAP1iPnmAYoSpiO9ow40piWkPENsFLRhgAAAAAAAAAFGSb4CUjDAAAAAAAAAAKsk3wkhEGAAAAAAAAAAXZJnjJCAMAAAAAAACAgmwTvGSEFReix3KvXbs2Li6utLRUvpw8eXKTJk1EyaeffvqLemGkd+nLL78UcXvs2DFzjQDIY0+ePBlgOfwmRAEPIGpxVwH8g/XoCYYRqiK2ow0zriSmNURsE7xkhBWXlZVlLtK0vn37Dh061FSYkZExevRoU2EgCgoKYmJiVq9ebd5RTcgIRzPbgAeAoHFXAfyD9egJhhGqIrajDTOuJKY1RGwTvGSEFWe7nD744IPY2NjCwkK9ZPPmzTExMevXrzfUcnT8+HHjy6+//jroDGwohC0jbBoH+IFtwANA0LirAP7BevQEwwhVEdvRhhlXEtMaIrYJXjLCirNdTmVlZa1bt37++ef1knvvvffSSy+V20VFRcOHD2/SpEnDhg2HDRtWUlKiladEX3vttXbt2p111lmrVq2SWddFixbFxsaK7bi4uObNm2dnZ3fp0kVvduvWrbVq1frhhx/0EsnlFPPnz+/YsWO9evUuuuii9evXL168uHPnzuIU3bp1++677+ThOTk57du3r1+/vji8X79++fn5+uGiS04ZYdujhD179vzmN78RZxQnEmOiZ35ty03jIEpsr0WYOnVqixYtRM9TUlL0WbAthIcYVQDe4q4C+Afr0RMMI1RFbEcbZlxJTGuI2CZ4yQgrzmk5Pfroo+eff77cPn78eLNmzV599VX5csCAAZmZmYcPHy4qKrryyivvuOMOrTzfOnDgQFF+9OhRY9bVuC32xsXFrVmzRjY1YcKEq6++Wm4buZxi0KBBBw8eLC0tHTZsWGpq6g033KC/7NWrlzz8vffe27p1q9jYt2+fOPyaa67RD3fJCNseJfTp06dfv37FxcUFBQXdu3fXM8K25aZx0ByuJS8vT1T7+OOPtTNj8s033zgVwltOAQ8AweGuAvgH69ETDCNURWxHG2ZcSUxriNgmeMkIK87psdx79uypXbv2qlWrxPZbb73VqFEjmd88cOBATEzMpk2bZLWlS5cmJCRo5fnWLVu2yHKnjLBwyy233HbbbWLj1KlTKSkpCxYskOU691Ps2LFDln/xxRfipein/lJ0WG4bLV++PDY2VgsgI2ykH5Wfny8qb9y4UZa/8847MvPrVG4aB6dr2bt3b61atWbMmHHo0CG5y6kQ3nIKeAAIDncVwD9Yj55gGKEqYjvaMONKYlpDxDbBS0Y4emVmZt58883amS/DjhkzRhbm5uaKSW9YrkGDBnXr1i0rKzOlWV0ywmvWrBFHlZSULFmyJDEx8cSJE7JcV6lT6I/uNb5cuHBhjx49GjduLI6tX7++KD916lSFGWHbo9atWyc2iouLZZ2VK1fKsziVmxp3uhZ5uoyMDHGinj17fvrpp7K+bSEAAAAAAAAQCrYJXjLC0Wvp0qVxcXFr166NiYn59ttvZWFBQUENwzdzdbbpWtuMsNCtW7c5c+Zce+219913n16oq9QprBlh+U3befPmlZaWivJPPvnElKu19kcr/36u9Sin7wI7lZsad7oWnTjdxIkTmzZtWmEhAAAAAAAA4C3bBC8Z4ehVVlaWmpqalpZ22WWXGcv79u07ZMiQn376STvzUIWPPvpIc0jXOmWEc3Jyzj///Dp16mzevFkvNAr8FNaM8LZt28TGsmXLROGOHTt69+5tytVa+yM4HSVeZmRkDBgwoKSkZN++fT169HAvtzZuey3bt28XG8ePHxeD/MwzzyQmJjoVAgAAAAAAACFim+AlIxzVHn/8cTHFc+bMMRYePnx4xIgRCQkJ9evXT09Pnzp1quaQrnXKCBcVFYljMzIy9BKTwE9hzQiL7SlTpjRr1kwc271795ycHFOu1tofyfYoUb5r164+ffrUq1evc+fOzz//vHu5tXHba9m0aVOPHj3i4+NjY2O7desmHxBhWwgAAABUUUFBwdy5cwsLC807AABA1LNN8JIRVly1PJb79OnTaWlpb7zxhnkHEGLVEvAAFMZdBfAP1qO7FStWdOjQYfTo0atXrzbvM2AYoSpiO9ow40piWkPENsFLRlhxWVlZ5qLQe+edd5KSkuQTe4FwqpaAB6Aw7iqAf7AeK/TCCy+0atWqRYsWV1xxxcyZM22/MswwQlXEdrRhxpXEtIaIbYKXjLDiwr+cEhMTk5KSlixZYt4BhF74Ax6A2rirAP7BegzEI488In4V/9WvftW/f//09HTrV4YZRqiK2I42zLiSmNYQsU3wkhFWHMsJUYWAB+At7iqAf7AeAySTwkLXrl0HDx582WWXGb8yzDBCVcR2tGHGlcS0hohtgpeMsOL69+8vfh2Ui0r8l2221d6WrOVss80222yzzTbbUbWta9GixeWXXy420tPTly9fLusA6iG2ow0zriSmNURsE7xkhBXHY7kRVQh4AN7irgL4B+sxQGKg2rRpo2eEW7Zs2alTp2effVZ+R5hhhKqI7WjDjCuJaQ0R2wQvGWEAAAAAUIGeDk5OTm7ZsmX//v1XrlxprgQAAKKJbYKXjDAAAAAARLx///vfLVu2TE5ONn4pGAAARDnbBC8ZYQAAAACIbCtWrGjbti1fCgYAACa2CV4ywgAAAAAQwQoKCubOncuXggEAgJVtgpeMsOJ4LDeiCgEPwFvcVQD/YD16gmGEqojtaMOMK4lpDRHbBG/FGeHMzMxpiFj9+vUzFwHqIuABeIu7CuAfrEdPMIxQFbEdbZhxJTGtIZKZmRlMRhgAAAAAAAAAEKEqkRHeuXPndES4fv36mYsAdRHwALzFXQXwD9ajJxhGqIrYjjbMuJKY1pDauXOnMevrlhGGArKyssxFgLoIeADe4q4C+Afr0RMMI1RFbEcbZlxJTGs4kRFWHI/lRlQh4AF4i7sK4B+sR08wjFAVsR1tmHElMa3hREYYAAAAAAAAAKIFGWEAAAAAAAAAiBZkhAEAAAAAAAAgWpARBgAAAAAAAIBoQUZYcTyWG1GFgAfgLe4qgH+wHj3BMEJVxHa0YcaVxLSGExlhxWVlZZmLAHUR8AC8xV0F8A/WoycYRqiK2I42zLiSmNZwIiOsOJYTogoBD8Bb3FUA/2A9eoJhhKqI7WjDjCuJaQ0nMsKKYzkhqhDwALzFXQXwD9ajJxhGqIrYjjbMuJKY1nAiI6w4lhOiCgEPwFvcVQD/YD16gmGEqojtaMOMK4lpDadQZYTXr18/WhVPPPHEtIh19913m4sAdRHwALzFXQXwD9ajJxhGqErV2N65c6c524Iz+BNkSmJawylUGeHRo0fXAAAAAAAAQFCmT59uzrYAgBdCmxH+wx/+8EQkGzFihLiKMWPGTAcAAAAAAAiLzMxMMsIAQie0GeEnnnjiYCRbsmSJuIpPP/3UfHkAAAAAAAChMW3aNDLCAEKHjLAbMsIAAAAAACDMyAgDCKnIyAjLB+jMmDHDvCPEFMgI81huRBUCHoC3uKsA/sF69ATDCFWpF9tkhN2pN+PQmNbwisiMcNgSxEFkhGXfhAcffND40sh8TAAqe6BePysry7zPldOJnMrDY/78+W3btjWXhtfEiRPlIFTjOKBClQ14AHDHXQXwD9ajJxhGqEq92CYj7E69GYfGtIZXqHJbUZ4Rnjdv3vr168XLeeX0csF8TADk4eZSZ/qJKrucnE4UdM89MWTIkHvvvddc6uD48eMVlrhwqvztt9/q82jeB9+obMADgDvuKoB/sB49wTBCVerFNhlhd+rNODSmNbxCldsKIiP8j3/8o2vXrg0aNKhZs2Z8fHyvXr3ef/99uUum4WQKWG4b/aIVTwWdETaX2pWXlJTcddddycnJtWvXPvfcc7Ozs2V5aWnp+PHjW7VqVatWrWbNmr366qv64ZMnT27cuLEofPfdd2VlWf7QQw81bNjQWq6dWU62Dc6fPz81NbVOnTp169bt2bPn2rVrTQeaGMtfeuml1q1bi9bEZIljXQqNRxm3na7dtpETJ040atRI/tsBpwNl43/5y1/EOEycONG25NixY/fee2+LFi3EsSkpKffcc8/Ro0edDrftiV5Tfwm/4f0DgLe4qwD+wXr0BMMIVakX22SE3ak349CY1vAKVW4riIzwa6+91qtXr5tuumnEiBE9evQQh8fGxm7evPngLzPCI0eOlC8zMjJGnmFuyDvyXF988YX58pw5ZQyt5cOHDxclmZmZ4kY/YMAAsb1w4UJRLi5fbF9yySWzZs2aOnXqG2+8oR/ev3//hx56SGy0adPG2KxTuXZmOdk2uHz5cvHWkpOTIw48++yzu3XrZjrQxFgeFxeXnp4+Z86cF154YciQIS6FxqOM207XbtvIhx9+2Lx587KyMpcDZeO9e/d+5ZVXPv/8c9uSP/3pT6Lk6quvnj17tviv2L755pvlKayVbXui19Rfwm94/wDgLe4qgH+wHj3BMEJV6sU2GWF36s04NKY1vEKV2woiIywsWrTogQceGDVqlEzeCX/7298OWh4TYXoZImPGjBFnufvuu83X5kr2zVxqVx4fHy8Ldbfccosob9CggdjevXu3sbKscODAgZMnT4qNmJiYQMq1M4/ltm1w3rx5KSkpsppQq1Yt04EmxvLu3buLzg8aNOiRRx5ZuXKlS6HxKOO207XbNnL77bffeuut7gfK7Z07d8pqtiVyHPbv3y+2xX/FtihxqmzbE72m/hJ+w3PoAXiLuwrgH6xHTzCMUJV6sU1G2J16Mw6NaQ2vUOW2gsgI33zzzTLdZvTiiy8etKSATS9DIbh0sOacMbSWywSluIqPyslHD9smcI2HV3bbtsEmTZrUKD97o0aNbA80MpYfOnTolVdeGTt2bNu2bUXh4sWLnQpjYmLE9qlTpw6Wz5pswenarY2cPn06JSVl6dKl7gcaG5esJfLYAwcOaA4ZYWNla0+cagIAAAAA4C0ywgBCKlS5rSAywnXr1hWH3H777fn5+f/5z39k6s347GA9BSzzjC+88MIvjvdO0OlgzTljaC2XD3Po2rXrzJkzZ82adcstt4wcOVIrf7iBfMjDc8899+abb5oOr+y2bYMJCQmi8KmnnrrzzjudDjQylg8ePDg7O/v111/v3bu3KJw6dapTYWpqqtgW72Ti6owtOF27tZFVq1Y1aNBA/2tvTgcaG5esJXIcfvvb37788su/+93vapR/v9i2srUnTjUBAAAAAPAWGWEAIRWq3FYQGeFzzjlHHJKWljZ8+PD09HSZerPNCLdu3Vq8bNu27a233ur5c4Srkg7WnDOG1vLS0tIJEya0adOmdu3a8fHxPXr0mDt3rlb+B9Batmwp/xDcnDlzTIdXdtu2wbfeeisxMbF+/frjxo2TeVvrgUbG8quuuiohIaFmzZqNGjUaOHDgoUOHnArfffddccYGDRqIDhhbcLp2ayPjx48XGz93wvlAa7etJWIcxo4dm5KSIsYhOTlZTLHpL8sZK1t74lQTAAAAAABvkREGEFKhym0FkRH+6KOPOnXqVLt27XPOOeeNN96QqTfbjPC8efPatm1bq1YtWf6LVqqmiulgrTxjeODAgZKSEvM+VN55550npttcWh3EhIpplfNr3gcAAAAAgHfICAMIqVDltoLICFe7qqeDtfKMsPDggw+a91UHHsvtlYkTJ+qTa94H3yDgAXiLuwrgH6xHTzCMUJV6sU1G2J16Mw6NaQ2vUOW2Ii4j7Ek6WND/4tnWrVvN+6pDVlaWuQhB2bZtmz655n3wDQIegLe4qwD+wXr0BMMIVakX22SE3ak349CY1vAiI/xfXqWDfYjlhKhCwAPwFncVwD9Yj55gGKEq9WKbjLA79WYcGtMaXqHNCI8YMWKJ740cOVLVdLDGckKUIeABeIu7CuAfrEdPMIxQlXqxTUbYnXozDo1pDa/QZoQjharpYI3lhChDwAPwFncVwD9Yj55gGKEq9WKbjLA79WYcGtMaXqHKCD/xxBPi5jVmzJhPfe+LL74w914hPJYbUYWAB+At7iqAf7AePcEwQlXqxTYZYXfqzTg0pjW8QpUR5uYFAAAAAAAQBJIqAEKKjDAAAAAAAICPkFQBEFJkhAEAAAAAAHyEpAqAkCIjDAAAAAAA4CMkVQCEFBlhxfFYbkQVAh6At7irAP7BevSE58O4du3auLi40tJS8w5XX375pfi0eOzYMfOOcKlsByL0MqOK57Fd7UiquFNvxqExreFFRlhxWVlZ5iJAXQQ8AG9xVwH8g/XoiSCGUaY14+Li4uPjGzVq1LVr1/HjxxcUFJjrVYYnqdKqNFKVYwMXnrNACiK2fY6kijv1Zhwa0xpeZIQVx3JCVCHgAXiLuwrgH6xHTwQxjMa05qlTp3Jzc2+66abExMRt27aZqwbMk1RpVRqpyrGBC/osx48fd3npJMBqqgoitn2OpIo79WYcGtMaXmSEFcdyQlQh4AF4i7sK4B+sR08EMYy2ac3+/fsPGjTItHfq1KktWrSIjY1NSUmRJ5J7Z8+enZqaWr9+/WHDhsmaxqNycnLat28v9jZs2LBfv375+fmiMDs7u0uXLvrptm7dWqtWrR9++EEvOXTokDhRjTNfXhZefPFFUVhUVDR8+PAmTZqIpsS5SkpKZOUjR46MHDkyMTFR1OzYseO6detkBxYsWCBOLdq58MIL169fr5V3zKlcdtjamuZwFbZDpzn0U1Z+7bXX2rVrd9ZZZ61atcr48uTJk/v27RMtx8fHN23adMyYMTL/azpKVNPPInfNnz9fdLJevXoXXXSRuJbFixd37txZXFq3bt2+++47l/5odhPqVGh7+cKuXbv69Okjzi5O+vzzz4v+yB46nbEqgohtnyOp4k69GYfGtIYXGWHFsZwQVQh4AN7irgL4B+vRE0EMo21ac9GiRQkJCca9eXl5YuPjjz8WhYcPH/7mm2/0vdddd11xcXF+fn6XLl3Gjh1ravO9997bunWr2Ni3b9+VV155zTXXyBbi4uLWrFkjTzdhwoSrr77653OXs3ZswIABmZmZ4tiioiLR1B133CHL+/Xrd/nll+/atUtsb9myZefOnfLYIUOGFBYWlpaWDh069NJLL9XbdCqX57K2pjlchbWHkm0/ZeWBAweK8qNHj5peigqipji1GMmCggIxkuPHj7ceZTyL3DVo0KCDBw+Kaxk2bFhqauoNN9ygv+zVq5esadsf2wm1LdQcLl/o3bv39ddfX1JSIsrFSNYozwjbnrGKgohtnyOp4k69GYfGtIYXGWHF8VhuRBUCHoC3uKsA/sF69EQQw2ib1lyxYkXNmjWNe/fu3VurVq0ZM2YcOnRIryb3bty4Ub586623kpKSjEfpNaXly5fHxsbK7VtuueW2227TzjyqIiUlZcGCBb+oamnkwIEDMTExmzZtki+XLl0qc9b79+8X1XJzc/UDtfJjd+zYIV9+/vnntWvXrrBcnMu2NRP9Kmwv06mfsvKWLVtkuellfn6+y0jq1YxM1/LFF1+Il3v27NFfyktz6o/thNoWmuiXL/ustzx//vwaZzLCTmesoiBi2+dIqrhTb8ahMa3hRUYYAAAAAGDPNq1p/Y6w2F64cGFGRkb9+vV79uz56aef6nuLi4vlUStXroyJibEe1aNHj8aNGzdo0EAcK8pPnTolytesWSNKSkpKlixZkpiYeOLEiZ/PXc7UsdzcXPGyYTlxbN26dcvKymS53gfbY+XLkydPVlhu25rmcBW2Q+fUT9tT6y/XrVtnPK/tSJrYNqg/VkJ/6dQfzW5CXQqtl2/qs3wOhvsZYURSBUBIkREGAAAAANizzTkOGDBg8ODBtntLS0snTpzYtGlTfa/+zda33367efPmxqPkd07nzZsnjhLln3zyiTFr2a1btzlz5lx77bX33Xffz60bfPXVV8ZTFxQU1DB8B1Ynv9WrP99AcsqWVlhu25rTVVgHR3Pup+2p9Zem7wiLkXT/trV1l1NG2Kk/OuOE2hY6Xb4or2H4jvCCBQsCPCMkkioAQoqMMAAAAADAnjGxWFZWtn79+uHDhycmJsrnxup7t2/f/tFHHx0/flzUeeaZZ0QFfe/AgQOLi4v37dvXtWvXe+65x3jUtm3bxMayZctE4Y4dO3r37m3MWubk5Jx//vl16tTZvHmz3h+dfKbthg0b9JK+ffsOGTLkp59+0s6kUEV/ZHn//v0zMjJkCtL4HGFrtjSQcmtrTlfhlK617aftqY3H9unTZ8CAAfKZvGIkx40bZ1tNZ9ugNSOsOfTHdkJtC50uX7y84oorBg8efPTo0QMHDvTs2dP9jDAhqQIgpMgIAwAAAADsydRhXFxcfHx8w4YNL7jggnHjxhUUFBj3Hjt2bNOmTT169BB1YmNju3XrZnxqxOzZs1NTU0ULN954Y0lJifEosT1lypRmzZrVr1+/e/fuOTk5xqxlUVGRKM/IyJAvrUaNGiWfPJCdna2d+VtnI0aMSEhIEEelp6dPnTpVVhPt6OUdO3bMzc11ypYGUm5tTXO4Cqd0rW0/bU9tPDY/P//aa68VI9ykSRNx4fILudZqOtsGbTPCtv2xnVDbQs3h8rUzCWIxffXq1evcufO0adNiYmJOnz7tdEaYkFQBEFJkhBXHY7kRVQh4AN7irgL4B+vRExUOY2Fh4dy5c/WEbxW55CsDcfr06bS0tDfeeMO8AxFo3rx58kkXIVJhbEcckiru1JtxaExreJERVlxWVpa5CFAXAQ/AW9xVAP9gPXrCZRjnzJkzYMCADh06rFixwrwvWFXMCL/zzjtJSUnyy7CIRBs3bpSP9cjLyzv//PPHjBljruEdl9iOUCRV3Kk349CY1vAiI6w4lhOiCgEPwFvcVQD/YD16wjqMO3bsGD58eOvWrZOTk8855xwP08Fa1TLCiYmJSUlJS5YsMe9A5BDhlJaWVq9evcaNG4swKy4uNtfwjjW2Ix1JFXfqzTg0pjW8yAgrjuWEqELAA/AWdxXAP1iPnjAO45w5cy655JKkM/r06dO5c2dv08FAOKl3iyCp4k69GYfGtIYXGWHFsZwQVQh4AN7irgL4B+vRE2IY9S8Fy1ywcN1115EORqRT7xZBUsWdejMOjWkNLzLCiuOx3IgqBDwAb3FXAfyD9eiJGTNmpKWl6blgKTU1NTs7W3wOF9vy0zjbbEfctnq3CJIq7tSbcWhMa3iREQYAAACAaFFYWDhz5sxLL720Q4cOMjuckpLSrl07viMM+ApJFQAhRUYYAAAAAKLO6tWrR44cmZaW1qlTJ5LCgN+QVAEQUmSEAQAAACBK6V8ZTklJSU1NJSkM+ARJFQAhRUYYAAAAAKLd6tWrb7/99g4dOpAUBvyApAqAkCIjrDgey42oQsAD8BZ3FcA/WI+eqHAYCwsL586dW1BQYN4B+FuFsR1xSKq4U2/GoTGt4UVGWHHyD7ACUYKAB+At7iqAf7AePcEwQlXqxTZJFXfqzTg0pjW8yAgrjuWEqELAA/AWdxXAP1iPnmAYoSr1Ypukijv1Zhwa0xpeZIQVx3JCVCHgAXiLuwrgH6xHTzCMUJV6sU1SxZ16Mw6NaQ0vMsKKYzkhqhDwALzFXQXwD9ajJxhGqEq92Cap4k69GYfGtIYXGWHF8VhuRBUCHoC3uKsA/sF69ATDCFWpF9skVdypN+PQmNbwIiMMAAAAAADgIyRVAIQUGWEAAAAAAAAfIakCIKTICAMAAAAAAPgISRUAIUVGGMH78ssvxSwfO3bMvAPO1q5dGxcXV1paat4BAAAAAMAZJFUAhBQZYcU5PZZ7xYoVl112WWxsbIMGDbp06fLuu++aawQgIjLCEdFJXWT11oecAh4AgsNdBfAP1qMnGEaoSr3YJqniTr0Zh8a0hhcZYcVlZWWZizStuLi4UaNGU6ZMKS0tLSsr+/LLLz/77DNzpQD4P315/PjxKnZStGAuCqUq9ha2AQ8AQeOuAvgH69ETDCNUpV5sk1Rxp96MQ2Naw4uMsOJsl9M333wjZuenn34y79C0oqKi4cOHN2nSpGHDhsOGDSspKXEpN6Yv169f36ZNm+eee87YmjB16tQWLVrExsampKTIzpiSnvLlyZMn5cbs2bNTU1Pr168vziLrOJUL+/bt69evX3x8fNOmTceMGSOzt7L+a6+91q5du7POOkucWryMO+PFF1/8uVvlAmlB9M14SE5OTvv27UVPxFCIY/Pz82W59UptC42Xb9p76NAha29tTycbWbBggdglDrnwwgvF+MszHjlyZOTIkYmJiaKFjh07rlu3TnOYPiXZBjwABI27CuAfrEdPMIxQlXqxTVLFnXozDo1pDS8ywoqzXU4lJSXNmjX7wx/+sHjx4r179xp3DRgwIDMz8/Dhw0VFRVdeeeUdd9zhUq4nNz/88MOkpKRFixYZmxLy8vJEhY8//lhsi2O/+eYb41GyjikjfN111xUXF+fn53fp0mXs2LF6BWu5IHrSr18/UV5QUCDKx48fr9cfOHCgOOPRo0fdv3UbSAumQ957772tW7dqZ7LJ4vBrrrlGc7hS20K9P+573U8nqw0ZMqSwsLC0tHTo0KGXXnqprC8u5/LLL9+1a5fY3rJly86dOzWH6VOSbcADQNC4qwD+wXr0BMMIVakX2yRV3Kk349CY1vAiI6w4p+W0adOmW265pU2bNmKaLrnkkg0bNojCAwcOxMTEiF2yztKlSxMSElzKZV7yhRdeSElJWbVq1c9NG+zdu7dWrVozZsw4dOiQXuieEd64caMsf+utt5KSkvQK1vL8/Hzbcll/y5YtstyaY9UF2IKL5cuXx8bGag5Xaluo98d9r15ipJ9OVtuxY4cs//zzz2vXri029u/fL8pzc3ONRzlNn5KcAh4AgsNdBfAP1qMnGEaoSr3YJqniTr0Zh8a0hhcZYcVV+Fju3bt3Z2Zmnn/++WI7NzdXzFrDcg0aNKhbt25ZWZlTucxLNm/e/M9//rO53XILFy7MyMioX79+z549P/30U82S9DRlhIuLi2X5ypUrY2Ji9ArW8nXr1tmW27Zvm2MNsAUTcUU9evRo3LixGAdxXaLmqVOnZLnpSm0LjY2779VbsJ7O9hrFGMqZ0q9Icpo+Yx1lVBjwAFAp3FUA/2A9eoJhhKrUi22SKu7Um3FoTGt4kRHGf79hWrNmTbFRUFAgZm3Pnj2mCk7lMhG5cePGtLS0Bx980LTXqLS0dOLEiU2bNtXOPHFYHHXgwAG56/3335fZTL01Wf722283b95cM5zFVG76hq8oN37DV8+WfvXVV8aXRgG2YCS/2Dtv3jxxReLlJ598IjuvVzBeqW2htXHjXlNvnU7nlBGW3xGWD6DQOU0fAAAAAMCfSKoACCkywtHohx9+yMrKko+aPXTo0NChQy+55BK5q2/fvkOGDJF/dC4/P/+jjz5yKdfzkrt37+7QocOdd955+vRpWV/avn27qHn8+PGysrJnnnkmMTFRFIr6DRs2nDRp0qlTp3bu3NmzZ09jlnPgwIHFxcX79u3r2rXrPffco5/FWi706dNnwIABJSUlsnzcuHF6fT1bKh/XKx+LYRVIC0bbtm0Tu5YtWya2d+zY0bt3b9l52yu1LdQbt91r6q3T6ZwywmK7f//+GRkZMv+rP0fYdvoAAAAAAP5EUgVASJERjkb79+//4x//mJycXK9evcaNG1977bXbt2+Xuw4fPjxixIiEhIT69eunp6dPnTrVpdyYlxRtduvW7eabbzY+jmDTpk09evSIj4+PjY0Ve/VnKSxZsiQtLU2cXeydNWuWMcs5e/bs1NTUuLi4G2+8saSkRD+LtVw7k9wUnRftN2nSZNSoUfKLtNZ8rtglH5iQnZ2tF0oBtmA0ZcqUZs2aiXHo3r17Tk6O7LztldoW6o3b7tUsvbU9nUtGuKioSJ+pjh07ymcK204fAAAAAMCfSKoACCkywvALpzysUzkAAAAA7cxTwubOnVtYWGjeASBikVQBEFJkhBUXQY/ldsr8OpUDVhEU8AAiAncVwD9Yj+5WrFjRrl27m2++efXq1eZ9BgwjVKVebJNUcafejENjWsOLjLDisrKyzEV+5ZT5dSoHrCIo4AFEBO4qgH+wHiu0fPnyFi1aJCcnX3jhhS+99JLtV4YZRqhKvdgmqeJOvRmHxrSGFxlhxbGcEFUIeADe4q4C+AfrMRDLly9v1apVUlJSWlpaamqq9SvDDCNUpV5sk1Rxp96MQ2Naw4uMsOJYTogqBDwAb3FXAfyD9RggPSkspKSknHvuucavDDOMUJV6sU1SxZ16Mw6NaQ0vMsKK69+/v/hdUC4q8V+22VZ7W7KWs80222yzzTbbbEfVtlG7du3Ef9PT05cvXy7rAOpRL7ZJqrhTb8ahMa3hRUZYcTyWG1GFgAfgLe4qgH+wHgM0a9as5OTkpKSkFi1aZGRkXHTRRVdcccXMmTPld4QZRqhKvdgmqeJOvRmHxrSGFxlhAAAAAFCBTAenp6f36dOnbdu2o0ePNj1HGECkIKkCIKTICAMAAABAxHvllVdatmyZkpJi/FIwgAhFUgVASJERBgAAAIDItmLFivbt2/OlYEAZJFUAhBQZYQAAAACIYAUFBXPnzuVLwYBKSKoACCkyworjsdyIKgQ8AG9xVwH8g/XoCYYRqlIvtkmquFNvxqExreEV2oxwZmbmNFSrfv36mYsAdRHwALzFXQXwD9ajJxhGqEq92M7MzCQj7CIrK8tchMjHtIZTaDPCAAAAAAAACAIZYSekDpXEtIZTqDLCO3funA4f6Nevn7kIUBcBD8Bb3FUA/2A9eoJhhKpUje2dO3easy04g9ShkpjWcApVRhg+wXJCVCHgAXiLuwrgH6xHTzCMUBWxHW2YcSUxreFERlhxPJYbUYWAB+At7iqAf7AePcEwQlXEdrRhxpXEtIYTGWEAAAAAAAAAiBZkhAEAAAAAAAAgWpARBgAAAAAAAIBoQUYYAAAAAAAAAKIFGWHF8VhuRBUCHoC3uKsA/sF69ATDCFUR29GGGVcS0xpOZIQVl5WVZS4C1EXAA/AWdxXAP1iPnmAYoSpiO9ow40piWsOJjLDiWE6IKgQ8AG9xVwH8g/XoCYYRqiK2ow0zriSmNZzICCuO5YSoQsAD8BZ3FcA/WI+eYBihKmI72jDjSmJaw4mMsOJYTogqBDwAb3FXAfyD9egJhhGqIrajDTOuJKY1nMgIK47HciOqEPAAvMVdBfAP1qMnGEaoitiONsy4kpjWcCIjDAAAAAAAAADRgowwAAAAAAAAAEQLMsIAAAAAAAAAEC3ICAMAAAAAAABAtFA5I/zpp5/WqFHjwIED5h3e+etf/9qmTZuaNWuKE5n3RZQwjFUYyKsoLCw074gCYZhBoh1+E4apJOx9JZpv8tVFjcjRGS+n2i+t2jtQFcEtxgAvOcBqMGLQ4HPKhKiv3kf8zGVwXHaFiDxjZd+zAK06wjXMqvMjrhxco7vuustcqQqs92tv7wK7d++uWbNmTk7Onj178vPzzbs1bdeuXbfeemurVq3q1KnTrFmzP/7xj2vWrDFXCjvboTh+/Li4hNOnTxsLK0U2++OPP5p32Nm6det1112XkJBQq1atpk2bXnHFFcuWLZO7bLsXoKocK1W9BSdEe7WwHYowR7txaqrI9nL8jLCvFrZDEeawj9ybvDFoGzRocPXVV2/YsMFcKXJUeL1GtpWrHjlG1b5kjJcjr9d6c5bl8fHxJSUleuHGjRtlVAQ4mIFw6kD1+vrrr0WvLrvsMvOOX7KNlgoFGE4VVgvu7LoqHu4VbwOgwkGzkh2QGjduPHjw4P3795srIYpVe4hqIXjXqPryNw6Lt0NU7fR7QkxMTMOGDbt37/7oo48WFRWZ6wXGZXBcdoWI07zrl1zDT7dB6/g49d8rAb71h1mFVx10xFbYspF1OhRT/Rlh8Vkrv1wg8xc44+RVatYD9Nlnn4k2Dx48aN5xhvg8nJiY2LdvX1Ft586dX3311YQJE/73f//XXC/sQjEU2plv0l144YXmUjvHjh1r2bLl7373u1WrVu3evXvdunXTp09/88035d6qdK8qx0pVb8EJ0V4tQjEUWmWiXfP0XaQql3Py5ElzkbNKVXZB2FeLUAyFVpmwj+ibvDFoxe/HV1111XnnnWeuVGVeLbEKVXi9RpWqHAS/LRl5vdabsyxv1arVnDlz9MKxY8e2bt3a2/Fx6kBleRtOt99+u/hMVbNmzY0bN5r3GYQ6WtwFcnaXYQnkcBcuLVeKVwEQNNkBebtbuXJlp06dxH3bXAlRrNpDNBTvGoEsf/c1bhyW4IbIvf1qZLwnbNq0ad68ed26dWvbtm1wSVKXwXHZ5QnrCDvNu/GS/XMbtI6PU/+DYB0cLeC3/jCr8KqDjtgKWzayTodiqj8jbB1c8Sv4BRdccNZZZzVq1OiGG27Qp6qsrOypp54699xz69Spk5ycPGnSJM3SiHF2jbtq/JIoEYeLNS+Pki677LI77rjDWKKdWTMPPvig+HArTpqenj579mx9l7VNo//5n/+xvmPp1+LSrOz2P/7xj4suuujss8/u0aOHeDsUn6svvvhi8VL8d/PmzcaaH330Uc+ePcUu8VnlhRdeMO6yHZZf9vrnbhvry+0PP/xQfPgXsyDO+P3338tqx48fv/vuuxMSEurVq5eZmSk+4evN9u/f/7333pPVXnrpJfFRqlatWikpKVOnTpWFOnG3FUfl5eWZyqVf9u6/3XO5FjGM4kOa7M8111zz+uuv67uE6dOni7EVI9yiRYuHHnro1KlTxhZsL/CXJ/95cNwvJ0Cmq9AR7TWUjnbN0j0jpxC1nX3N7nJcrl1uL126VLzBi3Zkh53OaK1c4XUFwunaCfsaSod9xN3kjUydEdMkXh47dkyv4H5S28nS9wa4Hp2G16l+Za/XaQHaVtYH5K9//av4ZK6fVBg8eLCYFLnt1Dej4JaMS3i4XLjtzcTUmqllnSwXV3HFFVfIkhMnTohrf/jhh/VTa86XLA+v4gKX3E/h+R1bOHr0aMOGDT/44IPf/OY3YukZd7ksxspecoU3ImM120ur8UvGo4zDUqlQd4pA25Zte1VZxss0cumJyy06wLE1MnXgnXfeEVckol1zvku4dEBzjlhEqGoP0eDeNTTX9uWq1xnrG9d4hY3bvo84LQFr+3prvmKdcfGmcN55591+++3ypdOdwfaW6DILcpfT25/L4Dt1wDrCLu9ZRqZL9slt0DoRskSexXa0NedTWwdHP0Ryeet3+m3Kqdxp7kxXZLwcuW0bJzV+SRYaWQcqwIi1bdmpsjyLU7g6HVXZaapGNiMbNtYplF577bVPPvlk586d//znPzt37nzjjTfK8vvuu69x48bz5s0Tu7788kv53Y0Kw0vuWrhwodjetGmT/J6aduYfoYgZWr16tTxQRJ6o8M0338iXulGjRjVr1mzJkiU7duyYNWuWCIJXXnlF7rK2qfvxxx9jYmJEZBsLjVyald2+9NJLV6xYIXp12WWXid+wMzIyxO/W8uWVV15prNm2bVtrOy7DYtttY325LU4kPtX/5z//ET0RZ5fVRo4cKda8uF+I07388svNmzfXm9Xl5eWJa3/yySd/+OEHMU2ib8a9gigXFaZMmXLS7v9QWbvnci133nmn+JAmL198WBW3Zn3XxIkTxe1A3PvERIsF3KZNmwceeMDYgu0FWs9e4eUEyHQVOqK9htLRrlm6p3MJUdvZ1+wux+Xa5XbXrl1FaInuiTouZzRVXrt2bYXXFQinayfsaygd9pF1kzcxdubQoUNDhw7t0KGDvrfCk9pOlr43kPXoNLxO9fXGA79epwVoW1kfkIMHD4rfd/Wnfxw5ckR8Fnr77bc1177pgl4yLuHhcuG2NxNTa6aWdbJcjEPdunW3bt0qSt59991zzjln+fLlgYdfFRd4IKfw/I6tnYkN8QFGfNITn4rFdMhPxZLLYqzsJVd4I9KrOS0Hl1g1rrJKhbpTBFpb9mrAjaNh5NITl1t0gGNrZOrA3//+d3FdpaWlmvNdwqUDLhGLCFW9IRr0u4bm2r7t8pf1jXePChu3vo+4LAFr+7Lcb2xnfNq0aWJO5bbtncHpRu0yC3KX09ufy+DbdkBv0DjCLu9ZRqZL9slt0DoRskScxWm0XU5tHRy9Wcnlrd/ptymncqe5M12Rfjn6tm2c2K5WI+tAaQFErObQslNleRancLU9KohpqkY1zAVhJAc3zkAMsanOokWLRPnp06eLiorE0L/66qumChWGl/F+bboL/P73v7/tttvktgjriy++2LhXO/NpsE6dOmKa9RJR7bzyf0Bq26YkfgkWu8RMm3ecEUizIrDkS7EyxcvPP/9cf1m7dm35PxNkTVM77du313e5DIup29axEp985C7xeU+cUXywP3z4sOi2WPn6Uffff7+1KRH0NezSLkbTp08XnyTr16//q1/9auzYseIQfZe1e07XIvojPp0aL//ee++Vu0pKSmJjY8UnE33Xm2++2aRJE7ntdIH6LuPZA7mcQMiWiXbNrlm1o93UPcklRJ1mX7O7nAqvXX8HcjmjtXIg1xUI2Sxhr9k1q3bYR9BN3kRWkOEqNtLT02VOUAtsEdlOlr43kPVoO7wu9bWqXa++ADWHyrJQzk5mZqb++/Hrr7/eoEGDY8eOufdNF/SSMXZAf2kMdeuFO91MtF+2ZmrZWuf666+Xv6mLO8ljjz2mn9r9kmW1Ki7wQE7h+R1b6N27t/i4opV/LXr+/Pmy3GUxapW/ZPcbkbGa06Xpc2Et1IfFxD3UXSJQs7Ts1KvKMo6GzqUn7rfoAMfWyHiI+K+YffFR3FRHMwydSwfcIxYRqnpDNOh3Dc21fbnL/e4RSOOm9xH3JWBq37eMl6ZbtmyZKDx+/LixUDPcGZxuiRXOgu3bn/vgG1nv6voIu79nGRkv2T+3QetEyBJxFtvRdj91heHn9Nbv9NuUU7nL3JmuSL8cfdslTqyzprMOlBZAxGoBtGytbBuuJu6Lwn2aqlH1Z4TXrFmzpZyc+3/9619XXnlls2bNxIfJunXrijoi7FavXi02rNmECsPLeL82zfrixYsbNmx49OhR8XtqcnJyTk6Oca9W/lZkPOkHH3wgSuT/OLJtU3J/Dwuk2X379sld8uVPP/1kfCnWm75t247x2vWaxmGxfSM0jpWpA+KMsts7d+7Uj5KnMzUlJrF79+5iYMXnRvExwOmb8GJO33//ffER6ze/+U1MTMy0adNkubV7TtdiDQm9PyKoavwyDyUD6ciRI3oL1gs0Nq63GeDlVEi2TLRrds2qHe2m7kkuIeo0+5rd5VR47Xv27JG7XM5orRzIdQVCNkvYa3bNqh32WuTc5E1kBdH+999/n52dLX61XbhwodwVyEmtvTVOeiDr0XZ4XerrjQd+vbYL0KmyLJSzIz4kiEPk31v77W9/O3z4cK2ivumCXjLGDmi/7KTThVsjR2dszdSytc6HH37YsmVLsSLEB0vRc/3U7pds26vKLvBATuH5HVvcomvVqqX3R3zgEbMst61Darw5VPaS3W9ExmpOlyYr2MaqPixaZULdJQL1+p4PuHE0dC49cb9FG1uT27ZjayTLZYCJu/TFF1+8adMmuct26Fw64B6xiFDVG6JBv2toru3Lbfe7RyCNm95H3JeAqX3fMl6abunSpTXK82u2dwanW2KFs2A7wu6Db9sBvUF9hN3fs4zkgXLK/HMbtE6ELBFnsR1t91ObBsekUm/97uUuc2e6Iv1y9G2XOLHOms46UFoAEasfWKlfj22vy+moIKapGlV/Rtg0hWJi4uPjhw0btmLFis2bN//tb3+Ts+UUef/85z+NjXzyySf67Brbt511MVXJycmvv/76kiVL6tWrd/jwYeNezTWsNYc2Jfd/5xJIs7YLxvRSbltvSaKdCofF9o3Q9N5m3CXqW9+Y5XqzjsCJEyfee++90aNHN27cODMz07TX6tFHHxVLqKysTLPrntO1yJCwXr7e1S+++ELPQ0nGU1gv0LStq+zl2DKdVCLaXebC9FJuW6fb/9FuOoXkEqJOs6/ZXU6F167vcjmjtbIWwHUFwtqsRthbhsV0FuNLuR2JYW/i85u8kenYu+66q3Xr1vIf0AVyUmtvbSfdvSnr8LrXr9T1FjosQNvKeqFsXFyL+O32zTffFL+4165dW34n1L1vuqCXjFN4aM4X7nQz0evYLgRrHXEJYvYzMjLkpyO9ffdLduqV9aXcto2ZSp1Cs4uZIIwfP140W6tczTNk91wWo2bpT4WXbDv+TtVsL810CmOh3mClQt0lAvX6ng+4tVnNtSfut2hja6aWrddrLBefUbdu3SpWqF7uNHQuHXCPWESo6g3RoN81NNf2bc9lqh944/q2+xIwte9btv189tlnU1JSNOc7g+ZwSzS1Zhx5uW19T9GjyHbwXTpgOpf7e5aRPNBvt8F///vfoqndu3frJfJ7r0ePHtXsRtv91LbTqqvwrd/625RTucvcBfG7nGnblu2lBRKx1pYrrGwNJ/eYrOw0VSPfZYTlAtBH/JlnnpHD6vTt9LVr14oK//nPf+TL6dOn24bX559/XsPwhQXdhAkTfv3rX4tJuummm0y7tPJ//OL0FXFrJBldddVV1j9VKSsH0qztqjC9lNuvv/663KWdWdKyHZdhsR0K40mdOnDozD8EeOutt/SjxOi5jIBW/i8H5c3LxeLFi/VH9li753Qt8t+DGC9/3LhxcteRI0fq1q37xhtv6LuMnC5Qszu7UYCXY8t0Uolod5kL00u5HYnRbjqF5BKiTrOv2V2Oy7WbzutyRs1S2cjpugJh2yxh7xR11pdyOxLD3iRSbvKa5Vjxe634/fjNN9/UAltEtpOl7w1wPer04XWvX6nrdVqAtpU1S+M333zz73//++eff75ly5byV1j3vhkFt2ScwkOz9E2/cKebiea6EGzryL8mJ/8Fpd6++yU79cr6Um7bxkylTmEU4JK0OnnyZFJS0pNPPvmtQdeuXeWfi3FZjJqlPxVesu34O1XTGS8tkFitVKi7RKBmadko6AHXHJp16Yn7LTrAsTWy7YDmPHQuHXCPWEQo2wgJZ4gG966hubZvXf7W+oE3rm+7LwFT+75l7af8O12jRo3SnO8MemXtl7dEl1mQ27Zvfy6D79IB6wy6vGcZWS9ZcjqXS5C7x0ClFBQUiF+bly5dqpeId2eZ5TQK7rdEI/e3fqffppzKXeYuiN/lNIfVamS9tAAj1tqyS2WXcHU5ShfgNFUj32WE9+zZIz59iUWbl5e3aNGiVq1a6cMqQqpJkyZiBe40PMH6+PHjCQkJQ4YMEfWXLVt27rnn2oaX+FAntkXg7t+/33jGbdu21axZs3bt2p999pleaDR69OjExMT33ntPnHT27NnGx0gb49Vq8+bNzZo169u3r2hZHCuWwUMPPaT/vdQKm7VdFaaXcrtdu3bvv/++aOfll18WQSb/pKPLsNgOhfGkLh0YOXKkuBmJ25M4nRh/cQepYfk3PqtXr37hhRfEgt+yZcvQoUNbtGghn8Ci+9e//jVo0KCFCxeKCqId0XmxbvWRsXbP5VrGjBnTvHlz0YI4Sly4GHB91yOPPCKiRdySfvjhB3EiETa2f2pcf+k0OBVeToBMJ5WIdpe5ML2U2xEX7Vp5m+K/6wzKyspcQtR29jW7y3G5dtOlaZVZFIFcVyCsfdAIe8uwmM5ifCm3Iy7sI+smb2I6Vjvz8Fz9oXIVntR2svS9gaxHp+F1qm9t3P16XRagtbK18eXLl4vV1LFjR9GCLNFc+2YU3JJxCQ+XC7e9mZgOsU6Ktc6JEycOnPmysF5elfAzvZTbTjET+CmcYqZSFi9eLGbW+A0pYcqUKW3atJGtuSzGyl6y7fjbVnO6tEBitbKh7hSB1padelVZstlPLb8euPTE5RYd4NgamarpXIbOpQMuEYsIVe0hGty7hubavu3yt66FABs3brssAWv7/iT7uWHDhvz8fDH44hK6devWtm1bMVaa853B6ZboMgty2+ntz2nwnTpgPZfm+p5lZD1QcjmXS5C7xEBliV8+O3ToICJ/165dogOiWa9+SzSq8K3f6bcpp3KnuQvudznb1WokK1c2YjW7ll0qu4Sr01FBTFM18l1GWBCjnJycLAb6yiuvFOGlT4Z4B3riiSdEgIpxF8P62GOPyfoffvihiCoRcH369BHj6xRejz/+uGi2Zs2aorD8VP/161//WkywscTo5MmTDzzwgDhdnTp10tPTZ82ape8yxqstETF/+tOfxLFipYnb0HXXXff111/LXRU2a7sqTC/ltrj8Hj16iMsXITh9+nS9Hadh0eyGwnhSlw6IxXzXXXeJOK5Xr94f/vAHsYpqlP8LGt3GjRvFkMbHx4tLEx0T68G4V9i7d6+4k4p7nOibqJOWlnb33XcfNvxrbmv3nK5FfFS75557mjZtGhsb+7vf/e711183XuZf//rXLl26nHXWWXFxcZdccok+yC4XqFnOXuHlBMh0Uh3R7jIXxpdyO+KiXStv00Q+MMgpRJ1mX7O7HKdrN12a5HRGU+VArisQtn3QCHvnqDO9lNsRF/aRdZM3MR2rlf/Tti/L/zie+0mdJsvarObQlMvw2tbXLI1XeL1OC9C2sqlxsUhbtmxZw/LnMpz6ZhLcknEKD5cLd7qZGA+xnZQKy6sYfsaXctspZrSAT+ESM4G75pprrrrqKlPhtm3bZA8118VY2Uu2HX/bai6XVmGsapUMdZcINLXs0qtKkc2aHDnzMHGnnrjcogMcWyPriOmchs6lA5pzxCJCVXuIasG+a7i3b13+1rUQYOOmA52WgLV9f5L9FGJiYho0aHDxxRdPmjTJ+Pub7Z3B6ZboMgty2+ntz2XwbTugN2gcYZf3LCPrgTqnc7kEueYcA5Ulhv22225LTEwUkZ+amvroo4/KZ9E6jbbmfGqXa6zwrd/ptymncpe5C+J3Oc1utRrJyjUqGbFyl7Vlp8ru4Wp7VBDTVI1sRjbanHfeeVOmTDGXRgKX5R0ekydPFncocyl8jGgPGtEeuQj7oBH2gav2yQIQbar9Fl3tHYDPVWOEVPujORElqjHIAU9EdUZ4//79L774YmxsrP7HDSNL+D9/5ubmvv7661u3bs3Ly5s1a1ZcXFyE5lmiENFeWUS7Agj7yiLsgxb+yQIQbar9Fl3tHYDP+SRCvv322/fff99cCnjBJ0EOeCWqM8Liw1tCQoL+3JOIE/7Pn+IOePHFF4sbX+3atdu2bStuf/wP2EhBtFcW0a4Awr6yCPughX+yAESbar9FV3sH4HN+iJD58+d36NDB+nwAwBN+CHJV/fjjj9u3b/93ObFtesYxQiGqM8IAAAAAACDS3X///cnJyWPGjDHvAOAzx44dW7NmzUsvvXTLLbf07t27devWSXZEudgr6oiaor44ytwQqoaMsIJOnTq9bt2Gp56aOnHiZPEzadITWVnPff/9ZnM9QBXffvv9009Pe+SRJ0TAi/+KbVFirgQAgeFtFPAV3uUBuCstLc3MzExJSUlPT1+1apV5NwB/OHHixNKlS4cPH66ngC+55NKBA28YN+7BZ555PidnzqJF/0/+iG1Rcvfd94m9PXr0lJVbtWo1cODAN9988+jRo+amERQywqrZvPmH++57aMaMlzdu3LVz5yH5I7ZffPHlhx56ZO/eveYDgEi2c+fu+++3CXhRIsrFXvMBAOCKt1HAP3iXB1Chffv2XXjhhcnJyRdddNEVV1xh3g3ABw4dOvT444+3b98+KSnp/PMvGDt2whtvLPruux36m7v7j6gp6o8d+0CXLheIFtq1aydaE22aT4NKIiOslM8+WzV+/MPbtu23LiHxI8r/8pdHcnNzzYcBkWnNmrX33+8W8GKvqGM+DAAc8DYK+Afv8gAq9PXXX6elpcnvD1599dUzZ8401wBQ3ZYsWXLeee1btGjxf/834t13P9yxo9D6th7gjzhWtDB8+AjRWvv27UXL5pOhMsgIq2PTpjzxOda6Zkw/Dz88ia84QQG7du2ZMKHigBd1RE3zwQBgwdso4B+8y7t4++23zUXBKi4uXrRo8VNPPf3kk0898cRT4r9iW5SIcnNVwH8OHz5sfPyo2L7//geefvqZxYuJ4cjA3SwaPPbY42J5XnXVbz/77Cvr+3jQP6K1q6/+nWj58ccfN58SASMjrIiTJ8vGjXvQ6WsUxp/t2/c/8sgk8/FApHngAcfvDRl/RB1R03wwAPwSb6OAr/Au7yIrK8tcVHnbt2+fNOmxKVOe/eST1aZRFSWiXOwVdcyHAb6xdeu2hx+eNHLkmJYtW5Z/R/h/n376eRHD//znmqefnvr445OJYZ/jbqa8adOmibV5++135eX9ZJqdqv+INseMuVu0/9xzz5lPjMCQEVbE119/m539qnWR2P68+urrmzfzF3IQwb7/flNOTqABL2qK+uYmAMCAt1HAP3iXd1fFHEpZWdn06S8891z29u0HrOOp/4i9oo6oKeqbmwCqlYjJZ5997tlnZ8gYXrnyu/T085KSknr1urxnz1/pMfzDDz+++OJLM2bMIIZ9i7uZ2jZs2NCqVauhQ2+2ToqHP//3f38SZxHnMp8eASAjrIinnppm/Jsb7j9btuzNzs42NwFEDvGOHnjAi5qivrkJADDgbRTwD97l3VUlh1JcXDxhwoOff/61dSRtf0RNUZ9/dg3/OHLkyL33TjD98/MtW/b16nVF0n//3lT6kiWfGHetWvXNQw89RAz7E3cztd122+1t27YL/M/HBfcj2hcLf9SoUebTIwBkhBXx8MOTrWvD6Wf37sNVufkC1W7y5CnWwHb5EfXNTQCAAW+jgH/wLu8u6PtPWVnZhAkPrl+fZx1Dlx9RXxzFd+vgB6dOlY0de79TDN944/Dk5OThw28zlX///c6HHnqIGPYh7mYKO3HiRFraOaNG3W2dCM9/7rzzz+ecc444o7kTqAgZYUVU6qPsrl18lEVk47MiAG/xNgr4B+/y7oK+/0yf/nzg36cz/oijxLHm5oCwe/rpae5/nGrq1Ozzzmtv/U7imjXfzJgxw9wcqht3M4Xl5uaeecLvX62z4PnP88/PFOf69ttvzZ1ARcgIK2LixEp8lN27tyjomy/gB08++ZQ1sF1+RH1zEwBgwNso4B+8y7sL7v6Tl5c3bdqL1tEL8EccK1owNwqE0fffb33mmReswWn6+fjjlXPmvGMtz8mZSQz7DXczhb388stJSUlPPPGsdQo8/xFnEeeaM2eOuROoCBlhRTz77PTAH7i2Y8c+HoCIiDZjxouBB7yoKeqbmwAAA95GAf/gXd5dcDmUSZMe27Ztv3UAA/wRx4oWzI0CYfTAAxMDjOEffjhoLdy586fJkyebG0W14m6msIULFyYlJY0f/7B1Cjz/EWcR5xJnNHcCFSEjrIgNG/4T+B9Jnzv3Tf5IOiKaCODZs/9mjW3bH1GTgAfgjrdRwD94l3cXRA7lyJEjTz6ZZR29Sv2IFkQ75qaBsPjxx8LHHnvaGpaV+pk69Tli2Fe4mynss88+S0pKuu66Idbx9/xHnEWcS5zR3AlUhIywOiZMeCiQ/1eWn1/46KOPmg8GIs0jj0zavr3igBd1RE3zwQBgwdso4B+8y7sIIofy97///ZNPVlkHsFI/ogXRjrlpICzmzVv48cdVjeGVK79esmSJuWlUH+5mCvv3v/+dlJSUlnaO9bne3v6I9sVZxLnEGc2dQEXICKtjz549Dzww0bpCjD8FBUcmT568d+9e88FApBFh/Mgjj1mD3PQj6hDwAALB2yjgH7zLuwgihzJlSlW/XCl/RDvmpoGweOSRJ6wBWdkf8SYexPJB6AQxHdzNIoXMCLdo0XLo0Jut4+/hj2hfnIWMcHDICCtl3bp1f/nLI05fcdq7t1B8js3NzTUfBkQmEcyTJj2Wl3fAGu3iR5SLvQQ8gMDxNgr4B+/yToLIoTzxROX+WJ/Tj2jH3DQQFpX6A7BOP3v28Idh/SWI6eBuFilkRvjWW8eI/95++115eT9ZZ6GKP6JN0bJ+FjLCQSAjrJozX6mYNHPmnO+/3y3Xye7dh/PyCl57be5jj0Xj1yigNhHSjz762Msvv7Zly179vUFsixJRTsADqCzeRgH/4F3e1l133ZVVSXfe+WfrZ+kgfiZPnmLuDRAWDz/8uDUgK/uza9ehrMqnIBE63M0UJjPCixb9v/vue0hsXHXVbz/77Kv/r737fbGqzAMA/m9csBnI/PVGeycRi/uq6F3QgoptmyXFJkSSqPhjanFmHHNGnXJSN1jMQNmicWqI1hZb8MXQD9rFohEacSbrza7rkq4ygTbtfrfLSp0beufMcXzOuZ8PD8P1Oc/5nuHO9/nOuV/ueBt/ELlHRIuYETnix1V0hPPREa6mM2fODAwM9Pb2rl69OupmPI6Z7CKoinrCR6pLeKAQfo1COvyWz+ibfkvLu+oou4LeI3wpx/bh1snx41DNyuJ6Rzie7UOH/rhgwcI5c+asXv3EsWPvnTv3TeNPpMkR50aEiBPRImZEjkkd4dx0hCsuR5GF8pLwQLFUFUiH/ViX43no6SmmhxJxsqFhVvh/hCspx49DNSuLH3eEY4yOfrVxY8ddd82LycWLl6xfv/nIkaHmP3QuVsb6OCvOjQgLFiyMaBGzflRHODcd4YrLUWShvCQ8UCxVBdJhP9bleB7eeuvtEyc+bHyNPa0RESJONjTMiqNH35x5Do+M/HV4eDgbmttHNauwTEe4PsbG/j4w8IcHH/zVHXe01X6wdOk9y5evWrduY2/vSwcOvBrr6yMex8yGDVtXrHg41tQXt7W1r1z569dee3N8/CefMaAjnJuOcMXlKLJQXhIeKJaqAumwH+tyPA+XL1/esaOvsS0yrRERIk42NMyK8+e/6ezc1ZiW0xq7d/fL4aSoZhX2sx3h6+PMmX+8885fdu7sX7XqN/fe+4u2tvZ6zzcj5uNorImVsT7Oagz1lY7wDOgIV1yOIgvlJeGBYqkqkA77sS7f8/D889vPnj3f+EK6yRHnRoRsUJgt33//n82bn59JDn/55YXu7u5sXG4r1azCbtwRbhyffjo+MvLp9fcIx+OYaVz2s0NHODcd4YrLV2ShpCQ8UCxVBdJhP9blex7Gxyf27Hm58YV0kyPOjQg/DQmz6vTpsd7efY3J2eTYv//3ExMT2aDcVqpZhU23IzyToSOcm45wxeUrslBSEh4olqoC6bAf63I/D/39L508+Unja+mbjjgrzs2Gg1m3c+eefDn8wQenBgYGsuG43VSzCtMRLgUd4YrLXWShjCQ8UCxVBdJhP9blfh6mpqY2bdry2WcTjS+nbzBifZwV52bDway7du27Z5/dNN0cPn363LZtHXI4QapZhekIl4KOcFm9/vrrfU146KGHslM/J6JlLwApkfBAsVQVSIf9OC19eXso4cqVK5s2bWn+vXWxMtbHWdlAcJtcvPjv9es3NZ/DIyN/27p1mxxOk2pWYTrCpaAjXHEzKbJQOhIeKJaqAumwH+tm+DxMTU3t3fvi7t0vj4//s/F19fURR2NNrPR+OlJz7dp3u3bt7e3dd9McfvHF/fv27ZPDyVLNKkxHuBR0hCtuhkUWykXCA8VSVSAd9mNdIc/D2bNnn3tue3d374kTH2ZeWsdMzMfRWJM9DZLxxRdntm37XWfnrsYcfv/9D3t6dm/f3jU+Pp49jZSoZhWmI1wKOsIVV0iRhbKQ8ECxVBVIh/1YV+B/i3HlypXBwaEdO17o7t7Z2dkTX+NxzPjDasri8uXLb7wxGKnb1fW/EQ96el4YGpLD5aCaVZiOcCnoCFecW2daioQHiqWqQDrsRwAoBR3hUtARrji3zrQUCQ8US1WBdNiPAFAKOsKloCNccW6daSkSHiiWqgLpsB8BoBR0hEtBR7ji3DrTUiQ8UCxVBdJhPwJAKegIl4KOcMW5daalSHigWKoKpMN+BIBS0BEuBR3hinPrTEuR8ECxVBVIh/0IAKWgI1wKOsIV59aZliLhgWKpKpAO+xEASkFHuBR0hCvOrTMtRcIDxVJVIB32IwCUwkcffVSr1QYH/9TYwC18xFXiWnHF7DfBzegIV5xbZ1qKhAeKpapAOuxHACiFiYmJWq128ODhxgZu4eOVV16La8UVs98EN6MjXHFunWkpEh4olqoC6bAfAaAUrl69euedc9euXdfYwC18PP30s3Pnzo0rZr8JbkZHuOLcOtNSJDxQLFUF0mE/AkBZPPnkb+fNm//55+cae7gFjog/f/6CtWvXZi9PE3SEK86tMy1FwgPFUlUgHfYjAJTF6OhoW1vbI4883tjGLXA8+uiauEpcK3t5mqAjXHFunWkpEh4olqoC6bAfAaBE9uzZW6vVnnrqmYmJfzU2c2c4Iubatc9E/P7+/uyFaY6OcMW5daalSHigWKoKpMN+BIBy2b69s1ar3XffAydPftLY1c09Itr99z8Qkbu6urKXpGk6whXn1pmWIuGBYqkqkA77EQBK5+23hxcuXDhnzpzVq584duy9c+e+aezwNjni3IgQcSLaokWLhoeHsxdjOnSEq2xycnLlypXxNXsAqkjCA8VSVSAd9iMAlNTFixc7O7vmzZtfq9UWL16yfv3mI0eGmv/QuVgZ6+OsJUvujgiLFi3q6uqKmNnLME06wpU1NTXV0dExOjoaX+Nx9jBUi4QHiqWqQDrsRwAou8nJyaNHjy5fvrytra32g6VL71m+fNW6dRt7e186cODVoaE/10c8jpkNG7auWPFwrKkvbm9vf+yxx959992rV69mQ5OLjnBl9fX1jY2NxYP46o/sqDwJDxRLVYF02I8AUBnffvvtxx9/fPDgwccfX7Ns2bL29vZ6zzcj5pct++WaNWtiZayPs7KBmBkd4Wo6fPjwyMjI9X/G45j50XGoFAkPFEtVgXTYjwBQbRcuXBgfHx/5v3gcM9lFFE1HuIKOHz8+ODiYmYyZmM9MQgVIeKBYqgqkw34EALgVdISr5tSpU/v378/O/iDm42h2FspMwgPFUlUgHfYjAMAtoiNcKV9//XVnZ2d29kfiaKzJzkI5SXigWKoKpMN+BAC4dXSEq+PSpUtbtmy58acuxtFYEyuzB6BsJDxQLFUF0mE/AgDcUjrCFdH8PXEzd9iQOAkPFEtVgXTYjwAAt5qOcEVM6+/mbvpXeJA4CQ8US1WBdNiPAAC3mo5wFeT4bI0bfFIHJE7CA8VSVSAd9iMAwCzQES69wcHB48ePZ2ebEGfFudlZSJuEB4qlqkA67EcAgNmhI1xuIyMjhw8fzs42Lc6NCNlZSJWEB4qlqkA67EcAgFmjI1xiY2NjfX192dlpiggRJzsL6ZHwQLFUFUiH/QgAMJt0hMvq/PnzHR0dU1NT2QPTFBEiTkTLHoCUSHigWKoKpMN+BACYZTrCZXXo0KHJycnsbC4RJ6JlZyElEh4olqoC6bAfAQBmmY4wAAAAAECr0BEGAAAAAGgVOsIAAAAAAK1CRxgAAAAAoFXoCAMAAAAAtIr/AmyDEfJ/WfYlAAAAAElFTkSuQmCC;" vertex="1" parent="1">
                    <mxGeometry width="1883" height="1020" as="geometry"/>
                </mxCell>
                <mxCell id="3" value="sq Login" style="shape=umlFrame;whiteSpace=wrap;html=1;rounded=0;shadow=0;comic=0;labelBackgroundColor=none;strokeWidth=1;fontFamily=Verdana;fontSize=10;align=center;" vertex="1" parent="1">
                    <mxGeometry x="-60" y="-30" width="1990" height="1110" as="geometry"/>
                </mxCell>
            </root>
        </mxGraphModel>
    </diagram>
</mxfile>